<?xml version="1.0" encoding="UTF-8" standalone="no"?>
<!-- Created with Inkscape (http://www.inkscape.org/) -->

<svg
   xmlns:dc="http://purl.org/dc/elements/1.1/"
   xmlns:cc="http://creativecommons.org/ns#"
   xmlns:rdf="http://www.w3.org/1999/02/22-rdf-syntax-ns#"
   xmlns:svg="http://www.w3.org/2000/svg"
   xmlns="http://www.w3.org/2000/svg"
   xmlns:sodipodi="http://sodipodi.sourceforge.net/DTD/sodipodi-0.dtd"
   xmlns:inkscape="http://www.inkscape.org/namespaces/inkscape"
   width="210mm"
   height="297mm"
   viewBox="0 0 210 297"
   version="1.1"
   id="svg8"
   inkscape:version="0.92.0 r15299"
   sodipodi:docname="drawing0.svg">
  <defs
     id="defs2" />
  <sodipodi:namedview
     id="base"
     pagecolor="#ffffff"
     bordercolor="#666666"
     borderopacity="1.0"
     inkscape:pageopacity="0.0"
     inkscape:pageshadow="2"
     inkscape:zoom="1.4"
     inkscape:cx="160.7207"
     inkscape:cy="1026.0972"
     inkscape:document-units="mm"
     inkscape:current-layer="layer1"
     showgrid="false"
     inkscape:window-width="1280"
     inkscape:window-height="1005"
     inkscape:window-x="-4"
     inkscape:window-y="-4"
     inkscape:window-maximized="1" />
  <metadata
     id="metadata5">
    <rdf:RDF>
      <cc:Work
         rdf:about="">
        <dc:format>image/svg+xml</dc:format>
        <dc:type
           rdf:resource="http://purl.org/dc/dcmitype/StillImage" />
        <dc:title></dc:title>
      </cc:Work>
    </rdf:RDF>
  </metadata>
  <g
     inkscape:label="Layer 1"
     inkscape:groupmode="layer"
     id="layer1">
    <path
       inkscape:connector-curvature="0"
       style="clip-rule:evenodd;fill:#010101;fill-rule:evenodd;stroke:#010101;stroke-width:2.54227543"
       d="m 45.893851,14.247248 c 0,3.699934 -2.900098,6.698722 -6.478058,6.698192 -3.57796,-0.0013 -6.479381,-3.001433 -6.479381,-6.701632 0,-3.700198 2.900363,-6.6989859 6.478058,-6.6981919 3.57796,0.0018 6.479381,3.0016979 6.479381,6.7016319 z"
       id="path4553" />
    <g
       transform="matrix(0.26458333,0,0,0.26458333,15.881371,6.265297)"
       id="g4563">
      <path
         style="fill:#ffcc00"
         inkscape:connector-curvature="0"
         d="m 39.651,46.68 c -44.969,43.663 -50.07,140.646 -1.164,192.438 51.409,54.444 145.329,53.947 195.813,3.567 51.877,-51.769 54.604,-131.891 8.549,-188.207 -50.37,-61.586 -138.314,-70.8 -203.198,-7.798 z"
         id="path4555" />
      <g
         id="g4561">
        <path
           style="fill:none"
           inkscape:connector-curvature="0"
           d="m 39.651,46.68 c -44.969,43.663 -50.07,140.646 -1.164,192.438 51.409,54.444 145.329,53.947 195.813,3.567 51.877,-51.769 54.604,-131.891 8.549,-188.207 -50.37,-61.586 -138.314,-70.8 -203.198,-7.798 z"
           id="path4557" />
        <path
           style="fill:#010101"
           inkscape:connector-curvature="0"
           d="M 36.934,43.962 C 6.838,73.562 -3.205,119.66 0.862,160.518 c 2.165,21.755 8.708,43.123 20.062,61.861 11.465,18.922 28.43,34.059 47.793,44.567 38.533,20.912 87.19,22.636 127.435,5.596 42.95,-18.185 73.317,-58.809 81.129,-104.54 C 285.362,120.688 267.934,72.315 233.855,39.019 201.161,7.076 154.53,-6.69 109.856,3.103 82.15,9.177 57.217,24.448 36.934,43.962 c -3.578,3.442 1.864,8.871 5.436,5.436 35.482,-34.137 84.699,-50.869 132.869,-36.563 46.25,13.736 81.641,54.486 92.779,100.845 11.391,47.407 -5.127,98.258 -41.2,130.783 -33.292,30.017 -82.76,38.231 -125.342,27.153 C 79.473,265.892 59.188,254.47 43.118,238.38 27.339,222.58 17.363,202.026 12.027,180.522 1.902,139.717 8.227,90.392 35.289,57.102 c 2.202,-2.709 4.594,-5.257 7.082,-7.704 3.536,-3.48 -1.902,-8.913 -5.437,-5.436 z"
           id="path4559" />
      </g>
    </g>
    <path
       inkscape:connector-curvature="0"
       style="clip-rule:evenodd;opacity:0.22000002;fill:none;fill-rule:evenodd;stroke:#010101;stroke-width:1.11543036"
       d="m 82.910911,25.07347 c 0,0 -5.674519,19.328341 -38.1635,29.989991"
       id="path4565" />
    <path
       inkscape:connector-curvature="0"
       style="clip-rule:evenodd;opacity:0.22000002;fill:none;fill-rule:evenodd;stroke:#010101;stroke-width:1.11543036"
       d="m 29.116623,16.153835 c 0,0 4.237302,28.388734 48.938919,54.447282"
       id="path4567" />
    <g
       transform="matrix(0.26458333,0,0,0.26458333,15.881371,6.265297)"
       id="g4577">
      <path
         style="fill:#010101"
         inkscape:connector-curvature="0"
         d="m 174.355,101.981 c -43.021,-7.701 -111.662,3.068 -137.524,26.602 -39.524,35.657 16.247,121.859 56.42,133.004 52.411,14.541 116.388,7.237 143.871,-45.502 32.469,-64.455 -4.94,-99.36 -60.651,-114.104"
         id="path4569" />
      <g
         id="g4575">
        <path
           style="fill:none"
           inkscape:connector-curvature="0"
           d="m 174.355,101.981 c -43.021,-7.701 -111.662,3.068 -137.524,26.602 -39.524,35.657 16.247,121.859 56.42,133.004 52.411,14.541 116.388,7.237 143.871,-45.502 32.469,-64.455 -4.94,-99.36 -60.651,-114.104"
           id="path4571" />
        <path
           style="fill:#010101"
           inkscape:connector-curvature="0"
           d="m 175.788,99.106 c -22.491,-3.917 -45.875,-2.992 -68.383,0.283 -21.383,3.111 -43.581,8.509 -62.346,19.588 -14.892,8.792 -24.576,21.822 -25.77,39.378 -1.249,18.36 5.922,36.67 14.672,52.43 9.148,16.477 21.649,31.662 36.767,42.994 15.058,11.288 33.858,14.645 52.219,16.477 42.724,4.263 88.239,-8.147 113.104,-45.316 15.824,-23.655 24.019,-56.618 9.717,-82.75 -13.166,-24.056 -41.782,-36.14 -66.927,-42.883 -3.38,-0.906 -9.645,4.035 -4.738,5.351 19.54,5.24 39.436,13.162 54.013,27.673 13.713,13.652 18.818,31.942 16.123,50.89 -3.305,23.229 -15.872,46.106 -34.214,60.756 -17.037,13.607 -38.688,19.634 -60.147,21.017 -11.116,0.716 -22.279,-0.017 -33.288,-1.619 -9.442,-1.374 -19.371,-3.145 -28.102,-7.137 C 72.213,248.796 59.128,233.8 49.07,219.444 38.083,203.763 29.504,185.389 27.646,166.158 c -0.806,-8.338 0.27,-16.99 3.752,-24.637 3.572,-7.842 10.018,-13.394 17.18,-17.892 17.482,-10.98 39.337,-15.744 59.494,-18.676 21.364,-3.108 43.522,-3.81 64.854,-0.096 3.896,0.679 8.313,-4.802 2.862,-5.751 z"
           id="path4573" />
      </g>
    </g>
    <g
       transform="matrix(0.26458333,0,0,0.26458333,15.881371,6.265297)"
       id="g4581">
      <path
         style="fill:#ed1b6a"
         inkscape:connector-curvature="0"
         d="m 250.235,163.193 c -5.812,-31.253 -35.123,-50.524 -72.66,-60.612 H 175.43 C 131.802,94.65 62.19,105.742 35.962,129.979 25.641,139.435 21.765,152.351 22.337,166.502 l 4.348,3.13 c 8.622,7.931 17.963,-3.604 22.99,-9.373 6.469,-7.93 9.343,-12.977 19.403,-15.86 9.341,-3.606 18.684,-2.884 28.019,-4.326 8.624,-1.442 15.096,-5.046 23.713,-5.768 7.906,-0.721 15.093,-5.768 22.996,-2.884 3.597,0.721 6.468,2.884 10.058,3.605 4.317,0 8.623,-1.442 12.938,-0.721 5.03,1.442 6.466,5.768 11.495,7.21 5.749,1.441 7.902,1.441 12.934,5.048 4.314,2.163 7.907,5.045 12.217,7.208 5.747,2.883 10.058,1.443 15.087,2.883 6.472,2.164 7.182,10.095 15.092,10.814 4.312,0 12.214,-1.439 15.808,-3.603 z"
         id="path4579" />
    </g>
    <g
       transform="matrix(0.26458333,0,0,0.26458333,15.881371,6.265297)"
       id="g4585">
      <path
         style="fill:#ed1b6a"
         inkscape:connector-curvature="0"
         d="m 98.567,263.236 c 50.975,14.76 109.2,2.759 136.183,-45.144 0.402,-0.735 0.743,-1.448 1.124,-2.178 l -2.929,-2.908 c 0,-0.634 -0.696,-2.543 -1.388,-3.178 -11.829,-13.353 -41.738,21.617 -55.656,19.074 -5.565,-1.271 -5.565,-5.725 -12.519,-3.817 -4.176,0.639 -7.652,3.817 -11.826,4.453 -5.562,1.907 -5.562,-0.636 -10.437,-0.636 -3.475,-0.636 -7.651,1.271 -11.128,1.907 -11.132,1.907 -18.086,-1.271 -27.134,-5.086 -6.953,-3.178 -15.303,-5.086 -22.255,-8.268 -5.566,-2.542 -31.306,-16.53 -34.782,-4.45 0,0 -1.272,1.979 -2.911,4.764 13.961,20.419 29.309,37.838 55.658,45.467 z"
         id="path4583" />
    </g>
    <g
       transform="matrix(0.26458333,0,0,0.26458333,15.881371,6.265297)"
       id="g4589">
      <path
         style="fill:#ffffff"
         inkscape:connector-curvature="0"
         d="m 88.249,157.79 c 6.698,2.19 16.259,-6.914 17.8,-13.337 1.535,-8.641 -2.75,-23.457 -11.903,-26.308 -10.047,-3.29 -28.312,4.297 -30.956,14.044 -3.752,13.073 11.67,23.428 22.827,25.609"
         id="path4587" />
    </g>
    <g
       transform="matrix(0.26458333,0,0,0.26458333,15.881371,6.265297)"
       id="g4593">
      <path
         style="fill:#ffffff"
         inkscape:connector-curvature="0"
         d="m 90.08,235.423 c 0.705,-2.8 4.232,-10.5 9.167,-12.601 7.054,-2.8 16.222,2.101 19.042,8.399 4.938,8.401 0,18.898 -8.463,19.601 -10.579,1.399 -17.631,-4.2 -20.451,-12.601"
         id="path4591" />
    </g>
    <g
       transform="matrix(0.26458333,0,0,0.26458333,15.881371,6.265297)"
       id="g4597">
      <path
         style="fill:#ffffff"
         inkscape:connector-curvature="0"
         d="m 79.232,236.037 c 9.167,-3.502 3.55,-27.247 -8.463,-22.401 -17.366,7 -2.998,25.726 8.288,22.226"
         id="path4595" />
    </g>
    <g
       transform="matrix(0.26458333,0,0,0.26458333,15.881371,6.265297)"
       id="g4601">
      <path
         style="fill:#ffffff"
         inkscape:connector-curvature="0"
         d="m 126.639,252.798 c -10.073,-22.721 15.564,-39.986 31.131,-24.539 7.322,7.271 9.04,23.288 -1.948,27.832 -6.408,2.725 -23.692,2.159 -29.183,-3.293"
         id="path4599" />
    </g>
    <g
       transform="matrix(0.26458333,0,0,0.26458333,15.881371,6.265297)"
       id="g4605">
      <path
         style="fill:#ffffff"
         inkscape:connector-curvature="0"
         d="m 50.407,213.636 c 0,-7.001 9.875,-9.801 11.99,-1.401 2.116,11.199 -12.696,6.827 -11.903,1.314"
         id="path4603" />
    </g>
    <g
       transform="matrix(0.26458333,0,0,0.26458333,15.881371,6.265297)"
       id="g4609">
      <path
         style="fill:#ffffff"
         inkscape:connector-curvature="0"
         d="m 194.573,241.075 c 5.755,-10.238 -17.841,-27.873 -25.184,-14.225 -10.609,19.727 17.177,26.05 24.887,14.197"
         id="path4607" />
    </g>
    <g
       transform="matrix(0.26458333,0,0,0.26458333,15.881371,6.265297)"
       id="g4613">
      <path
         style="fill:#ffffff"
         inkscape:connector-curvature="0"
         d="m 196.846,228.575 c -0.241,-1.773 0.016,-7.014 2.379,-9.352 3.42,-3.218 9.84,-2.478 12.921,0.511 4.787,3.723 4.364,10.9 -0.356,13.23 -5.777,3.211 -11.137,1.593 -14.702,-2.614"
         id="path4611" />
    </g>
    <g
       transform="matrix(0.26458333,0,0,0.26458333,15.881371,6.265297)"
       id="g4617">
      <path
         style="fill:#ffffff"
         inkscape:connector-curvature="0"
         d="m 216.494,212.062 c 0,-7.002 9.875,-9.803 11.989,-1.401 2.116,11.2 -12.695,6.824 -11.903,1.313"
         id="path4615" />
    </g>
    <g
       transform="matrix(0.26458333,0,0,0.26458333,15.881371,6.265297)"
       id="g4621">
      <path
         style="fill:#ffffff"
         inkscape:connector-curvature="0"
         d="m 59.668,149.918 c 0.314,2.627 -0.19,10.368 -3.735,13.762 -5.132,4.677 -14.6,3.434 -19.084,-1.06 -6.985,-5.614 -6.186,-16.212 0.844,-19.543 8.613,-4.61 16.496,-2.085 21.666,4.21"
         id="path4619" />
    </g>
    <g
       transform="matrix(0.26458333,0,0,0.26458333,15.881371,6.265297)"
       id="g4625">
      <path
         style="fill:#ffffff"
         inkscape:connector-curvature="0"
         d="m 184.648,158.552 c -6.402,2.938 -16.947,-5.027 -19.219,-11.233 -2.516,-8.407 0.036,-23.615 8.801,-27.482 9.604,-4.405 28.62,1.061 32.369,10.445 5.229,12.562 -8.9,24.596 -19.734,28.025"
         id="path4623" />
    </g>
    <g
       transform="matrix(0.26458333,0,0,0.26458333,15.881371,6.265297)"
       id="g4629">
      <path
         style="fill:#ffffff"
         inkscape:connector-curvature="0"
         d="m 207.767,150.477 c -0.341,2.864 0.208,11.304 4.072,15.005 5.597,5.096 15.921,3.741 20.806,-1.158 7.618,-6.12 6.745,-17.673 -0.918,-21.306 -9.391,-5.028 -17.984,-2.273 -23.621,4.589"
         id="path4627" />
    </g>
    <g
       transform="matrix(0.26458333,0,0,0.26458333,15.881371,6.265297)"
       id="g4633">
      <circle
         style="fill:#010101"
         cx="36.818001"
         cy="77.957001"
         r="19.355"
         id="circle4631" />
    </g>
    <g
       transform="matrix(0.26458333,0,0,0.26458333,15.881371,6.265297)"
       id="g4637">
      <circle
         style="fill:#010101"
         cx="237.25101"
         cy="76.862999"
         r="22.024"
         id="circle4635" />
    </g>
    <circle
       style="clip-rule:evenodd;fill:#ff0000;fill-rule:evenodd;stroke-width:0.26458332"
       cx="25.585493"
       cy="26.534494"
       r="4.378325"
       id="circle4639" />
    <circle
       style="clip-rule:evenodd;fill:#d40000;fill-rule:evenodd;stroke-width:0.26458332"
       cx="78.832092"
       cy="26.393206"
       r="5.0844975"
       id="circle4641" />
    <path
       inkscape:connector-curvature="0"
       style="clip-rule:evenodd;opacity:0.22000002;fill:none;fill-rule:evenodd;stroke:#010101;stroke-width:0.63500005"
       d="M 65.419307,9.3762681 C 61.884209,19.614057 49.55489,20.218365 34.76627,28.79457"
       id="path4643" />
    <circle
       style="clip-rule:evenodd;fill:#f7f8f8;fill-rule:evenodd;stroke-width:0.26458332"
       cx="32.386875"
       cy="17.65799"
       r="1.3419666"
       id="circle4645" />
    <polygon
       transform="matrix(0.26458333,0,0,0.26458333,15.881371,6.265297)"
       style="fill:#9f9f9f"
       points="63.369,44.046 65.342,44.046 65.342,42.071 63.369,42.071 63.369,40.1 61.396,40.1 61.396,42.071 59.425,42.071 59.425,44.046 61.396,44.046 61.396,46.018 63.369,46.018 "
       id="polygon4647" />
    <circle
       style="clip-rule:evenodd;fill:#f7f8f8;fill-rule:evenodd;stroke-width:0.26458332"
       cx="33.94051"
       cy="21.287806"
       r="1.3419666"
       id="circle4649" />
    <polygon
       transform="matrix(0.26458333,0,0,0.26458333,15.881371,6.265297)"
       style="fill:#9f9f9f"
       points="69.24,57.765 71.213,57.765 71.213,55.79 69.24,55.79 69.24,53.819 67.268,53.819 67.268,55.79 65.296,55.79 65.296,57.765 67.268,57.765 67.268,59.736 69.24,59.736 "
       id="polygon4651" />
    <ellipse
       style="clip-rule:evenodd;fill:#f7f8f8;fill-rule:evenodd;stroke-width:0.26457676"
       transform="rotate(-26.757232)"
       cx="7.6433163"
       cy="49.564678"
       rx="1.3419334"
       ry="0.82309836"
       id="ellipse4653" />
    <polygon
       transform="matrix(0.26458333,0,0,0.26458333,15.881371,6.265297)"
       style="fill:#9f9f9f"
       points="51.259,130.691 53.02,129.803 52.476,128.724 50.714,129.611 50.169,128.532 48.407,129.42 48.951,130.5 47.192,131.386 47.736,132.468 49.496,131.58 50.041,132.661 51.803,131.774 "
       id="polygon4655" />
    <ellipse
       style="clip-rule:evenodd;fill:#f7f8f8;fill-rule:evenodd;stroke-width:0.26458332"
       cx="61.113476"
       cy="72.907227"
       rx="1.3419666"
       ry="0.96414167"
       id="ellipse4657" />
    <polygon
       transform="matrix(0.26458333,0,0,0.26458333,15.881371,6.265297)"
       style="fill:#9f9f9f"
       points="171.94,252.583 173.912,252.583 173.912,251.166 171.94,251.166 171.94,249.75 169.969,249.75 169.969,251.166 167.996,251.166 167.996,252.583 169.969,252.583 169.969,254 171.94,254 "
       id="polygon4659" />
    <circle
       style="clip-rule:evenodd;fill:#f7f8f8;fill-rule:evenodd;stroke-width:0.26458332"
       cx="81.72187"
       cy="35.270245"
       r="1.3417021"
       id="circle4661" />
    <polygon
       transform="matrix(0.26458333,0,0,0.26458333,15.881371,6.265297)"
       style="fill:#9f9f9f"
       points="249.831,110.612 251.805,110.612 251.805,108.637 249.831,108.637 249.831,106.666 247.858,106.666 247.858,108.637 245.887,108.637 245.887,110.612 247.858,110.612 247.858,112.584 249.831,112.584 "
       id="polygon4663" />
    <path
       inkscape:connector-curvature="0"
       style="clip-rule:evenodd;fill:#e54097;fill-rule:evenodd;stroke-width:0.26458332"
       d="m 44.357151,13.983458 c 0,2.829985 -2.218266,5.123657 -4.954851,5.123128 -2.736586,-7.93e-4 -4.955646,-2.295525 -4.955646,-5.125774 0,-2.830248 2.218531,-5.1236569 4.955116,-5.1228629 2.736321,0.0011 4.955381,2.2955259 4.955381,5.1255089 z"
       id="path4665" />
    <path
       inkscape:connector-curvature="0"
       style="clip-rule:evenodd;fill:#ad208e;fill-rule:evenodd;stroke-width:0.26458332"
       d="m 42.221964,13.983193 c 0,1.557602 -1.262327,2.819666 -2.8194,2.819137 -1.557073,0 -2.819664,-1.263651 -2.820458,-2.82046 0,-1.557866 1.262327,-2.819929 2.8194,-2.819664 1.557337,5.29e-4 2.820458,1.263385 2.820458,2.820987 z"
       id="path4667" />
    <g
       transform="matrix(0.26458333,0,0,0.26458333,15.881371,6.265297)"
       id="g4671">
      <path
         style="fill:#f490af"
         inkscape:connector-curvature="0"
         d="m 88.895,7.848 c -11.386,-0.002 -20.613,9.54 -20.613,21.314 0,11.772 9.23,21.32 20.617,21.323 11.385,0.003 20.612,-9.539 20.612,-21.312 0,-11.773 -9.233,-21.32 -20.616,-21.325 z M 88.9,47.361 C 79.254,47.359 71.406,39.195 71.406,29.162 c 0,-4.88 1.832,-9.462 5.158,-12.901 3.299,-3.412 7.678,-5.29 12.33,-5.289 9.646,0.004 17.493,8.169 17.493,18.2 0,4.88 -1.832,9.462 -5.158,12.901 -3.299,3.412 -7.678,5.289 -12.329,5.288 z"
         id="path4669" />
    </g>
    <path
       inkscape:connector-curvature="0"
       style="clip-rule:evenodd;fill:#f490af;fill-rule:evenodd;stroke-width:0.26458332"
       d="m 43.194571,11.39451 c 0,1.027113 -0.831585,1.859227 -1.858432,1.858963 -1.028435,0 -1.860021,-0.833173 -1.860814,-1.860021 0,-1.027113 0.832379,-1.8592269 1.859227,-1.8589629 1.02764,5.29e-4 1.860019,0.8331729 1.860019,1.8600209 z"
       id="path4673" />
    <circle
       style="clip-rule:evenodd;fill:#ffffff;fill-rule:evenodd;stroke-width:0.26458332"
       cx="42.437603"
       cy="13.399788"
       r="1.0331979"
       id="circle4675" />
    <path
       inkscape:connector-curvature="0"
       style="clip-rule:evenodd;fill:#ffffff;fill-rule:evenodd;stroke-width:0.26458332"
       d="m 42.867811,15.478089 c 0,0.376767 -0.305329,0.681831 -0.682889,0.681831 -0.376502,0 -0.681302,-0.305858 -0.681302,-0.68236 0,-0.376767 0.3048,-0.681567 0.681302,-0.681302 0.376501,0 0.682889,0.305329 0.682889,0.681831 z"
       id="path4677" />
    <path
       inkscape:connector-curvature="0"
       style="clip-rule:evenodd;fill:#e54097;fill-rule:evenodd;stroke-width:0.26458332"
       d="m 51.402211,11.33101 c 0,1.510771 -1.184275,2.735527 -2.645304,2.734998 -1.461029,-5.29e-4 -2.645834,-1.22555 -2.645834,-2.736585 0,-1.5110359 1.184275,-2.7355279 2.645305,-2.7352629 1.461029,7.93e-4 2.645833,1.225815 2.645833,2.7368499 z"
       id="path4679" />
    <circle
       style="clip-rule:evenodd;fill:#ad208e;fill-rule:evenodd;stroke-width:0.26458332"
       cx="48.756641"
       cy="11.330215"
       r="1.5054792"
       id="circle4681" />
    <g
       transform="matrix(0.26458333,0,0,0.26458333,15.881371,6.265297)"
       id="g4685">
      <path
         style="fill:#f490af"
         inkscape:connector-curvature="0"
         d="m 124.252,7.761 c -6.079,-0.001 -11.005,5.093 -11.005,11.38 0,6.285 4.927,11.382 11.007,11.384 6.079,0.001 11.005,-5.093 11.005,-11.379 0,-6.286 -4.93,-11.382 -11.007,-11.385 z m 0.002,21.096 c -5.149,-10e-4 -9.339,-4.36 -9.339,-9.716 0,-2.606 0.978,-5.052 2.754,-6.889 1.761,-1.821 4.099,-2.824 6.583,-2.823 5.149,0.002 9.339,4.361 9.339,9.717 0,2.605 -0.978,5.051 -2.754,6.888 -1.761,1.821 -4.099,2.824 -6.583,2.823 z"
         id="path4683" />
    </g>
    <circle
       style="clip-rule:evenodd;fill:#f490af;fill-rule:evenodd;stroke-width:0.26458332"
       cx="49.788784"
       cy="9.9482956"
       r="0.99298126"
       id="circle4687" />
    <circle
       style="clip-rule:evenodd;fill:#ffffff;fill-rule:evenodd;stroke-width:0.26458332"
       cx="50.377216"
       cy="11.019066"
       r="0.55165625"
       id="circle4689" />
    <circle
       style="clip-rule:evenodd;fill:#ffffff;fill-rule:evenodd;stroke-width:0.26458332"
       cx="50.242805"
       cy="12.128727"
       r="0.36406669"
       id="circle4691" />
  </g>
</svg>
