<?xml version="1.0" encoding="UTF-8" standalone="no"?>
<!-- Created with Inkscape (http://www.inkscape.org/) -->

<svg
   xmlns:dc="http://purl.org/dc/elements/1.1/"
   xmlns:cc="http://creativecommons.org/ns#"
   xmlns:rdf="http://www.w3.org/1999/02/22-rdf-syntax-ns#"
   xmlns:svg="http://www.w3.org/2000/svg"
   xmlns="http://www.w3.org/2000/svg"
   xmlns:sodipodi="http://sodipodi.sourceforge.net/DTD/sodipodi-0.dtd"
   xmlns:inkscape="http://www.inkscape.org/namespaces/inkscape"
   width="210mm"
   height="297mm"
   viewBox="0 0 210 297"
   version="1.1"
   id="svg8"
   inkscape:version="0.92.0 r15299"
   sodipodi:docname="l1shap3.svg">
  <defs
     id="defs2" />
  <sodipodi:namedview
     id="base"
     pagecolor="#ffffff"
     bordercolor="#666666"
     borderopacity="1.0"
     inkscape:pageopacity="0.0"
     inkscape:pageshadow="2"
     inkscape:zoom="2.8"
     inkscape:cx="78.693421"
     inkscape:cy="1023.8684"
     inkscape:document-units="mm"
     inkscape:current-layer="layer1"
     showgrid="false"
     inkscape:window-width="1280"
     inkscape:window-height="1005"
     inkscape:window-x="-4"
     inkscape:window-y="-4"
     inkscape:window-maximized="1" />
  <metadata
     id="metadata5">
    <rdf:RDF>
      <cc:Work
         rdf:about="">
        <dc:format>image/svg+xml</dc:format>
        <dc:type
           rdf:resource="http://purl.org/dc/dcmitype/StillImage" />
        <dc:title></dc:title>
      </cc:Work>
    </rdf:RDF>
  </metadata>
  <g
     inkscape:label="Layer 1"
     inkscape:groupmode="layer"
     id="layer1">
    <path
       style="fill:#d40000;fill-opacity:1;fill-rule:evenodd;stroke:none;stroke-width:0.22384658px;stroke-linecap:butt;stroke-linejoin:miter;stroke-opacity:1"
       d="m 12.632432,13.652449 c 0,0 12.945683,-3.7200024 7.843005,4.396366 -5.102679,8.116368 -6.331101,-2.299638 -10.29985,9.333823 -3.9687501,11.63346 -16.3474698,23.199285 0.09449,12.106915 16.441967,-11.09237 16.158485,-12.309824 13.985122,-14.203644 -2.173363,-1.893819 -6.614583,-1.623273 -7.087054,-1.217454 -0.47247,0.405818 0,10.213095 -3.496279,9.604368 -3.496279,-0.608728 -7.4650291,4.86982 -8.0319931,-2.502547 -0.566965,-7.372368 -6.898065,-7.440004 0.188988,-10.213096 7.0870521,-2.773092 9.0714271,-2.299637 9.2604151,-3.38182 0.188988,-1.082183 -2.456844,-3.922911 -2.456844,-3.922911 z"
       id="path4557"
       inkscape:connector-curvature="0" />
    <path
       inkscape:connector-curvature="0"
       id="path4568"
       d="m 16.158482,-0.71064692 c 0,0 -12.9456839,-3.72000178 -7.8430059,4.39636612 5.1026789,8.1163678 6.3311009,-2.2996375 10.2998509,9.3338228 3.96875,11.63346 16.34747,23.199285 -0.09449,12.106915 C 2.0788691,14.034087 2.3623511,12.816633 4.5357141,10.922813 6.7090771,9.0289942 11.150297,9.2995402 11.622768,9.7053592 c 0.47247,0.4058178 0,10.2130948 3.496279,9.6043678 3.49628,-0.608728 7.46503,4.86982 8.031994,-2.502547 C 23.718006,9.4348122 30.049106,9.3671762 22.962053,6.5940842 15.875,3.8209922 13.890625,4.2944472 13.701637,3.2122642 13.512649,2.1300817 16.158482,-0.71064692 16.158482,-0.71064692 Z"
       style="fill:#d40000;fill-opacity:1;fill-rule:evenodd;stroke:none;stroke-width:0.22384658px;stroke-linecap:butt;stroke-linejoin:miter;stroke-opacity:1" />
    <path
       inkscape:connector-curvature="0"
       id="path4570"
       d="m 16.34747,27.826556 c 0,0 -12.9456843,-3.720002 -7.8430063,4.396366 5.1026793,8.116368 6.3311013,-2.299638 10.2998513,9.333823 3.96875,11.63346 16.34747,23.199285 -0.09449,12.106915 C 2.2678567,42.57129 2.5513387,41.353836 4.7247017,39.460016 c 2.173363,-1.893819 6.6145833,-1.623273 7.0870543,-1.217454 0.47247,0.405818 0,10.213095 3.496279,9.604368 3.49628,-0.608728 7.46503,4.86982 8.031994,-2.502547 0.566965,-7.372368 6.898065,-7.440004 -0.188988,-10.213096 -7.087053,-2.773092 -9.071428,-2.299637 -9.260416,-3.38182 -0.188988,-1.082183 2.456845,-3.922911 2.456845,-3.922911 z"
       style="fill:#d40000;fill-opacity:1;fill-rule:evenodd;stroke:none;stroke-width:0.22384658px;stroke-linecap:butt;stroke-linejoin:miter;stroke-opacity:1" />
  </g>
</svg>
