<?xml version="1.0" encoding="UTF-8" standalone="no"?>
<!-- Generator: Adobe Illustrator 12.0.0, SVG Export Plug-In . SVG Version: 6.00 Build 51448)  -->

<svg
   xmlns:dc="http://purl.org/dc/elements/1.1/"
   xmlns:cc="http://creativecommons.org/ns#"
   xmlns:rdf="http://www.w3.org/1999/02/22-rdf-syntax-ns#"
   xmlns:svg="http://www.w3.org/2000/svg"
   xmlns="http://www.w3.org/2000/svg"
   xmlns:sodipodi="http://sodipodi.sourceforge.net/DTD/sodipodi-0.dtd"
   xmlns:inkscape="http://www.inkscape.org/namespaces/inkscape"
   version="1.1"
   id="svg2"
   sodipodi:version="0.32"
   sodipodi:docname="drawing3.svg"
   inkscape:version="0.92.0 r15299"
   width="1459.2"
   height="998.40002"
   viewBox="0 0 1368 936"
   overflow="visible"
   enable-background="new 0 0 1368 936"
   xml:space="preserve"
   style="overflow:visible"><metadata
     id="metadata57"><rdf:RDF><cc:Work
         rdf:about=""><dc:format>image/svg+xml</dc:format><dc:type
           rdf:resource="http://purl.org/dc/dcmitype/StillImage" /><dc:title></dc:title></cc:Work></rdf:RDF></metadata><defs
     id="defs55" /><sodipodi:namedview
     fill="#d3d3d3"
     inkscape:window-x="-4"
     inkscape:window-y="-4"
     showguides="true"
     inkscape:current-layer="svg2"
     inkscape:guide-bbox="true"
     showgrid="false"
     inkscape:window-height="1005"
     inkscape:window-width="1280"
     inkscape:pageshadow="2"
     inkscape:pageopacity="0.0"
     id="base"
     pagecolor="#ffffff"
     borderopacity="1.0"
     bordercolor="#666666"
     inkscape:cx="746.75183"
     inkscape:zoom="0.35355339"
     inkscape:cy="572.20212"
     inkscape:window-maximized="1" /><path
     id="HI"
     d="m 521.087,690.31 1.939,-3.557 2.263,-0.323 0.324,0.809 -2.102,3.071 h -2.424 z m 10.184,-3.719 6.143,2.587 2.103,-0.323 1.617,-3.88 -0.647,-3.396 -4.203,-0.484 -4.042,1.777 z m 30.716,10.022 3.718,5.496 2.426,-0.323 1.132,-0.483 1.455,1.293 3.718,-0.162 0.97,-1.454 -2.91,-1.778 -1.939,-3.719 -2.103,-3.558 -5.82,2.91 z m 20.207,8.893 1.293,-1.94 4.688,0.97 0.646,-0.483 6.144,0.646 -0.323,1.293 -2.587,1.455 -4.365,-0.323 z m 5.335,5.173 1.94,3.88 3.071,-1.132 0.323,-1.616 -1.617,-2.103 -3.718,-0.322 v 1.293 z m 6.951,-1.132 2.264,-2.909 4.688,2.425 4.365,1.131 4.364,2.749 v 1.939 l -3.557,1.777 -4.85,0.97 -2.426,-1.454 z m 16.653,15.518 1.616,-1.293 3.396,1.616 7.598,3.557 3.396,2.103 1.616,2.425 1.94,4.364 4.042,2.588 -0.323,1.293 -3.88,3.232 -4.203,1.455 -1.455,-0.646 -3.071,1.777 -2.425,3.233 -2.263,2.909 -1.778,-0.162 -3.557,-2.586 -0.323,-4.525 0.646,-2.426 -1.615,-5.657 -2.103,-1.778 -0.162,-2.587 2.265,-0.97 2.102,-3.072 0.485,-0.971 -1.617,-1.777 z"
     inkscape:connector-curvature="0"
     style="fill:#d3d3d3" /><path
     id="AK"
     d="m 446.076,615.675 -0.322,85.356 1.616,0.971 3.071,0.161 1.455,-1.132 h 2.586 l 0.162,2.91 6.952,6.789 0.484,2.587 3.396,-1.939 0.646,-0.162 0.324,-3.07 1.455,-1.617 1.132,-0.161 1.94,-1.455 3.07,2.103 0.647,2.909 1.939,1.131 1.132,2.427 3.88,1.776 3.395,5.982 2.748,3.88 2.263,2.748 1.455,3.718 5.012,1.778 5.174,2.102 0.97,4.365 0.484,3.071 -0.97,3.395 -1.777,2.264 -1.617,-0.809 -1.455,-3.071 -2.748,-1.455 -1.778,-1.132 -0.809,0.809 1.455,2.748 0.161,3.72 -1.131,0.483 -1.939,-1.938 -2.103,-1.294 0.485,1.616 1.293,1.778 -0.808,0.809 c 0,0 -0.809,-0.324 -1.294,-0.971 -0.484,-0.646 -2.102,-3.396 -2.102,-3.396 l -0.97,-2.264 c 0,0 -0.323,1.294 -0.971,0.971 -0.646,-0.324 -1.293,-1.455 -1.293,-1.455 l 1.778,-1.939 -1.455,-1.455 v -5.011 h -0.808 l -0.81,3.395 -1.132,0.485 -0.97,-3.72 -0.646,-3.718 -0.809,-0.485 0.323,5.658 v 1.132 l -1.455,-1.293 -3.558,-5.981 -2.102,-0.484 -0.647,-3.719 -1.616,-2.909 -1.616,-1.132 v -2.265 l 2.102,-1.293 -0.485,-0.323 -2.587,0.646 -3.395,-2.425 -2.587,-2.91 -4.851,-2.586 -4.042,-2.588 1.293,-3.232 v -1.616 l -1.777,1.616 -2.91,1.132 -3.718,-1.132 -5.658,-2.426 h -5.497 l -0.646,0.485 -6.466,-3.88 -2.102,-0.323 -2.749,-5.82 -3.557,0.323 -3.557,1.455 0.484,4.526 1.133,-2.91 0.97,0.322 -1.455,4.365 3.232,-2.748 0.646,1.616 -3.88,4.365 -1.293,-0.323 -0.485,-1.94 -1.293,-0.808 -1.293,1.131 -2.748,-1.778 -3.072,2.103 -1.777,2.103 -3.396,2.103 -4.688,-0.162 -0.485,-2.103 3.718,-0.646 v -1.294 l -2.263,-0.646 0.97,-2.425 2.263,-3.88 v -1.778 l 0.162,-0.808 4.365,-2.265 0.97,1.293 h 2.749 l -1.293,-2.586 -3.718,-0.323 -5.012,2.748 -2.426,3.396 -1.777,2.587 -1.131,2.263 -4.203,1.455 -3.072,2.587 -0.323,1.616 2.263,0.971 0.809,2.102 -2.748,3.232 -6.466,4.203 -7.761,4.204 -2.102,1.131 -5.335,1.132 -5.335,2.264 1.777,1.293 -1.455,1.455 -0.484,1.132 -2.748,-0.971 -3.233,0.162 -0.808,2.264 h -0.97 l 0.322,-2.426 -3.556,1.294 -2.91,0.97 -3.395,-1.293 -2.91,1.938 h -3.233 l -2.102,1.293 -1.617,0.81 -2.103,-0.323 -2.586,-1.132 -2.263,0.646 -0.97,0.972 -1.616,-1.133 v -1.939 l 3.071,-1.293 6.305,0.646 4.365,-1.616 2.102,-2.102 2.91,-0.646 1.778,-0.809 2.748,0.162 1.616,1.293 0.971,-0.323 2.263,-2.748 3.071,-0.971 3.395,-0.646 1.293,-0.323 0.646,0.485 h 0.809 l 1.293,-3.719 4.042,-1.455 1.939,-3.719 2.264,-4.525 1.617,-1.455 0.322,-2.587 -1.616,1.294 -3.395,0.646 -0.646,-2.425 -1.293,-0.323 -0.97,0.97 -0.162,2.91 -1.455,-0.162 -1.455,-5.818 -1.293,1.293 -1.131,-0.485 -0.324,-1.939 -4.042,0.161 -2.102,1.132 -2.586,-0.323 1.455,-1.454 0.484,-2.588 -0.646,-1.938 1.455,-0.97 1.293,-0.162 -0.646,-1.778 v -4.37 l -0.97,-0.971 -0.809,1.454 h -6.143 l -1.455,-1.293 -0.646,-3.88 -2.103,-3.557 v -0.97 l 2.103,-0.81 0.161,-2.102 1.132,-1.133 -0.809,-0.483 -1.293,0.483 -1.131,-2.748 0.97,-5.012 4.526,-3.233 2.587,-1.615 1.939,-3.719 2.748,-1.294 2.586,1.132 0.324,2.426 2.425,-0.323 3.233,-2.425 1.617,0.646 0.97,0.646 h 1.617 l 2.263,-1.293 0.808,-4.365 c 0,0 0.323,-2.909 0.971,-3.396 0.646,-0.484 0.97,-0.97 0.97,-0.97 l -1.131,-1.94 -2.587,0.81 -3.233,0.809 -1.94,-0.485 -3.548,-1.777 -5.012,-0.161 -3.557,-3.719 0.485,-3.881 0.646,-2.425 -2.102,-1.778 -1.94,-3.718 0.485,-0.809 6.79,-0.485 h 2.102 l 0.971,0.971 h 0.646 l -0.162,-1.616 3.88,-0.646 2.587,0.323 1.455,1.132 -1.455,2.102 -0.484,1.455 2.749,1.616 5.011,1.778 1.778,-0.971 -2.264,-4.365 -0.97,-3.232 0.97,-0.809 -3.395,-1.939 -0.485,-1.132 0.485,-1.616 -0.809,-3.88 -2.91,-4.688 -2.425,-4.203 2.91,-1.938 h 3.233 l 1.777,0.646 4.204,-0.162 3.718,-3.556 1.133,-3.072 3.718,-2.425 1.617,0.97 2.747,-0.646 3.719,-2.103 1.132,-0.161 0.97,0.809 4.526,-0.161 2.749,-3.071 h 1.131 l 3.557,2.425 1.94,2.103 -0.485,1.131 0.646,1.132 1.616,-1.616 3.88,0.323 0.323,3.718 1.94,1.455 7.112,0.646 6.306,4.204 1.455,-0.971 5.173,2.587 2.102,-0.646 1.94,-0.809 4.85,1.939 z m -115.102,28.936 2.102,5.335 -0.162,0.97 -2.909,-0.322 -1.778,-4.041 -1.778,-1.455 h -2.425 l -0.162,-2.587 1.778,-2.426 1.131,2.426 1.455,1.454 z m -2.587,33.464 3.718,0.81 3.718,0.97 0.809,0.97 -1.616,3.719 -3.072,-0.161 -3.395,-3.558 z m -20.693,-14.063 1.131,2.587 1.132,1.616 -1.132,0.809 -2.102,-3.072 v -1.938 l 0.971,-0.002 z m -13.74,73.07 3.395,-2.264 3.395,-0.97 2.587,0.323 0.485,1.615 1.94,0.485 1.939,-1.94 -0.323,-1.615 2.748,-0.646 2.91,2.587 -1.131,1.777 -4.365,1.132 -2.749,-0.484 -3.718,-1.132 -4.365,1.455 -1.617,0.323 z m 48.983,-4.526 1.617,1.939 2.102,-1.616 -1.455,-1.294 z m 2.91,3.072 1.132,-2.265 2.102,0.323 -0.809,1.939 h -2.425 v 0.003 z m 23.601,-1.94 1.455,1.778 0.97,-1.133 -0.808,-1.938 z m 8.731,-12.449 1.131,5.819 2.91,0.809 5.011,-2.91 4.365,-2.587 -1.616,-2.425 0.485,-2.425 -2.103,1.293 -2.91,-0.809 1.617,-1.132 1.94,0.81 3.88,-1.778 0.484,-1.455 -2.425,-0.81 0.809,-1.938 -2.749,1.938 -4.688,3.558 -4.85,2.91 z m 42.354,-19.885 2.426,-1.455 -0.971,-1.778 -1.777,0.971 z"
     inkscape:connector-curvature="0"
     style="fill:#d3d3d3" /><path
     id="FL"
     sodipodi:nodetypes="cccccccccccccccccccccccccccccccccccccccccccccccccccccccccccccccccccccccccccccccccccccccccccccccccccccccccccccccccccccccccccccccccccccccccccccc"
     d="m 1043.396,607.507 2.266,7.317 3.729,9.742 5.335,9.377 3.718,6.305 4.85,5.496 4.042,3.718 1.616,2.91 -1.131,1.293 -0.81,1.294 2.91,7.438 2.909,2.908 2.587,5.335 3.557,5.82 4.526,8.244 1.293,7.599 0.484,11.963 0.646,1.778 -0.323,3.395 -2.425,1.293 0.322,1.94 -0.646,1.938 0.322,2.426 0.485,1.939 -2.749,3.233 -3.071,1.454 -3.88,0.161 -1.455,1.616 -2.425,0.971 -1.293,-0.484 -1.132,-0.971 -0.323,-2.909 -0.81,-3.396 -3.395,-5.174 -3.558,-2.263 -3.88,-0.323 -0.809,1.293 -3.071,-4.365 -0.646,-3.556 -2.587,-4.043 -1.778,-1.132 -1.615,2.103 -1.778,-0.323 -2.103,-5.012 -2.91,-3.88 -2.908,-5.335 -2.588,-3.071 -3.557,-3.719 2.102,-2.425 3.233,-5.496 -0.162,-1.617 -4.526,-0.97 -1.616,0.646 0.323,0.646 2.587,0.97 -1.455,4.527 -0.809,0.484 -1.778,-4.041 -1.293,-4.852 -0.323,-2.748 1.455,-4.688 v -9.538 l -3.072,-3.72 -1.293,-3.07 -5.173,-1.294 -1.94,-0.646 -1.616,-2.587 -3.396,-1.616 -1.131,-3.396 -2.749,-0.97 -2.426,-3.719 -4.202,-1.454 -2.91,-1.455 h -2.586 l -4.043,0.808 -0.16,1.94 0.809,0.97 -0.485,1.132 -3.07,-0.162 -3.72,3.558 -3.557,1.939 h -3.88 l -3.233,1.293 -0.322,-2.748 -1.616,-1.939 -2.91,-1.132 -1.616,-1.455 -8.083,-3.88 -7.599,-1.777 -4.364,0.646 -5.981,0.485 -5.98,2.102 -3.479,0.612 -0.237,-8.05 -2.587,-1.939 -1.778,-1.778 0.323,-3.07 10.186,-1.295 25.543,-2.908 6.789,-0.646 5.437,0.28 2.586,3.88 1.455,1.454 8.099,0.516 10.819,-0.646 21.513,-1.294 5.445,-0.674 4.577,0.027 0.161,2.91 3.824,0.809 0.323,-4.807 -1.617,-4.527 0.955,-0.732 5.113,0.455 z m 12.545,132.404 2.425,-0.646 1.294,-0.243 1.455,-2.344 2.344,-1.616 1.293,0.483 1.698,0.323 0.403,1.051 -3.477,1.213 -4.203,1.455 -2.344,1.212 z m 13.499,-5.012 1.213,1.051 2.748,-2.102 5.335,-4.203 3.718,-3.88 2.506,-6.628 0.97,-1.697 0.162,-3.396 -0.728,0.485 -0.972,2.829 -1.454,4.606 -3.232,5.254 -4.365,4.203 -3.396,1.939 z"
     inkscape:connector-curvature="0"
     style="fill:#d3d3d3" /><path
     id="SC"
     d="m 1049.229,574.938 -1.776,0.97 -2.587,-1.293 -0.646,-2.102 -1.293,-3.558 -2.265,-2.102 -2.586,-0.646 -1.617,-4.851 -2.748,-5.981 -4.203,-1.938 -2.102,-1.94 -1.293,-2.586 -2.104,-1.94 -2.263,-1.293 -2.265,-2.909 -3.07,-2.264 -4.526,-1.777 -0.485,-1.455 -2.425,-2.91 -0.483,-1.455 -3.396,-5.173 -3.396,0.161 -4.042,-2.426 -1.293,-1.293 -0.322,-1.778 0.809,-1.938 2.263,-0.971 -0.323,-2.103 6.145,-2.586 9.053,-4.526 7.274,-0.809 16.488,-0.485 2.265,1.94 1.615,3.232 4.365,-0.484 12.609,-1.455 2.909,0.809 12.609,7.598 10.107,8.122 -5.422,5.458 -2.586,6.145 -0.485,6.305 -1.616,0.808 -1.132,2.749 -2.425,0.646 -2.103,3.557 -2.748,2.748 -2.264,3.395 -1.616,0.81 -3.557,3.395 -2.91,0.162 0.97,3.233 -5.012,5.496 z"
     inkscape:connector-curvature="0"
     style="fill:#d3d3d3" /><path
     id="GA"
     sodipodi:nodetypes="ccccccccccccccccccccccccccccccccccccccccccccccccccccccccccccccccccccccccccccc"
     d="m 977.615,519.973 -4.85,0.809 -8.406,1.132 -8.568,0.89 v 2.183 l 0.162,2.102 0.646,3.396 3.395,7.922 2.425,9.861 1.455,6.143 1.617,4.85 1.455,6.952 2.102,6.306 2.586,3.395 0.485,3.396 1.939,0.809 0.161,2.102 -1.777,4.851 -0.485,3.232 -0.161,1.94 1.616,4.363 0.323,5.335 -0.809,2.426 0.646,0.809 1.455,0.809 0.646,3.396 2.586,3.88 1.455,1.455 7.922,0.161 10.819,-0.646 21.513,-1.293 5.445,-0.675 4.576,0.027 0.162,2.909 2.587,0.809 0.323,-4.363 -1.617,-4.527 1.132,-1.616 5.819,0.81 4.978,0.316 -0.774,-6.299 2.264,-10.022 1.455,-4.202 -0.485,-2.588 3.335,-6.243 -0.511,-1.353 -1.913,0.704 -2.587,-1.293 -0.646,-2.103 -1.293,-3.557 -2.265,-2.103 -2.587,-0.646 -1.616,-4.851 -2.925,-6.335 -4.203,-1.939 -2.102,-1.939 -1.294,-2.587 -2.103,-1.939 -2.263,-1.293 -2.265,-2.91 -3.07,-2.264 -4.526,-1.777 -0.485,-1.455 -2.425,-2.91 -0.485,-1.455 -3.395,-4.907 -3.396,0.161 -4.13,-3.044 -1.294,-1.293 -0.323,-1.778 0.81,-1.938 2.352,-1.235 -1.128,-1.236 0.078,-0.291 -5.82,0.971 -6.951,0.808 z"
     inkscape:connector-curvature="0"
     style="fill:#d3d3d3" /><path
     id="AL"
     sodipodi:nodetypes="cccccccccccccccccccccccccccccccccccccccccccccccccc"
     d="m 913.598,628.771 -1.615,-15.196 -2.748,-18.753 0.161,-14.063 0.809,-31.038 -0.162,-16.651 0.165,-6.419 7.757,-0.371 27.807,-2.586 8.922,-0.663 -0.147,2.183 0.162,2.103 0.646,3.396 3.395,7.921 2.425,9.861 1.455,6.144 1.617,4.851 1.454,6.951 2.103,6.305 2.586,3.396 0.485,3.396 1.938,0.809 0.162,2.103 -1.777,4.85 -0.485,3.233 -0.161,1.938 1.616,4.365 0.322,5.335 -0.809,2.425 0.647,0.808 1.453,0.81 1.035,2.535 h -6.305 l -6.789,0.646 -25.543,2.91 -10.411,1.407 -0.097,3.752 1.777,1.777 2.587,1.939 0.581,7.936 -5.542,2.573 -2.749,-0.323 2.749,-1.939 v -0.971 l -3.072,-5.98 -2.263,-0.646 -1.455,4.365 -1.294,2.748 -0.646,-0.162 h -2.746 v -0.01 z"
     inkscape:connector-curvature="0"
     style="fill:#d3d3d3" /><path
     id="NC"
     sodipodi:nodetypes="ccccccccccccccccccccccccccccccccccccccccccccccccccccccccccccccscccccccccccccccccccccccccccccccc"
     d="m 1120.105,460.472 1.71,4.699 3.557,6.466 2.425,2.425 0.646,2.264 -2.425,0.161 0.809,0.646 -0.323,4.202 -2.587,1.294 -0.646,2.103 -1.293,2.91 -3.719,1.615 -2.425,-0.322 -1.455,-0.162 -1.616,-1.293 0.323,1.293 v 0.971 h 1.938 l 0.809,1.293 -1.938,6.305 h 4.203 l 0.646,1.616 2.263,-2.263 1.294,-0.485 -1.939,3.558 -3.071,4.85 h -1.293 l -1.132,-0.484 -2.748,0.646 -5.175,2.425 -6.466,5.335 -3.396,4.688 -1.938,6.467 -0.485,2.425 -4.688,0.485 -5.452,1.337 -9.946,-8.203 -12.61,-7.599 -2.909,-0.809 -12.608,1.455 -4.277,0.75 -1.616,-3.233 -2.971,-2.116 -16.489,0.484 -7.274,0.809 -9.053,4.526 -6.145,2.587 -1.62,0.322 -5.82,0.97 -6.951,0.809 -6.79,0.485 0.5,-4.055 1.778,-1.455 2.749,-0.646 0.646,-3.719 4.203,-2.748 3.88,-1.455 4.203,-3.557 4.363,-2.103 0.646,-3.071 3.881,-3.88 0.646,-0.161 c 0,0 0,1.132 0.808,1.132 0.809,0 1.939,0.322 1.939,0.322 l 2.264,-3.556 2.102,-0.647 2.264,0.324 1.616,-3.557 2.91,-2.587 0.485,-2.103 v -3.961 l 4.525,0.729 7.136,-1.294 15.82,-1.939 17.136,-2.586 19.922,-4.001 19.733,-4.165 11.364,-2.796 z m 3.897,32.988 2.587,-2.507 3.151,-2.587 1.535,-0.646 0.162,-2.021 -0.646,-6.144 -1.455,-2.345 -0.646,-1.858 0.728,-0.242 2.748,5.496 0.403,4.446 -0.162,3.395 -3.395,1.536 -2.829,2.425 -1.132,1.212 z"
     inkscape:connector-curvature="0"
     style="fill:#d3d3d3" /><path
     id="TN"
     sodipodi:nodetypes="ccccccccccccccccccccccccccccccccccccccsccccccccccccc"
     d="m 985.053,482.629 -51.894,5.012 -15.76,1.778 -4.621,0.513 -3.869,-0.027 v 3.879 l -8.405,0.485 -6.951,0.646 -11.097,0.054 -0.265,5.836 -2.139,6.274 -0.995,3.018 -1.35,4.381 -0.323,2.586 -4.041,2.264 1.455,3.558 -0.971,4.363 -0.968,0.79 7.256,-0.194 24.087,-1.938 5.335,-0.162 8.083,-0.485 27.806,-2.586 10.171,-0.809 8.42,-0.971 8.406,-1.132 4.851,-0.809 -0.131,-4.509 1.778,-1.455 2.748,-0.646 0.646,-3.719 4.203,-2.748 3.88,-1.455 4.203,-3.558 4.365,-2.102 0.874,-3.525 4.333,-3.88 0.646,-0.161 c 0,0 0,1.131 0.809,1.131 0.81,0 1.94,0.324 1.94,0.324 l 2.263,-3.557 2.103,-0.647 2.264,0.324 1.616,-3.557 2.114,-2.246 0.6,-0.967 0.177,-3.934 -1.483,-0.288 -2.425,1.939 -7.922,0.162 -11.995,1.899 z"
     inkscape:connector-curvature="0"
     style="fill:#d3d3d3" /><path
     id="RI"
     d="m 1162.069,341.823 -0.482,-4.204 -0.809,-4.365 -1.698,-5.9 5.739,-1.536 1.616,1.131 3.396,4.365 2.908,4.446 -2.91,1.536 -1.294,-0.162 -1.132,1.778 -2.426,1.94 z"
     inkscape:connector-curvature="0"
     style="fill:#d3d3d3" /><path
     id="CT"
     sodipodi:nodetypes="cccccccccccccccccc"
     d="m 1161.192,342.05 -0.628,-4.205 -0.808,-4.365 -1.617,-5.981 -4.151,0.904 -21.824,4.769 0.646,3.314 1.455,7.275 v 8.083 l -1.133,2.263 1.832,2.109 4.956,-3.401 3.556,-3.233 1.94,-2.102 0.809,0.646 2.748,-1.455 5.173,-1.132 z"
     inkscape:connector-curvature="0"
     style="fill:#d3d3d3" /><path
     id="MA"
     sodipodi:nodetypes="ccccccccccccccccccccccccccccccccccccccccccccccccccccccccccccccc"
     d="m 1187.977,335.851 2.172,-0.686 0.458,-1.714 1.028,0.114 1.028,2.286 -1.258,0.458 -3.887,0.114 z m -9.373,0.8 2.286,-2.629 h 1.601 l 1.829,1.486 -2.401,1.029 -2.172,1.029 z m -34.799,-21.988 17.459,-4.203 2.264,-0.646 2.102,-3.233 3.736,-1.663 2.89,4.413 -2.425,5.173 -0.324,1.455 1.94,2.586 1.132,-0.808 h 1.777 l 2.264,2.586 3.88,5.981 3.557,0.485 2.264,-0.97 1.778,-1.778 -0.81,-2.749 -2.102,-1.617 -1.455,0.809 -0.971,-1.293 0.484,-0.485 2.103,-0.162 1.777,0.808 1.939,2.425 0.971,2.91 0.322,2.425 -4.202,1.455 -3.881,1.94 -3.88,4.526 -1.938,1.455 v -0.97 l 2.425,-1.455 0.483,-1.778 -0.808,-3.072 -2.91,1.455 -0.81,1.455 0.485,2.263 -2.066,1 -2.747,-4.527 -3.395,-4.365 -2.071,-1.812 -6.533,1.876 -5.092,1.051 -21.824,4.769 -0.402,-4.944 0.646,-10.589 5.173,-0.889 6.795,-1.293"
     inkscape:connector-curvature="0"
     style="fill:#d3d3d3" /><path
     id="ME"
     sodipodi:nodetypes="ccccccccsccccccccccccccccccccccccccccccccccccccccccccccccccccccccccccccccccccccccccccccccsccccc"
     d="m 1211.215,239.331 1.938,2.102 2.264,3.718 v 1.94 l -2.102,4.688 -1.94,0.647 -3.395,3.071 -4.851,5.497 c 0,0 -0.646,0 -1.294,0 -0.646,0 -0.97,-2.102 -0.97,-2.102 l -1.778,0.162 -0.97,1.455 -2.426,1.455 -0.97,1.455 1.616,1.455 -0.484,0.646 -0.485,2.749 -1.939,-0.162 v -1.617 l -0.323,-1.293 -1.454,0.323 -1.778,-3.233 -2.103,1.293 1.294,1.455 0.322,1.132 -0.809,1.293 0.323,3.072 0.162,1.617 -1.616,2.586 -2.91,0.485 -0.323,2.91 -5.335,3.071 -1.293,0.485 -1.617,-1.455 -3.071,3.556 0.97,3.233 -1.455,1.293 -0.161,4.365 -1.124,6.259 -2.462,-1.156 -0.484,-3.072 -3.88,-1.131 -0.323,-2.749 -7.274,-23.441 -4.198,-13.64 1.42,-0.118 1.514,0.41 v -2.587 l 0.81,-5.496 2.587,-4.688 1.455,-4.042 -1.94,-2.425 v -5.981 l 0.809,-0.97 0.81,-2.749 -0.162,-1.455 -0.162,-4.85 1.778,-4.85 2.909,-8.892 2.102,-4.203 h 1.294 l 1.293,0.162 v 1.132 l 1.293,2.263 2.748,0.646 0.81,-0.808 v -0.97 l 4.042,-2.91 1.777,-1.778 1.454,0.162 5.981,2.425 1.939,0.97 9.053,29.907 h 5.981 l 0.809,1.94 0.161,4.85 2.91,2.263 h 0.809 l 0.161,-0.485 -0.484,-1.132 z m -20.933,30.148 1.535,-1.536 1.375,1.051 0.565,2.425 -1.697,0.889 z m 6.709,-5.901 1.778,1.859 c 0,0 1.293,0.081 1.293,-0.242 0,-0.323 0.242,-2.021 0.242,-2.021 l 0.89,-0.808 -0.81,-1.778 -2.021,0.728 z"
     inkscape:connector-curvature="0"
     style="fill:#d3d3d3" /><path
     id="NH"
     sodipodi:nodetypes="ccccccccccccccccccccccccccccccccc"
     d="m 1168.799,304.425 0.868,-1.077 1.091,-3.291 -2.544,-0.914 -0.483,-3.071 -3.88,-1.132 -0.323,-2.748 -7.275,-23.441 -4.602,-14.543 -0.896,-0.005 -0.646,1.617 -0.646,-0.485 -0.972,-0.97 -1.455,1.94 -0.048,5.032 0.312,5.667 1.938,2.748 v 4.042 l -3.718,5.063 -2.587,1.131 v 1.132 l 1.132,1.778 v 8.568 l -0.81,9.215 -0.161,4.85 0.971,1.293 -0.161,4.526 -0.485,1.778 1.455,0.886 16.39,-4.69 2.264,-0.646 1.534,-2.552 z"
     inkscape:connector-curvature="0"
     style="fill:#d3d3d3" /><path
     id="VT"
     sodipodi:nodetypes="ccccccccccccccccccccccccccccc"
     d="m 1132.344,315.727 -0.81,-5.658 -2.391,-9.972 -0.646,-0.323 -2.91,-1.293 0.81,-2.91 -0.81,-2.102 -2.7,-4.64 0.971,-3.88 -0.809,-5.173 -2.425,-6.466 -0.807,-4.922 26.247,-6.748 0.324,5.819 1.94,2.749 v 4.042 l -3.72,4.042 -2.586,1.131 v 1.132 l 1.132,1.778 v 8.568 l -0.809,9.215 -0.162,4.85 0.971,1.293 -0.162,4.526 -0.485,1.778 0.661,1.567 -6.951,1.374 z"
     inkscape:connector-curvature="0"
     style="fill:#d3d3d3" /><path
     id="NY"
     sodipodi:nodetypes="cccccccccccccccccccccccccccccccccccccccccccccccccccccccccccccccccccccccccccccccccccccccccccccccccccccccc"
     d="m 1116.613,351.422 -1.132,-0.97 -2.586,-0.161 -2.265,-1.94 -1.631,-6.129 -3.458,0.091 -2.444,-2.708 -19.385,4.382 -43.002,8.73 -7.529,1.228 -0.737,-6.468 1.428,-1.125 1.293,-1.132 0.971,-1.617 1.778,-1.131 1.938,-1.778 0.485,-1.617 2.102,-2.748 1.132,-0.97 -0.162,-0.97 -1.293,-3.072 -1.778,-0.162 -1.939,-6.143 2.91,-1.778 4.364,-1.455 4.041,-1.293 3.233,-0.485 6.305,-0.161 1.938,1.293 1.617,0.162 2.103,-1.293 2.586,-1.131 5.174,-0.485 2.102,-1.778 1.778,-3.233 1.615,-1.94 h 2.103 l 1.939,-1.131 0.161,-2.263 -1.455,-2.102 -0.323,-1.455 1.132,-2.102 v -1.455 h -1.777 l -1.778,-0.808 -0.81,-1.132 -0.161,-2.586 5.819,-5.497 0.647,-0.808 1.453,-2.91 2.91,-4.526 2.748,-3.718 2.102,-2.425 2.416,-1.826 3.081,-1.246 5.496,-1.293 3.233,0.162 4.525,-1.455 7.565,-2.071 0.52,4.98 2.425,6.466 0.809,5.173 -0.97,3.88 2.586,4.527 0.809,2.102 -0.809,2.91 2.91,1.293 0.646,0.323 3.072,10.993 -0.537,5.06 -0.484,10.831 0.809,5.497 0.809,3.557 1.455,7.274 v 8.083 l -1.132,2.264 1.84,1.993 0.796,1.678 -1.939,1.778 0.323,1.293 1.293,-0.323 1.455,-1.293 2.264,-2.586 1.131,-0.647 1.617,0.647 2.263,0.162 7.922,-3.88 2.91,-2.748 1.293,-1.455 4.203,1.617 -3.396,3.556 -3.88,2.91 -7.113,5.335 -2.587,0.97 -5.819,1.94 -4.042,1.131 -1.175,-0.533 -0.244,-3.688 0.485,-2.748 -0.161,-2.102 -2.814,-1.699 -4.525,-0.97 -3.88,-1.131 z"
     inkscape:connector-curvature="0"
     style="fill:#d3d3d3" /><path
     id="NJ"
     d="m 1116.159,352.33 -2.102,2.425 v 3.072 l -1.939,3.072 -0.162,1.616 1.293,1.293 -0.161,2.425 -2.264,1.132 0.809,2.748 0.162,1.132 2.748,0.323 0.97,2.586 3.558,2.425 2.425,1.617 v 0.809 l -3.233,3.071 -1.616,2.263 -1.455,2.749 -2.264,1.293 -1.212,0.728 -0.242,1.212 -0.609,2.607 1.092,2.244 3.233,2.91 4.85,2.265 4.042,0.646 0.161,1.455 -0.809,0.97 0.323,2.748 h 0.809 l 2.102,-2.425 0.809,-4.851 2.748,-4.042 3.072,-6.466 1.131,-5.497 -0.646,-1.132 -0.162,-9.376 -1.616,-3.395 -1.132,0.808 -2.748,0.324 -0.483,-0.485 1.131,-0.97 2.102,-1.94 0.063,-1.094 -0.386,-3.434 0.485,-2.748 -0.162,-2.102 -2.586,-1.132 -4.526,-0.97 -3.88,-1.132 z"
     inkscape:connector-curvature="0"
     style="fill:#d3d3d3" /><path
     id="PA"
     sodipodi:nodetypes="cccccccccccccccccccccccccccccccccccccccccccc"
     d="m 1110.206,388.46 1.133,-0.647 2.263,-0.612 1.455,-2.748 1.616,-2.263 3.232,-3.072 v -0.808 l -2.425,-1.617 -3.558,-2.425 -0.97,-2.586 -2.748,-0.323 -0.162,-1.131 -0.809,-2.749 2.264,-1.131 0.162,-2.425 -1.295,-1.293 0.162,-1.617 1.939,-3.072 v -3.071 l 2.345,-2.425 0.214,-1.083 -2.586,-0.162 -2.264,-1.94 -2.426,-5.335 -3.005,-0.931 -2.33,-2.141 -18.591,4.041 -43.002,8.73 -8.892,1.455 -0.496,-7.084 -5.486,5.63 -1.294,0.485 -4.202,3.009 2.91,19.137 2.481,9.729 3.572,19.262 3.269,-0.638 11.943,-1.504 37.928,-7.665 14.876,-2.823 8.3,-1.622 0.268,-0.239 2.103,-1.617 z"
     inkscape:connector-curvature="0"
     style="fill:#d3d3d3" /><path
     id="DE"
     sodipodi:nodetypes="cccccccccccccccccccc"
     d="m 1110.353,392.423 0.589,-2.103 0.021,-1.205 -1.27,-0.088 -2.103,1.616 -1.454,1.455 1.453,4.203 2.265,5.657 2.102,9.7 1.617,6.305 5.011,-0.161 6.143,-1.213 -2.265,-7.354 -0.97,0.485 -3.558,-2.426 -1.777,-4.688 -1.939,-3.558 -2.264,-0.97 -2.103,-3.556 z"
     inkscape:connector-curvature="0"
     style="fill:#d3d3d3" /><path
     id="MD"
     sodipodi:nodetypes="ccccccccccccccccccccccccccccccccccccccccccccccccccsccccccccccccccccccccccccccccsccc"
     d="m 1124.952,417.305 -6.141,1.292 -5.808,0.162 -1.843,-7.1 -2.102,-9.7 -2.265,-5.657 -1.288,-4.398 -7.506,1.623 -14.877,2.823 -37.451,7.551 1.132,5.012 0.97,5.658 0.323,-0.323 2.103,-2.425 2.263,-2.618 2.426,-0.616 1.455,-1.455 1.776,-2.587 1.294,0.646 2.909,-0.323 2.587,-2.102 2.007,-1.453 1.847,-0.485 1.645,1.13 2.909,1.455 1.939,1.778 1.212,1.536 4.123,1.696 v 2.91 l 5.496,1.293 1.145,0.542 1.412,-2.028 2.882,1.971 -1.277,2.481 -0.767,3.986 -1.778,2.586 v 2.102 l 0.646,1.778 5.063,1.355 4.312,-0.062 3.07,0.97 2.103,0.323 0.97,-2.102 -1.455,-2.103 v -1.778 l -2.425,-2.102 -2.103,-5.497 1.293,-5.335 -0.161,-2.102 -1.293,-1.294 c 0,0 1.454,-1.616 1.454,-2.264 0,-0.646 0.485,-2.102 0.485,-2.102 l 1.939,-1.293 1.939,-1.617 0.484,0.97 -1.455,1.616 -1.294,3.718 0.324,1.132 1.777,0.323 0.484,5.497 -2.102,0.97 0.322,3.557 0.485,-0.161 1.132,-1.94 1.616,1.778 -1.616,1.293 -0.324,3.395 2.587,3.396 3.88,0.484 1.617,-0.808 3.236,4.183 1.357,0.537 6.653,-2.797 2.008,-4.023 z m -16.632,8.984 1.131,2.507 0.162,1.777 1.132,1.859 c 0,0 0.89,-0.89 0.89,-1.212 0,-0.323 -0.729,-3.072 -0.729,-3.072 l -0.728,-2.344 z"
     inkscape:connector-curvature="0"
     style="fill:#d3d3d3" /><path
     id="WV"
     sodipodi:nodetypes="cccccccccccccccccccccccccccccccccccccccccccscccccccccccccccccccccccccccccccccccccccccc"
     d="m 1044.561,403.967 1.112,4.944 1.082,6.906 3.561,-2.749 2.264,-3.071 2.538,-0.615 1.455,-1.455 1.777,-2.586 1.181,0.646 2.909,-0.323 2.586,-2.102 2.008,-1.453 1.846,-0.485 1.304,1.017 2.229,1.114 1.939,1.778 1.374,1.293 -0.144,4.671 -5.658,-3.072 -4.525,-1.777 -0.162,5.335 -0.484,2.102 -1.617,2.748 -0.646,1.617 -3.071,2.425 -0.485,2.263 -3.395,0.324 -0.323,3.071 -1.132,5.497 h -2.588 l -1.293,-0.809 -1.616,-2.749 -1.777,0.162 -0.323,4.365 -2.103,6.628 -5.012,10.831 0.809,1.293 -0.162,2.748 -2.102,1.939 -1.455,-0.322 -3.233,2.425 -2.586,-0.97 -1.778,4.688 c 0,0 -3.719,0.809 -4.365,0.97 -0.646,0.161 -2.425,-1.293 -2.425,-1.293 l -2.425,2.264 -2.587,0.646 -2.91,-0.809 -1.293,-1.293 -2.192,-3.023 -3.143,-1.988 -2.586,-2.748 -2.91,-3.718 -0.646,-2.263 -2.587,-1.455 -0.809,-1.617 -0.242,-5.254 2.183,-0.081 1.939,-0.809 0.162,-2.748 1.615,-1.454 0.162,-5.013 0.97,-3.88 1.293,-0.646 1.294,1.132 0.484,1.777 1.778,-0.97 0.484,-1.617 -1.132,-1.777 v -2.426 l 0.97,-1.293 2.265,-3.395 1.293,-1.455 2.102,0.485 2.264,-1.617 3.071,-3.396 2.264,-3.88 0.323,-5.658 0.484,-5.011 v -4.688 l -1.132,-3.071 0.971,-1.455 1.282,-1.293 3.491,19.827 4.631,-0.751 z"
     inkscape:connector-curvature="0"
     style="fill:#d3d3d3" /><path
     id="KY"
     sodipodi:nodetypes="cccccccccccccccccccccccccccccccccccccccccccccccccccccccccccccccccccccccccccccccccccccccc"
     d="m 1009.782,459.817 -2.325,2.684 -4.202,3.556 -4.3,5.903 -1.777,1.776 v 2.104 l -3.88,2.102 -5.658,3.396 -3.521,0.385 -51.868,4.897 -15.76,1.778 -4.621,0.513 -3.868,-0.026 -0.228,4.22 -8.179,0.145 -6.951,0.647 -10.432,0.205 1.912,-0.223 2.181,-1.762 2.059,-1.144 0.229,-3.2 0.914,-1.829 -1.605,-2.539 0.802,-1.907 2.264,-1.778 2.103,-0.646 2.747,1.294 3.558,1.293 1.131,-0.323 0.162,-2.264 -1.293,-2.425 0.322,-2.264 1.939,-1.455 2.587,-0.646 1.616,-0.647 -0.809,-1.777 -0.646,-1.939 1.132,-0.808 1.051,-3.314 2.991,-1.698 5.818,-0.97 3.558,-0.485 1.455,1.94 1.777,0.809 1.778,-3.232 2.91,-1.455 1.938,1.617 0.81,1.132 2.102,-0.485 -0.162,-3.395 2.91,-1.617 1.132,-0.809 1.132,1.616 h 4.688 l 0.809,-2.102 -0.323,-2.264 2.909,-3.557 4.688,-3.88 0.484,-4.526 2.748,-0.323 3.88,-1.777 2.748,-1.94 -0.323,-1.939 -1.455,-1.455 0.566,-2.183 4.122,-0.243 2.425,-0.808 2.91,1.617 1.616,4.365 5.819,0.322 1.778,1.778 2.102,0.162 2.425,-1.455 3.071,0.485 1.293,1.454 2.748,-2.586 1.779,-1.293 h 1.615 l 0.646,2.749 1.778,0.971 2.422,2.215 0.161,5.496 0.809,1.616 2.587,1.455 0.646,2.264 2.91,3.718 2.586,2.748 z"
     inkscape:connector-curvature="0"
     style="fill:#d3d3d3" /><path
     id="OH"
     sodipodi:nodetypes="cccccccccccccccccccccccccccccccccccccccccccccccccccccccccccccccc"
     d="m 1019.436,357.008 -6.094,4.053 -3.879,2.263 -3.396,3.718 -4.041,3.88 -3.233,0.808 -2.91,0.485 -5.495,2.586 -2.103,0.162 -3.395,-3.071 -5.175,0.646 -2.586,-1.455 -2.382,-1.351 -4.893,0.703 -10.186,1.617 -7.76,1.212 1.294,14.63 1.777,13.74 2.587,23.441 0.565,4.831 4.122,-0.129 2.425,-0.81 3.363,1.503 2.071,4.365 5.139,-0.017 1.892,2.119 1.762,-0.065 2.538,-1.341 2.504,0.372 1.976,1.455 1.727,-2.133 2.346,-1.293 2.07,-0.681 0.646,2.748 1.777,0.97 3.478,2.344 2.182,-0.08 1.146,-1.149 -0.064,-1.387 1.617,-1.455 0.16,-5.013 0.972,-3.88 1.52,-1.44 1.521,0.904 0.824,1.211 1.211,-0.176 -0.423,-2.411 -0.562,-0.644 v -2.425 l 0.97,-1.293 2.263,-3.396 1.294,-1.455 2.103,0.485 2.263,-1.617 3.071,-3.396 2.264,-3.88 0.21,-5.431 0.485,-5.011 v -4.688 l -1.133,-3.071 0.971,-1.455 0.921,-0.955 -1.405,-9.843 z"
     inkscape:connector-curvature="0"
     style="fill:#d3d3d3" /><path
     id="MI"
     sodipodi:nodetypes="ccccccccccccccsccccccccccccccccsccccccccccccccccccccccccccccccccccccccccccccccccccccccccccccccccccccccccccccccccccccccccccccccccccccccccccccccccccccccccccccccccccccccccccccccccccccccccccccccccccccccccccccccc"
     d="m 869.618,244.059 1.829,-2.058 2.172,-0.8 5.373,-3.887 2.286,-0.571 0.457,0.457 -5.145,5.144 -3.314,1.943 -2.058,0.915 z m 86.176,32.128 0.646,2.506 3.233,0.162 1.293,-1.212 c 0,0 -0.081,-1.455 -0.404,-1.617 -0.323,-0.162 -1.616,-1.859 -1.616,-1.859 l -2.183,0.243 -1.617,0.161 -0.322,1.132 z m 30.065,63.05 -3.232,-8.245 -2.265,-9.053 -2.425,-3.233 -2.586,-1.778 -1.617,1.132 -3.88,1.778 -1.939,5.011 -2.748,3.718 -1.132,0.646 -1.455,-0.646 c 0,0 -2.587,-1.455 -2.425,-2.102 0.161,-0.646 0.483,-5.012 0.483,-5.012 l 3.396,-1.293 0.808,-3.395 0.647,-2.586 2.425,-1.617 -0.323,-10.023 -1.617,-2.263 -1.293,-0.809 -0.809,-2.102 0.809,-0.808 1.616,0.323 0.162,-1.617 -2.424,-2.263 -1.294,-2.586 h -2.587 l -4.525,-1.455 -5.497,-3.395 h -2.748 l -0.646,0.647 -0.97,-0.485 -3.072,-2.264 -2.909,1.778 -2.909,2.263 0.322,3.557 0.971,0.323 2.102,0.485 0.485,0.809 -2.588,0.808 -2.586,0.324 -1.455,1.778 -0.322,2.102 0.322,1.616 0.323,5.497 -3.557,2.102 -0.646,-0.162 v -4.203 l 1.293,-2.425 0.646,-2.425 -0.809,-0.809 -1.939,0.809 -0.971,4.203 -2.748,1.131 -1.777,1.94 -0.162,0.97 0.646,0.809 -0.646,2.586 -2.264,0.485 v 1.132 l 0.809,2.425 -1.131,6.143 -1.617,4.042 0.646,4.688 0.485,1.131 -0.81,2.425 -0.322,0.808 -0.323,2.748 3.557,5.981 2.91,6.466 1.455,4.85 -0.81,4.688 -0.97,5.981 -2.425,5.173 -0.324,2.748 -3.259,3.085 4.409,-0.162 21.418,-2.264 7.277,-0.987 0.097,1.667 6.853,-1.213 10.298,-1.503 3.854,-0.461 0.139,-0.587 0.162,-1.455 2.102,-3.718 2,-1.738 -0.222,-5.052 1.597,-1.597 1.091,-0.343 0.222,-3.557 1.536,-3.031 1.051,0.606 0.162,0.646 0.809,0.162 1.939,-0.97 z m -130.368,-66.024 0.716,-0.581 2.749,-0.809 3.557,-2.263 v -0.97 l 0.646,-0.646 5.981,-0.97 2.425,-1.94 4.364,-2.102 0.161,-1.293 1.939,-2.91 1.778,-0.808 1.294,-1.778 2.263,-2.263 4.365,-2.425 4.688,-0.485 1.132,1.132 -0.323,0.97 -3.718,0.97 -1.455,3.071 -2.264,0.809 -0.484,2.425 -2.425,3.233 -0.324,2.586 0.809,0.485 0.971,-1.132 3.557,-2.91 1.294,1.293 h 2.263 l 3.233,0.97 1.455,1.132 1.455,3.071 2.748,2.748 3.88,-0.161 1.454,-0.97 1.616,1.293 1.617,0.485 1.293,-0.808 h 1.132 l 1.616,-0.97 4.041,-3.557 3.396,-1.131 6.628,-0.323 4.526,-1.94 2.587,-1.293 1.455,0.162 v 5.658 l 0.483,0.323 2.91,0.808 1.939,-0.485 6.144,-1.617 1.132,-1.131 1.455,0.485 v 6.951 l 3.232,3.072 1.294,0.646 1.293,0.97 -1.293,0.323 -0.81,-0.323 -3.718,-0.485 -2.103,0.647 -2.264,-0.162 -3.233,1.455 h -1.777 l -5.819,-1.293 -5.173,0.162 -1.94,2.586 -6.951,0.647 -2.425,0.808 -1.132,3.072 -1.293,1.131 -0.485,-0.162 -1.455,-1.617 -4.525,2.425 h -0.646 l -1.132,-1.617 -0.809,0.162 -1.939,4.365 -0.97,4.042 -3.183,7.001 -1.177,-1.035 -1.371,-1.031 -1.941,-10.288 -3.544,-1.37 -2.053,-2.286 -12.12,-2.744 -2.854,-1.029 -8.23,-2.173 -7.891,-1.143 z"
     inkscape:connector-curvature="0"
     style="fill:#d3d3d3" /><path
     id="WY"
     sodipodi:nodetypes="ccccccccccccccccccc"
     d="m 642.252,305.776 -10.55,-0.807 -32.088,-3.295 -16.231,-2.058 -28.35,-4.115 -19.89,-2.972 -1.419,11.176 -3.839,24.26 -5.259,30.407 -1.53,10.516 -1.67,11.889 6.523,0.928 25.88,2.5 20.569,2.307 36.783,4.115 23.821,2.86 4.504,-44.192 1.44,-25.377 z"
     inkscape:connector-curvature="0"
     style="fill:#d3d3d3" /><path
     id="MT"
     sodipodi:nodetypes="cccccccccccccccccccccccccccccccccccccccccccccccccccccccc"
     d="m 644.671,284.274 0.646,-11.151 2.259,-24.787 c 0.457,-5.029 1.083,-8.472 1.372,-15.41 l 0.94,-14.552 -30.676,-2.808 -29.26,-3.556 -29.261,-4.042 -32.332,-5.335 -18.429,-3.395 -32.725,-6.933 -4.479,21.348 3.429,7.544 -1.372,4.572 1.829,4.573 3.201,1.372 4.621,10.77 2.694,3.177 0.457,1.143 3.429,1.143 0.458,2.058 -7.087,17.604 v 2.515 l 2.516,3.201 h 0.914 l 4.801,-2.972 0.686,-1.143 1.601,0.686 -0.229,5.258 2.744,12.574 2.972,2.515 0.914,0.686 1.829,2.286 -0.457,3.429 0.686,3.43 1.144,0.914 2.287,-2.286 h 2.743 l 3.2,1.601 2.516,-0.915 h 4.114 l 3.658,1.6 2.744,-0.457 0.457,-2.972 2.972,-0.686 1.372,1.372 0.458,3.201 1.779,1.365 1.534,-11.565 20.691,2.972 28.188,3.955 16.553,1.897 31.446,3.456 10.989,1.524 1.052,-15.428 z"
     inkscape:connector-curvature="0"
     style="fill:#d3d3d3" /><path
     id="ID"
     sodipodi:nodetypes="cccccccccccccccccccccccccccccccccccccccccccccccccccccccccccccccccccccccccc"
     d="m 428.979,338.609 4.427,-17.502 4.344,-17.718 1.372,-4.229 2.516,-5.944 -1.257,-2.286 -2.516,0.114 -0.8,-1.029 0.457,-1.143 0.343,-3.086 4.458,-5.487 1.829,-0.458 1.143,-1.143 0.571,-3.201 0.915,-0.686 3.887,-5.83 3.886,-4.344 0.229,-3.772 -3.43,-2.629 -1.314,-4.401 0.4,-9.66 3.657,-16.46 4.458,-20.805 3.772,-13.489 0.762,-3.803 12.996,2.528 -4.158,21.508 2.948,7.705 -1.051,4.572 1.988,4.573 3.201,1.692 4.46,9.807 2.695,3.818 0.618,1.143 3.429,1.143 0.458,2.539 -6.927,16.802 0.32,3.317 2.676,2.879 1.877,0.481 4.801,-3.614 0.365,-0.501 0.155,0.847 0.253,4.135 2.583,12.895 3.454,2.676 0.434,0.846 2.149,2.447 -0.777,2.787 0.686,3.75 1.945,0.915 2.126,-1.645 2.583,-0.481 3.36,1.601 2.516,-0.594 3.794,-0.16 3.979,1.6 2.744,-0.297 0.938,-2.33 2.491,-1.649 0.73,1.693 0.617,2.238 2.309,2.539 -3.772,23.981 -5.144,29.009 -4.16,-0.319 -8.185,-1.532 -9.807,-1.829 -12.163,-2.378 -12.528,-2.504 -8.482,-1.84 -9.259,-1.668 -9.235,-1.783 c -22.609,-4.344 -14.146,-2.847 -21.139,-4.351 z"
     inkscape:connector-curvature="0"
     style="fill:#d3d3d3" /><path
     id="WA"
     sodipodi:nodetypes="ccccccccccccccccccccccccccccccccccccccccccccccccccccccccccccccccccccccccccccccccccccccccccscccccc"
     d="m 381.572,168.362 4.365,1.455 9.7,2.748 8.567,1.94 20.047,5.658 22.955,5.658 15.161,3.395 -1.004,3.884 -4.093,13.81 -4.458,20.805 -3.177,16.14 -0.353,9.379 -13.181,-3.894 -15.57,-3.383 -13.667,0.596 -1.581,-1.532 -5.326,1.897 -3.977,-0.25 -2.721,-1.761 -1.579,0.525 -4.205,-0.229 -1.875,-1.372 -4.777,-1.737 -1.442,-0.207 -4.985,-1.326 -1.783,1.508 -5.691,-0.343 -4.82,-3.794 0.204,-0.8 0.068,-7.934 -2.125,-3.887 -4.115,-0.732 -0.365,-2.354 -2.514,-0.627 -2.882,-0.535 -1.778,0.97 -2.264,-2.91 0.324,-2.91 2.748,-0.323 1.616,-4.042 -2.587,-1.132 0.162,-3.718 4.365,-0.646 -2.749,-2.749 -1.455,-7.113 0.646,-2.91 v -7.922 l -1.777,-3.233 2.263,-9.376 2.103,0.485 2.425,2.91 2.749,2.586 3.232,1.94 4.527,2.102 3.071,0.647 2.909,1.455 3.396,0.97 2.263,-0.162 v -2.425 l 1.293,-1.131 2.103,-1.293 0.322,1.132 0.324,1.778 -2.264,0.485 -0.323,2.102 1.778,1.455 1.132,2.425 0.646,1.94 1.455,-0.162 0.162,-1.293 -0.97,-1.293 -0.485,-3.233 0.808,-1.778 -0.646,-1.455 v -2.263 l 1.778,-3.556 -1.133,-2.587 -2.425,-4.85 0.323,-0.809 z m -9.456,5.979 2.021,-0.162 0.484,1.374 1.536,-1.617 h 2.345 l 0.809,1.536 -1.536,1.698 0.646,0.808 -0.729,2.021 -1.374,0.404 c 0,0 -0.889,0.081 -0.889,-0.242 0,-0.323 1.455,-2.586 1.455,-2.586 l -1.698,-0.566 -0.323,1.455 -0.728,0.647 -1.536,-2.263 z"
     inkscape:connector-curvature="0"
     style="fill:#d3d3d3" /><path
     id="TX"
     sodipodi:nodetypes="ccccccccccccccccccccccccccccccccccccccccccccccccccccccccccccccccccccccccccccccccccccccccccccccccccccccccccccccccccccccccccccccccccccccccccccccccccccccccccccccccccccccccccccccccccccccccc"
     d="m 645.053,495.373 22.69,1.087 31.094,1.143 -2.336,23.456 -0.297,18.153 0.068,2.081 4.344,3.818 1.736,0.822 1.81,0.253 0.688,-1.255 0.89,0.865 1.737,0.48 1.604,-0.729 1.139,0.409 -0.297,3.405 4.275,1.03 2.676,0.821 3.954,0.525 2.193,1.829 3.249,-1.576 2.787,0.365 2.034,2.787 1.074,0.32 -0.16,1.965 3.089,1.168 2.768,-1.805 1.509,0.364 2.354,0.16 0.433,1.872 4.642,1.99 2.656,-0.205 1.988,-4.115 h 0.341 l 1.144,1.897 4.437,1.007 3.337,1.211 3.293,0.754 2.15,-0.754 0.846,-2.515 h 3.702 l 1.896,0.754 3.064,-1.576 h 0.661 l 0.364,1.119 h 4.275 l 2.403,-1.256 1.668,0.297 1.416,1.872 2.88,1.669 3.521,1.075 2.743,1.418 2.447,1.622 3.293,-0.891 1.939,0.982 0.512,10.14 0.335,9.702 0.687,9.533 0.524,4.047 2.677,4.599 1.074,4.065 3.862,6.289 0.549,2.88 0.526,1.007 -0.688,7.496 -2.649,4.388 0.957,2.86 -0.364,2.515 -0.847,7.316 -1.372,2.719 0.604,4.387 -5.665,1.585 -9.861,4.526 -0.97,1.938 -2.587,1.94 -2.103,1.455 -1.293,0.809 -5.658,5.334 -2.748,2.103 -5.335,3.232 -5.658,2.425 -6.305,3.396 -1.778,1.454 -5.819,3.557 -3.396,0.646 -3.88,5.497 -4.042,0.323 -0.97,1.939 2.264,1.939 -1.455,5.496 -1.293,4.526 -1.132,3.88 -0.81,4.526 0.81,2.425 1.777,6.951 0.971,6.144 1.777,2.749 -0.97,1.453 -3.072,1.94 -5.657,-3.88 -5.497,-1.132 -1.293,0.484 -3.232,-0.646 -4.203,-3.072 -5.173,-1.131 -7.6,-3.396 -2.102,-3.88 -1.293,-6.466 -3.233,-1.94 -0.646,-2.263 0.646,-0.647 0.323,-3.395 -1.293,-0.646 -0.646,-0.97 1.293,-4.365 -1.616,-2.263 -3.232,-1.294 -3.396,-4.364 -3.557,-6.629 -4.204,-2.586 0.162,-1.94 -5.334,-12.286 -0.81,-4.202 -1.777,-1.939 -0.162,-1.455 -5.981,-5.335 -2.586,-3.071 v -1.132 l -2.586,-2.102 -6.79,-1.133 -7.437,-0.646 -3.071,-2.265 -4.526,1.778 -3.557,1.455 -2.264,3.232 -0.97,3.72 -4.365,6.143 -2.425,2.425 -2.586,-0.97 -1.778,-1.132 -1.939,-0.646 -3.881,-2.264 v -0.646 l -1.777,-1.938 -5.173,-2.103 -7.437,-7.76 -2.263,-4.688 v -8.083 l -3.233,-6.466 -0.484,-2.742 -1.616,-0.97 -1.133,-2.103 -5.011,-2.102 -1.293,-1.616 -7.113,-7.922 -1.293,-3.233 -4.688,-2.263 -1.455,-4.365 -2.586,-2.909 -1.94,-0.484 -0.649,-4.679 8.002,0.687 29.035,2.744 29.035,1.6 2.287,-23.776 3.886,-55.555 1.602,-18.748 1.371,0.029 m 98.979,233.987 -0.566,-7.112 -2.748,-7.194 -0.564,-7.032 1.535,-8.244 3.313,-6.871 3.477,-5.415 3.151,-3.557 0.646,0.242 -4.77,6.628 -4.365,6.548 -2.021,6.628 -0.323,5.173 0.889,6.144 2.587,7.193 0.485,5.174 0.161,1.454 z"
     inkscape:connector-curvature="0"
     style="fill:#d3d3d3" /><path
     id="CA"
     sodipodi:nodetypes="ccccccccccccccccccccccccccccccccccccccccccccccccccccccccccccccccccccccccccccccccccccccccccccccccccccccccccccccccccccccccccccccccccccccccccscc"
     d="m 424.74,548.754 3.815,-0.489 1.485,-2.011 0.732,-1.941 -3.176,-0.09 -1.1,-1.765 0.778,-1.715 -0.046,-6.149 2.218,-1.328 2.698,-2.583 0.411,-4.915 1.646,-3.497 1.943,-2.104 3.269,-1.714 1.279,-0.73 0.756,-1.482 -0.869,-0.894 -0.96,-1.511 -0.937,-5.348 -2.904,-5.236 0.097,-2.787 -2.201,-3.248 -14.999,-23.229 -19.433,-28.715 -22.427,-33.032 -12.702,-19.545 1.797,-7.208 6.812,-25.949 8.116,-31.436 -12.365,-3.337 -13.488,-3.43 -12.574,-4.115 -7.544,-2.058 -11.431,-2.972 -7.052,-2.412 -1.58,4.725 -0.162,7.437 -5.173,11.801 -3.07,2.587 -0.324,1.131 -1.778,0.809 -1.455,4.203 -0.809,3.233 2.749,4.203 1.617,4.203 1.131,3.557 -0.323,6.467 -1.778,3.071 -0.646,5.82 -0.97,3.718 1.778,3.88 2.748,4.526 2.264,4.85 1.293,4.042 -0.323,3.233 -0.322,0.485 v 2.102 l 5.657,6.305 -0.484,2.425 -0.646,2.264 -0.646,1.939 0.162,8.245 2.102,3.718 1.94,2.586 2.748,0.485 0.97,2.749 -1.132,3.557 -2.103,1.616 h -1.131 l -0.809,3.88 0.484,2.91 3.233,4.365 1.616,5.334 1.455,4.688 1.293,3.071 3.396,5.82 1.455,2.587 0.484,2.91 1.617,0.97 v 2.425 l -0.809,1.94 -1.778,7.112 -0.485,1.939 2.426,2.748 4.202,0.484 4.527,1.778 3.88,2.102 h 2.91 l 2.91,3.071 2.586,4.85 1.131,2.265 3.88,2.102 4.85,0.81 1.455,2.102 0.647,3.232 -1.455,0.646 0.323,0.97 3.232,0.81 2.748,0.161 2.91,4.688 3.88,4.203 0.808,2.263 2.587,4.203 0.323,3.232 v 9.377 l 0.485,1.778 10.022,1.454 19.724,2.749 z m -87.947,-49.718 1.293,1.535 -0.162,1.294 -3.233,-0.081 -0.566,-1.213 -0.646,-1.454 z m 1.939,0 1.212,-0.646 3.557,2.102 3.072,1.212 -0.889,0.646 -4.527,-0.242 -1.616,-1.616 z m 20.694,19.805 1.777,2.344 0.809,0.97 1.536,0.566 0.565,-1.455 -0.97,-1.778 -2.667,-2.021 -1.051,0.161 v 1.213 z m -1.455,8.647 1.777,3.152 1.213,1.939 -1.455,0.242 -1.293,-1.213 c 0,0 -0.729,-1.455 -0.729,-1.858 0,-0.403 0,-2.183 0,-2.183 z"
     inkscape:connector-curvature="0"
     style="fill:#d3d3d3" /><path
     id="AZ"
     sodipodi:nodetypes="ccccccccccccccccccccccccccccccccccccccccccccccccccc"
     d="m 425.746,549.5 -2.627,2.158 -0.322,1.454 0.484,0.971 18.914,10.669 12.125,7.6 14.711,8.566 16.812,10.023 12.285,2.425 25.129,2.705 2.53,-12.507 3.753,-27.243 6.965,-52.881 4.258,-30.966 -24.598,-3.68 -27.207,-4.573 -33.429,-6.317 -2.922,18.092 -0.458,0.457 -1.714,2.63 -2.516,-0.114 -1.257,-2.744 -2.744,-0.343 -0.915,-1.143 h -0.914 l -0.915,0.57 -1.942,1.028 -0.114,6.974 -0.229,1.716 -0.57,12.573 -1.486,2.172 -0.571,3.314 2.743,4.916 1.258,5.829 0.8,1.029 1.029,0.57 -0.115,2.286 -1.6,1.372 -3.429,1.715 -1.943,1.943 -1.486,3.656 -0.57,4.916 -2.858,2.743 -2.058,0.687 -0.114,5.829 -0.457,1.716 0.457,0.8 3.658,0.571 -0.571,2.743 -1.486,2.172 z"
     inkscape:connector-curvature="0"
     style="fill:#d3d3d3" /><path
     id="NV"
     sodipodi:nodetypes="ccccccccccccccccccccccccccccccccccccc"
     d="m 428.657,339.572 20.98,4.511 9.716,1.943 9.259,1.829 6.615,1.633 -0.56,5.865 -3.543,17.329 -4.093,19.98 -1.943,9.719 -2.172,13.281 -3.154,16.415 -3.521,15.686 -1.968,10.181 -2.466,16.771 -0.457,1.099 -1.073,2.469 -1.873,-0.114 -1.097,-2.742 -2.743,-0.505 -1.396,-0.981 -2.038,0.321 -0.915,0.73 -1.301,1.35 -0.436,6.975 -0.551,1.715 -0.411,12.093 -1.321,1.714 -1.876,-2.262 -14.519,-22.748 -19.433,-29.035 -22.748,-33.836 -12.382,-18.582 1.636,-6.566 6.973,-25.949 7.889,-31.348 33.606,8.143 13.717,2.972"
     inkscape:connector-curvature="0"
     style="fill:#d3d3d3" /><path
     id="UT"
     sodipodi:nodetypes="ccccccccccccccccccccccccccc"
     d="m 540.971,471.307 -24.644,-3.474 -26.563,-4.893 -33.827,-6.02 1.588,-9.157 3.201,-15.203 3.314,-16.575 2.172,-13.603 1.943,-8.917 3.772,-20.461 3.544,-17.49 1.113,-5.573 12.718,2.258 12.002,2.058 10.287,1.829 8.346,1.372 3.678,0.479 -1.485,10.63 -2.312,13.173 7.808,0.928 16.407,1.805 8.211,0.856 -2.13,21.967 -3.201,22.566 -3.753,27.826 -1.666,11.107 z"
     inkscape:connector-curvature="0"
     style="fill:#d3d3d3" /><path
     id="CO"
     sodipodi:nodetypes="ccccccccccccccc"
     d="m 666.62,418.796 1.44,-21.282 -32.095,-3.064 -24.464,-2.7 -37.265,-4.115 -20.689,-2.515 -2.63,22.176 -3.2,22.404 -3.754,27.986 -1.505,11.107 -0.251,2.764 33.927,3.795 37.74,4.267 31.961,3.165 16.608,0.847"
     inkscape:connector-curvature="0"
     style="fill:#d3d3d3" /><path
     id="NM"
     sodipodi:nodetypes="ccccccccccccccccccccc"
     d="m 570.724,593.045 -0.65,-6.123 8.645,0.524 29.516,3.064 28.393,1.438 1.966,-22.332 3.726,-55.876 1.119,-19.39 2.014,0.35 -0.014,-11.074 -32.204,-2.402 -36.938,-4.428 -34.465,-4.114 -4.2,30.758 -6.965,53.202 -3.752,26.922 -2.049,13.309 15.46,1.989 1.293,-10.022 16.65,2.586 z"
     inkscape:connector-curvature="0"
     style="fill:#d3d3d3" /><path
     id="OR"
     sodipodi:nodetypes="cccccccccccccccccccccccccccccccccccccccccccccccccccccccccc"
     d="m 428.306,338.687 4.298,-17.901 4.665,-17.879 1.051,-4.229 2.354,-5.623 -0.615,-1.163 -2.516,-0.046 -1.281,-1.67 0.458,-1.464 0.503,-3.247 4.458,-5.487 1.829,-1.1 1.143,-1.143 1.486,-3.566 4.047,-5.669 3.564,-3.862 0.229,-3.451 -3.27,-2.469 -1.209,-4.51 -13.237,-3.745 -15.09,-3.543 -15.432,0.114 -0.458,-1.372 -5.487,2.058 -4.458,-0.572 -2.4,-1.6 -1.258,0.686 -4.687,-0.229 -1.715,-1.372 -5.258,-2.058 -0.801,0.114 -4.344,-1.486 -1.943,1.829 -6.173,-0.343 -5.943,-4.115 0.686,-0.8 0.229,-7.773 -2.285,-3.887 -4.115,-0.572 -0.687,-2.515 -2.354,-0.466 -5.798,2.059 -2.265,6.466 -3.232,10.023 -3.233,6.466 -5.011,14.064 -6.467,13.58 -8.083,12.61 -1.94,2.91 -0.808,8.568 -1.293,5.981 2.708,3.527 6.729,2.251 11.592,3.293 7.866,2.539 12.414,3.634 13.328,3.59 13.168,3.565"
     inkscape:connector-curvature="0"
     style="fill:#d3d3d3" /><path
     id="ND"
     sodipodi:nodetypes="cccccccccccccccccccc"
     d="m 759.306,289.668 -0.365,-7.496 -1.989,-7.316 -1.829,-13.649 -0.457,-9.831 -1.989,-3.108 -1.601,-5.351 v -10.288 l 0.687,-3.887 -2.115,-5.499 -28.424,-0.564 -18.592,-0.646 -26.512,-1.293 -24.946,-1.884 -1.261,14.23 -1.372,15.089 -2.259,24.947 -0.486,11.021 56.816,3.764 z"
     inkscape:connector-curvature="0"
     style="fill:#d3d3d3" /><path
     id="SD"
     sodipodi:nodetypes="cccccccccccccccccccccccccccccccccccccccccc"
     d="m 760.797,365.181 -0.953,-1.081 -1.521,-3.627 1.829,-3.702 1.051,-5.555 -2.583,-2.058 -0.297,-2.744 0.594,-2.996 2.15,-0.802 0.297,-5.735 -0.068,-30.086 -0.618,-2.972 -4.114,-3.59 -0.982,-1.989 v -1.921 l 1.897,-1.279 1.531,-1.853 0.184,-2.72 -57.384,-1.6 -56.174,-3.887 -0.767,5.279 -1.613,15.868 -1.345,17.947 -1.601,24.597 16.027,1.029 19.638,1.143 17.993,1.303 23.776,1.304 10.744,-0.778 2.86,2.286 4.319,2.973 0.982,0.754 3.541,-0.891 4.047,-0.297 2.743,-0.068 3.113,1.211 4.548,1.439 3.133,1.761 0.618,1.921 0.914,1.897 0.706,-0.481 z"
     inkscape:connector-curvature="0"
     style="fill:#d3d3d3" /><path
     id="NE"
     sodipodi:nodetypes="ccccccccccccccccccccccccccccccccccccc"
     d="m 772.243,408.989 1.372,2.675 0.093,2.126 2.354,3.727 2.72,3.151 h -5.05 l -43.482,-0.938 -40.787,-0.89 -21.19,-0.961 1.072,-21.327 -33.379,-2.744 4.345,-44.01 15.546,1.029 20.118,1.143 17.832,1.143 23.777,1.144 10.745,-0.458 2.058,2.286 4.801,2.972 1.145,0.915 4.344,-1.372 3.887,-0.458 2.743,-0.229 1.829,1.372 5.029,1.601 2.973,1.6 0.457,1.601 0.915,2.058 h 1.828 l 0.799,0.046 0.981,5.212 2.743,8.026 1.235,4.641 2.126,3.818 0.524,4.938 1.439,4.275 0.55,6.47"
     inkscape:connector-curvature="0"
     style="fill:#d3d3d3" /><path
     id="IA"
     sodipodi:nodetypes="cccccccccccccccccccccccccccccccccccccccccccccccccccccccccccccc"
     d="m 854.594,363.628 0.17,1.942 2.287,1.14 1.141,1.257 0.344,1.262 3.888,3.202 0.687,2.173 -0.8,2.862 -1.488,3.544 -0.8,2.742 -2.173,1.603 -1.716,0.572 -5.484,1.485 -0.688,2.283 -0.799,2.285 0.572,1.372 1.716,1.714 -0.002,3.661 -2.169,1.601 -0.459,1.487 v 2.517 l -1.489,0.457 -1.714,1.37 -0.455,1.485 0.455,1.717 -1.374,1.205 -2.294,-2.691 -1.483,-2.626 -8.341,0.799 -10.171,0.571 -25.036,0.688 -13.035,0.229 -9.374,0.229 -1.315,0.122 -1.653,-4.472 -0.229,-6.63 -1.601,-4.115 -0.688,-5.258 -2.286,-3.658 -0.914,-4.801 -2.743,-7.544 -1.144,-5.373 -1.372,-2.172 -1.6,-2.744 1.828,-4.344 1.371,-5.716 -2.743,-2.058 -0.457,-2.743 0.914,-2.515 h 1.715 11.546 l 49.61,-0.686 19.877,-0.686 1.852,2.747 1.832,2.622 0.455,0.804 -1.83,2.749 0.455,4.222 2.516,3.886 2.969,1.824 2.405,0.23 z"
     inkscape:connector-curvature="0"
     style="fill:#d3d3d3" /><path
     id="MS"
     sodipodi:nodetypes="ccccccccccccccccccccccccccccccccccccccccccccccccccccc"
     d="m 912.559,628.97 -0.254,1.256 h -5.174 l -1.454,-0.81 -2.103,-0.322 -6.79,1.939 -1.778,-0.809 -2.587,4.203 -1.103,0.777 -1.123,-2.488 -1.145,-3.887 -3.43,-3.2 1.144,-7.545 -0.686,-0.914 -1.829,0.229 -8.23,0.686 -24.233,0.688 -0.457,-1.602 0.686,-8.002 3.431,-6.173 5.258,-9.146 -0.914,-2.058 h 1.143 l 0.688,-3.201 -2.286,-1.829 0.229,-1.829 -2.058,-4.572 -0.286,-5.344 1.372,-2.658 -0.4,-4.344 -1.371,-2.972 1.371,-1.372 -1.371,-2.059 0.457,-1.829 0.914,-6.173 2.973,-2.743 -0.687,-2.058 3.657,-5.259 2.743,-0.914 v -2.516 l -0.686,-1.372 2.743,-5.258 2.743,-1.144 0.107,-3.412 8.675,-0.077 24.088,-1.94 4.58,-0.229 0.009,6.372 0.161,16.65 -0.808,31.038 -0.162,14.063 2.748,18.754 z"
     inkscape:connector-curvature="0"
     style="fill:#d3d3d3" /><path
     id="IN"
     sodipodi:nodetypes="ccccccccccccccccccccccccccccccccccccccccccccccccccc"
     d="m 906.421,462.854 0.063,-2.858 0.485,-4.525 2.264,-2.91 1.777,-3.88 2.587,-4.203 -0.484,-5.82 -1.778,-2.748 -0.323,-3.232 0.809,-5.496 -0.484,-6.952 -1.294,-16.004 -1.293,-15.358 -0.971,-11.72 3.071,0.889 1.454,0.97 1.133,-0.323 2.102,-1.94 2.829,-1.617 5.093,-0.162 21.986,-2.263 5.574,-0.533 1.505,15.957 4.251,36.84 0.599,5.771 -0.372,2.263 1.229,1.795 0.097,1.373 -2.521,1.601 -3.54,1.551 -3.202,0.55 -0.599,4.867 -4.574,3.312 -2.797,4.01 0.323,2.377 -0.581,1.534 h -3.326 l -1.586,-1.617 -2.493,1.263 -2.684,1.503 0.161,3.055 -1.193,0.258 -0.468,-1.018 -2.167,-1.503 -3.25,1.341 -1.552,3.006 -1.438,-0.809 -1.455,-1.6 -4.465,0.485 -5.593,0.97 z"
     inkscape:connector-curvature="0"
     style="fill:#d3d3d3" /><path
     id="IL"
     sodipodi:nodetypes="ccccccccccccccccccccccccccccccccccccccccccccccccccccccccccccccccccccccccccccccccccccc"
     d="m 905.805,463.602 v -3.605 l 0.258,-4.866 2.377,-3.138 1.778,-3.766 2.587,-3.863 -0.372,-5.252 -2.005,-3.542 -0.098,-3.347 0.695,-5.271 -0.825,-7.178 -1.066,-15.778 -1.294,-15.017 -0.922,-11.639 -0.271,-0.921 -0.81,-2.587 -1.293,-3.718 -1.617,-1.778 -1.454,-2.587 -0.232,-5.489 -9.903,1.312 -27.206,1.715 -8.688,-0.429 0.229,2.372 2.286,0.686 0.915,1.143 0.457,1.829 3.887,3.429 0.686,2.286 -0.686,3.429 -1.829,3.658 -0.688,2.515 -2.285,1.829 -1.829,0.686 -5.259,1.372 -0.686,1.829 -0.688,2.058 0.688,1.372 1.828,1.6 -0.229,4.114 -1.828,1.602 -0.687,1.601 v 2.743 l -1.829,0.457 -1.601,1.144 -0.229,1.372 0.229,2.059 -1.715,1.313 -1.029,2.801 0.457,3.658 2.287,7.316 7.315,7.545 5.486,3.658 -0.229,4.344 0.914,1.372 6.4,0.457 2.743,1.372 -0.686,3.657 -2.286,5.944 -0.687,3.201 2.286,3.886 6.401,5.258 4.571,0.687 2.059,5.029 2.058,3.2 -0.914,2.974 1.6,4.114 1.829,2.059 1.944,-0.792 0.687,-2.164 2.037,-1.438 3.236,-1.101 3.088,1.18 2.876,1.066 0.791,-0.21 -0.065,-1.241 -1.065,-2.767 0.438,-2.377 2.28,-1.567 2.358,-0.987 1.163,-0.42 -0.582,-1.324 -0.76,-2.167 1.245,-1.262 z"
     inkscape:connector-curvature="0"
     style="fill:#d3d3d3" /><path
     id="MN"
     sodipodi:nodetypes="cccccccccccccccccccccccccccccccccccccccccccccccccccccccccccccccccccccccccccccccccccccccccccc"
     d="m 759.879,290.471 -0.457,-8.459 -1.829,-7.316 -1.829,-13.489 -0.457,-9.831 -1.829,-3.429 -1.602,-5.03 v -10.288 l 0.688,-3.887 -1.821,-5.452 30.133,0.035 0.323,-8.245 0.646,-0.162 2.264,0.485 1.939,0.809 0.81,5.497 1.453,6.143 1.617,1.616 h 4.851 l 0.322,1.455 6.306,0.323 v 2.102 h 4.85 l 0.323,-1.293 1.132,-1.132 2.264,-0.646 1.293,0.97 h 2.91 l 3.88,2.587 5.335,2.425 2.425,0.485 0.484,-0.97 1.455,-0.485 0.484,2.91 2.587,1.293 0.484,-0.485 1.293,0.162 v 2.102 l 2.587,0.97 h 3.071 l 1.616,-0.809 3.233,-3.233 2.586,-0.485 0.809,1.778 0.485,1.293 h 0.97 l 0.971,-0.808 8.892,-0.323 1.778,3.071 h 0.646 l 0.714,-1.084 4.439,-0.371 -0.612,2.28 -3.938,1.837 -9.246,4.061 -4.773,2.007 -3.071,2.587 -2.425,3.557 -2.265,3.879 -1.777,0.809 -4.526,5.011 -1.293,0.162 -3.842,2.934 -2.816,3.161 -0.229,2.97 0.227,7.778 -1.597,1.6 -5.259,4.114 -1.832,5.717 2.519,3.647 0.458,2.52 -1.147,2.974 -0.228,3.659 0.458,7.084 3.426,4.107 h 2.976 l 2.511,2.293 3.201,1.365 3.659,5.035 7.088,5.023 1.83,2.062 0.234,5.502 -20.588,0.686 -60.249,0.459 -0.339,-35.677 -0.457,-2.972 -4.114,-3.429 -1.145,-1.829 v -1.601 l 2.058,-1.6 1.372,-1.372 z"
     inkscape:connector-curvature="0"
     style="fill:#d3d3d3" /><path
     id="WI"
     sodipodi:nodetypes="cccccccccccccccccccccccccccccccccccccccccccccccccccccccccccccccccccccccccccccccccccccccccccc"
     d="m 900.94,359.181 0.37,-2.97 -1.616,-4.527 -0.646,-6.143 -1.133,-2.425 0.971,-3.072 0.809,-2.91 1.455,-2.586 -0.647,-3.395 -0.646,-3.557 0.484,-1.778 1.939,-2.425 0.162,-2.748 -0.81,-1.293 0.646,-2.586 0.484,-3.233 2.748,-5.658 2.91,-6.79 0.161,-2.263 -0.323,-0.97 -0.808,0.485 -4.203,6.305 -2.749,4.042 -1.939,1.778 -0.809,2.263 -1.455,0.808 -1.131,1.94 -1.455,-0.323 -0.162,-1.778 1.294,-2.425 2.102,-4.688 1.777,-1.617 1.102,-2.292 -1.631,-0.905 -1.371,-1.372 -1.601,-10.288 -3.658,-1.144 -1.371,-2.286 -12.574,-2.743 -2.516,-1.143 -8.23,-2.287 -8.229,-1.143 -4.17,-5.405 -0.529,1.261 -1.132,-0.162 -0.646,-1.132 -2.748,-0.808 -1.132,0.162 -1.778,0.97 -0.97,-0.646 0.646,-1.94 1.939,-3.071 1.132,-1.132 -1.938,-1.455 -2.103,0.808 -2.91,1.94 -7.437,3.233 -2.91,0.646 -2.909,-0.485 -0.982,-0.878 -2.116,2.835 -0.229,2.744 v 8.459 l -1.145,1.6 -5.258,3.887 -2.286,5.944 0.457,0.229 2.516,2.058 0.686,3.201 -1.829,3.201 v 3.887 l 0.458,6.63 2.972,2.972 h 3.431 l 1.827,3.201 3.431,0.458 3.887,5.715 7.088,4.115 2.057,2.744 0.915,7.43 0.687,3.315 2.286,1.601 0.229,1.372 -2.057,3.429 0.229,3.201 2.515,3.887 2.516,1.143 2.972,0.458 1.343,1.38 h 9.174 l 26.066,-1.487 z"
     inkscape:connector-curvature="0"
     style="fill:#d3d3d3" /><path
     id="MO"
     sodipodi:nodetypes="ccccccccccccccccccccccccccccccccccccccccccccccccccccccccccccccccc"
     d="m 843.788,411.526 -2.521,-3.087 -1.144,-2.286 -7.772,0.687 -9.831,0.457 -25.377,0.914 -13.488,0.229 -7.888,0.115 -2.286,0.113 1.257,2.516 -0.229,2.286 2.516,3.887 3.087,4.115 3.086,2.742 2.286,0.229 1.372,0.915 v 2.972 l -1.829,1.602 -0.457,2.285 2.058,3.431 2.515,2.972 2.516,1.829 1.372,11.66 -0.687,35.322 0.229,4.688 0.457,5.384 23.434,-0.117 23.206,-0.686 20.805,-0.802 11.655,-0.229 2.169,3.426 -0.685,3.309 -3.088,2.401 -0.572,1.838 5.379,0.457 3.896,-0.686 1.718,-5.494 0.651,-5.856 2.317,-2.024 1.713,-1.486 2.058,-1.03 0.114,-2.859 0.574,-1.715 -1.031,-1.748 -2.745,0.145 -2.169,-2.625 -1.374,-4.229 0.803,-2.52 -1.944,-3.428 -1.831,-4.576 -4.799,-0.799 -6.97,-5.6 -1.719,-4.112 0.799,-3.201 2.061,-6.059 0.459,-2.863 -1.949,-1.031 -6.855,-0.798 -1.027,-1.712 -0.111,-4.23 -5.487,-3.431 -6.976,-7.771 -2.286,-7.315 -0.23,-4.226 z"
     inkscape:connector-curvature="0"
     style="fill:#d3d3d3" /><path
     id="AR"
     sodipodi:nodetypes="ccccccccccccccccccccccccccccccccccccccccccccc"
     d="m 878.951,506.952 -3.848,0.938 -6.173,-0.457 0.687,-2.972 3.2,-2.744 0.457,-2.286 -1.828,-2.973 -10.975,0.457 -20.806,0.915 -23.318,0.687 -23.319,0.457 1.601,6.857 v 8.23 l 1.372,10.975 0.229,37.837 2.285,1.943 2.973,-1.372 2.742,1.144 0.432,10.323 22.886,-0.143 18.864,-0.802 10.121,-0.196 1.146,-2.092 -0.286,-3.55 -1.826,-2.972 1.601,-1.485 -1.601,-2.512 0.686,-2.51 1.368,-5.605 2.519,-2.062 -0.687,-2.284 3.657,-5.372 2.744,-1.368 -0.113,-1.494 -0.346,-1.825 2.855,-5.599 2.403,-1.257 0.384,-3.429 1.771,-1.241 0.856,-4.233 -1.342,-4.012 4.041,-2.377 0.551,-2.019 1.235,-4.269 z"
     inkscape:connector-curvature="0"
     style="fill:#d3d3d3" /><path
     id="OK"
     sodipodi:nodetypes="ccccccccccccccccccccccccccccccccccccccccccccccccccccccccccccccccc"
     d="m 663.343,484.57 -10.688,-0.457 -6.43,-0.484 0.257,0.198 -0.704,10.423 21.965,1.406 32.056,1.304 -2.335,24.419 -0.457,17.832 0.229,1.602 4.344,3.658 2.058,1.143 0.688,-0.229 0.686,-2.058 1.371,1.829 h 2.06 v -1.371 l 2.742,1.371 -0.457,3.887 4.115,0.229 2.515,1.145 4.115,0.686 2.515,1.829 2.286,-2.058 3.431,0.686 2.515,3.431 h 0.914 v 2.285 l 2.286,0.687 2.286,-2.286 1.828,0.687 h 2.517 l 0.914,2.516 4.801,1.829 1.372,-0.688 1.828,-4.115 h 1.144 l 1.144,2.059 4.115,0.687 3.658,1.371 2.972,0.915 1.829,-0.915 0.686,-2.516 h 4.345 l 2.058,0.915 2.744,-2.058 h 1.143 l 0.688,1.6 h 4.113 l 1.602,-2.058 1.829,0.458 2.058,2.515 3.201,1.829 3.2,0.914 1.94,1.119 -0.389,-37.218 -1.372,-10.975 -0.161,-8.872 -1.439,-6.538 -0.777,-7.18 -0.068,-3.815 -12.137,0.318 -46.41,-0.457 -45.038,-2.059 z"
     inkscape:connector-curvature="0"
     style="fill:#d3d3d3" /><path
     id="KS"
     sodipodi:nodetypes="ccccccccccccccccccccc"
     d="m 791.381,487.13 -12.618,0.205 -46.09,-0.457 -44.558,-2.059 -24.63,-1.258 4.145,-64.72 21.832,0.8 40.468,1.372 44.124,0.458 h 5.096 l 3.247,3.225 2.768,0.229 0.89,1.074 v 2.01 l -1.829,1.601 -0.457,2.606 2.22,3.591 2.515,3.133 2.515,1.989 1.052,11.178 z"
     inkscape:connector-curvature="0"
     style="fill:#d3d3d3" /><path
     id="LA"
     sodipodi:nodetypes="cccccccccccccccccccccccccccccccccccccccccccccccccscccccccccccccccccccccccccccccscccccccccccccccccccccccccccc"
     d="m 890.201,634.994 -1.028,-2.615 -1.145,-3.094 -3.314,-3.541 0.915,-6.75 -0.117,-1.142 -1.263,0.342 -8.229,0.913 -25.028,0.459 -0.685,-2.396 0.912,-8.456 3.315,-5.944 5.031,-8.691 -0.573,-2.397 1.256,-0.682 0.459,-1.952 -2.286,-2.056 -0.111,-1.942 -1.831,-4.346 -0.456,-5.941 -9.725,0.113 -19.205,0.915 -22.205,0.028 0.029,9.573 0.686,9.373 0.687,3.888 2.516,4.114 0.914,5.029 4.344,5.487 0.229,3.199 0.687,0.688 -0.688,8.459 -2.972,5.029 1.601,2.058 -0.687,2.515 -0.687,7.316 -1.371,3.2 0.122,3.616 4.688,-1.521 8.083,-0.323 10.346,3.557 6.467,1.132 3.718,-1.455 3.233,1.133 3.233,0.97 0.808,-2.103 -3.232,-1.132 -2.587,0.485 -2.748,-1.617 c 0,0 0.161,-1.293 0.81,-1.455 0.646,-0.161 3.07,-0.97 3.07,-0.97 l 1.778,1.455 1.778,-0.971 3.231,0.646 1.455,2.425 0.324,2.264 4.525,0.323 1.778,1.778 -0.81,1.615 -1.293,0.81 1.616,1.615 8.406,3.558 3.557,-1.293 0.97,-2.426 2.587,-0.646 1.778,-1.455 1.293,0.971 0.809,2.91 -2.264,0.808 0.646,0.646 3.396,-1.293 2.263,-3.396 0.81,-0.484 -2.103,-0.323 0.81,-1.616 -0.162,-1.455 2.102,-0.485 1.132,-1.293 0.646,0.809 c 0,0 -0.161,3.071 0.646,3.071 0.81,0 4.203,0.646 4.203,0.646 l 4.042,1.938 0.97,1.455 h 2.91 l 1.132,0.972 2.263,-3.072 v -1.455 h -1.293 l -3.396,-2.748 -5.819,-0.81 -3.232,-2.263 1.132,-2.748 2.263,0.323 0.162,-0.646 -1.778,-0.971 v -0.484 h 3.233 l 1.777,-3.071 -1.293,-1.939 -0.323,-2.748 -1.455,0.161 -1.939,2.102 -0.646,2.587 -3.07,-0.646 -0.972,-1.778 1.778,-1.939 2.021,-1.777 z"
     inkscape:connector-curvature="0"
     style="fill:#d3d3d3" /><path
     id="VA"
     sodipodi:nodetypes="ccccccccccccccccccccccccccccccccccccccccccccccccccccccccccccccccccccccccccccccccccc"
     d="m 1116.905,431.245 -0.144,-1.946 6.452,-2.551 -0.771,3.219 -2.92,3.778 -0.418,4.586 0.462,3.392 -1.828,4.978 -2.164,1.916 -1.472,-4.641 0.446,-5.449 1.587,-4.183 z m 2.282,28.302 -58.175,12.574 -37.428,5.279 -6.679,-0.375 -2.585,1.927 -7.339,0.222 -8.382,0.978 -8.928,0.951 8.48,-4.948 -0.013,-2.074 1.521,-2.146 10.553,-11.501 3.947,4.478 3.783,0.964 2.543,-1.14 2.236,-1.312 2.537,1.345 3.914,-1.429 1.876,-4.557 2.603,0.54 2.854,-2.131 1.799,0.493 2.827,-3.677 0.349,-2.083 -0.964,-1.275 1.003,-1.867 5.274,-12.277 0.615,-5.734 1.229,-0.523 2.179,2.443 3.936,-0.302 1.93,-7.572 2.794,-0.562 1.05,-2.741 2.58,-2.347 1.268,-2.342 1.504,-3.354 0.085,-5.066 9.822,3.822 c 0.681,0.341 0.654,-4.783 0.654,-4.783 l 4.051,1.377 -0.462,2.629 8.156,2.938 1.293,1.794 -0.868,3.683 -1.264,1.325 -0.507,1.746 0.494,2.403 1.959,1.278 3.918,1.444 2.949,0.969 4.855,0.941 2.152,2.088 3.189,0.402 0.868,1.2 -0.438,4.689 1.373,1.104 -0.479,1.931 1.229,0.79 -0.222,1.385 -2.694,-0.095 0.089,1.616 2.281,1.543 0.121,1.412 1.772,1.785 0.491,2.524 -2.553,1.381 1.571,1.494 5.801,-1.687 z"
     inkscape:connector-curvature="0"
     style="fill:#d3d3d3" /><path
     id="DC"
     sodipodi:nodetypes="cccccc"
     d="m 1089.757,415.844 -1.077,-1.638 -1.015,-0.842 1.101,-1.616 2.231,1.512 z"
     inkscape:connector-curvature="0"
     style="fill:#d3d3d3" /></svg>