<?xml version="1.0" encoding="iso-8859-1"?>
<!-- Generator: Adobe Illustrator 17.1.0, SVG Export Plug-In . SVG Version: 6.00 Build 0)  -->
<!DOCTYPE svg PUBLIC "-//W3C//DTD SVG 1.1//EN" "http://www.w3.org/Graphics/SVG/1.1/DTD/svg11.dtd">
<svg version="1.1" id="Capa_1" xmlns="http://www.w3.org/2000/svg" xmlns:xlink="http://www.w3.org/1999/xlink" x="0px" y="0px"
	 viewBox="0 0 465 465" style="enable-background:new 0 0 465 465;" xml:space="preserve">
<g>
	<path d="M260,57.5c0-4.143-3.357-7.5-7.5-7.5s-7.5,3.357-7.5,7.5c0,6.893-5.607,12.5-12.5,12.5S220,64.393,220,57.5
		S225.607,45,232.5,45c4.143,0,7.5-3.357,7.5-7.5s-3.357-7.5-7.5-7.5C217.337,30,205,42.337,205,57.5S217.337,85,232.5,85
		S260,72.663,260,57.5z"/>
	<path d="M459.902,246.287l-29.803-32c-1.355-1.456-3.234-2.313-5.223-2.384c-1.991-0.051-3.923,0.652-5.379,2.009l-21.122,19.685
		c-0.101,0.088-0.197,0.18-0.293,0.273l-10.575,9.855c-3.03,2.823-3.197,7.569-0.373,10.6c2.013,2.162,5.005,2.858,7.657,2.058
		C386.061,328.838,331.346,385.778,260,397.714V155h12.5c4.143,0,7.5-3.357,7.5-7.5s-3.357-7.5-7.5-7.5H260v-32.002
		c18.375-10.009,30-29.322,30-50.498C290,25.794,264.206,0,232.5,0S175,25.794,175,57.5c0,21.176,11.625,40.489,30,50.498V140h-12.5
		c-4.143,0-7.5,3.357-7.5,7.5s3.357,7.5,7.5,7.5H205v242.714c-71.346-11.936-126.06-68.875-134.791-141.33
		c2.651,0.801,5.643,0.103,7.656-2.059c2.824-3.03,2.657-7.776-0.373-10.6l-10.724-9.994c-0.023-0.021-0.045-0.043-0.068-0.063
		l-21.198-19.755c-1.455-1.356-3.383-2.079-5.379-2.009c-1.988,0.07-3.867,0.928-5.223,2.384l-29.803,32
		c-2.823,3.031-2.654,7.776,0.377,10.6c1.445,1.346,3.279,2.012,5.109,2.012c1.601,0,3.194-0.518,4.525-1.528l0.118,2.22
		c0.007,0.133,0.018,0.266,0.031,0.398c5.695,53.286,30.817,102.514,70.738,138.617c38.356,34.687,87.464,54.495,139.004,56.251
		v2.642c0,4.143,3.357,7.5,7.5,7.5s7.5-3.357,7.5-7.5v-2.642c51.54-1.757,100.648-21.564,139.004-56.251
		c39.921-36.104,65.043-85.331,70.738-138.617c0.014-0.133,0.024-0.266,0.031-0.398l0.118-2.22c1.331,1.01,2.923,1.528,4.525,1.528
		c1.83,0,3.665-0.666,5.109-2.012C462.557,254.063,462.726,249.318,459.902,246.287z M190,57.5c0-23.435,19.065-42.5,42.5-42.5
		S275,34.065,275,57.5c0,16.893-10.011,32.184-25.504,38.955c-2.731,1.193-4.496,3.892-4.496,6.872V140h-25v-36.673
		c0-2.98-1.765-5.679-4.496-6.872C200.011,89.684,190,74.393,190,57.5z M434.806,258.592C423.654,362.029,336.716,440,232.5,440
		S41.346,362.029,30.194,258.592l-0.867-16.312L40.764,230l13.622,12.694l0.725,13.652c0.008,0.148,0.02,0.296,0.036,0.442
		c4.521,40.096,22.688,77.808,51.156,106.189c28.263,28.177,65.671,46.225,105.334,50.819c2.125,0.245,4.255-0.427,5.853-1.85
		c1.597-1.424,2.511-3.461,2.511-5.601V155h25v251.347c0,2.14,0.914,4.177,2.511,5.601c1.381,1.229,3.159,1.899,4.989,1.899
		c0.287,0,0.575-0.017,0.863-0.05c39.663-4.595,77.071-22.643,105.334-50.819c28.469-28.382,46.636-66.094,51.156-106.189
		c0.017-0.146,0.028-0.294,0.036-0.442l0.725-13.652L424.236,230l11.436,12.28L434.806,258.592z"/>
</g>
<g>
</g>
<g>
</g>
<g>
</g>
<g>
</g>
<g>
</g>
<g>
</g>
<g>
</g>
<g>
</g>
<g>
</g>
<g>
</g>
<g>
</g>
<g>
</g>
<g>
</g>
<g>
</g>
<g>
</g>
</svg>
