<?xml version="1.0" encoding="iso-8859-1"?>
<!-- Generator: Adobe Illustrator 17.1.0, SVG Export Plug-In . SVG Version: 6.00 Build 0)  -->
<!DOCTYPE svg PUBLIC "-//W3C//DTD SVG 1.1//EN" "http://www.w3.org/Graphics/SVG/1.1/DTD/svg11.dtd">
<svg version="1.1" id="Capa_1" xmlns="http://www.w3.org/2000/svg" xmlns:xlink="http://www.w3.org/1999/xlink" x="0px" y="0px"
	 viewBox="0 0 465.001 465.001" style="enable-background:new 0 0 465.001 465.001;" xml:space="preserve">
<g>
	<path d="M457.5,384.437h-62.457l-24.854-24.854h47.458c4.142,0,7.5-3.357,7.5-7.5s-3.358-7.5-7.5-7.5H355.19l-24.853-24.853h47.457
		c4.142,0,7.5-3.357,7.5-7.5s-3.358-7.5-7.5-7.5h-62.457L67.902,57.296l40.515-8.68c3.298-0.707,5.719-3.529,5.916-6.896
		c0.197-3.368-1.879-6.452-5.073-7.538L9.915,0.4C7.21-0.521,4.217,0.177,2.197,2.197C0.177,4.218-0.52,7.211,0.4,9.915
		l33.782,99.346c1.039,3.055,3.904,5.086,7.098,5.086c0.146,0,0.293-0.004,0.44-0.013c3.368-0.197,6.189-2.617,6.896-5.916
		l8.68-40.514L304.73,315.338v62.457c0,4.143,3.358,7.5,7.5,7.5s7.5-3.357,7.5-7.5v-47.457l24.853,24.853v62.457
		c0,4.143,3.358,7.5,7.5,7.5s7.5-3.357,7.5-7.5v-47.457l24.853,24.853v62.457c0,4.143,3.358,7.5,7.5,7.5s7.5-3.357,7.5-7.5v-58.063
		H457.5c4.142,0,7.5-3.357,7.5-7.5S461.642,384.437,457.5,384.437z M51.279,45.517c-0.04,0.009-0.077,0.025-0.116,0.034
		c-0.277,0.064-0.55,0.144-0.819,0.239c-0.059,0.021-0.119,0.04-0.177,0.062c-0.301,0.115-0.597,0.249-0.884,0.405
		c-0.041,0.022-0.08,0.048-0.12,0.071c-0.24,0.136-0.473,0.287-0.7,0.451c-0.063,0.046-0.127,0.091-0.189,0.139
		c-0.251,0.194-0.496,0.4-0.726,0.63c-0.231,0.231-0.437,0.476-0.631,0.728c-0.047,0.061-0.092,0.124-0.137,0.187
		c-0.166,0.229-0.319,0.465-0.457,0.708c-0.021,0.037-0.045,0.072-0.065,0.11c-0.157,0.29-0.292,0.588-0.409,0.893
		c-0.02,0.052-0.037,0.106-0.056,0.159c-0.1,0.28-0.183,0.563-0.248,0.851c-0.008,0.033-0.021,0.063-0.028,0.096l-5.878,27.437
		L19.504,19.504l59.213,20.135L51.279,45.517z"/>
	<path d="M205.984,248.411l-56.32,56.32H87.206c-4.142,0-7.5,3.357-7.5,7.5s3.358,7.5,7.5,7.5h47.457l-24.853,24.853H47.353
		c-4.142,0-7.5,3.357-7.5,7.5s3.358,7.5,7.5,7.5h47.458l-24.854,24.854H7.5c-4.142,0-7.5,3.357-7.5,7.5s3.358,7.5,7.5,7.5h58.064
		v58.063c0,4.143,3.358,7.5,7.5,7.5s7.5-3.357,7.5-7.5v-62.457l24.853-24.853v47.457c0,4.143,3.358,7.5,7.5,7.5s7.5-3.357,7.5-7.5
		v-62.457l24.853-24.853v47.457c0,4.143,3.358,7.5,7.5,7.5s7.5-3.357,7.5-7.5v-62.457l56.32-56.32c2.929-2.93,2.929-7.678,0-10.607
		C213.661,245.483,208.912,245.483,205.984,248.411z"/>
	<path d="M253.714,218.787c1.919,0,3.839-0.732,5.303-2.196L407.705,67.904l8.68,40.514c0.707,3.299,3.528,5.719,6.896,5.916
		c0.147,0.009,0.294,0.013,0.44,0.013c3.193,0,6.06-2.031,7.098-5.086l33.782-99.346c0.92-2.704,0.223-5.697-1.797-7.718
		c-2.02-2.021-5.012-2.717-7.718-1.797l-99.345,33.781c-3.194,1.086-5.27,4.17-5.073,7.538c0.197,3.367,2.618,6.189,5.916,6.896
		l40.514,8.68L248.411,205.983c-2.929,2.93-2.929,7.678,0,10.607C249.875,218.054,251.794,218.787,253.714,218.787z M386.284,39.638
		l59.213-20.135l-20.135,59.213l-5.878-27.437c-0.007-0.033-0.021-0.063-0.028-0.096c-0.065-0.288-0.149-0.572-0.249-0.852
		c-0.019-0.053-0.035-0.106-0.055-0.158c-0.116-0.305-0.251-0.603-0.409-0.893c-0.02-0.038-0.044-0.073-0.065-0.11
		c-0.137-0.243-0.29-0.479-0.457-0.708c-0.045-0.063-0.09-0.125-0.137-0.187c-0.194-0.251-0.4-0.497-0.631-0.728
		c-0.23-0.23-0.475-0.435-0.725-0.629c-0.063-0.048-0.127-0.094-0.191-0.141c-0.225-0.163-0.457-0.313-0.695-0.448
		c-0.042-0.024-0.082-0.051-0.125-0.074c-0.286-0.155-0.581-0.288-0.881-0.403c-0.06-0.023-0.121-0.042-0.181-0.063
		c-0.268-0.095-0.539-0.174-0.814-0.238c-0.041-0.009-0.078-0.026-0.119-0.035L386.284,39.638z"/>
</g>
<g>
</g>
<g>
</g>
<g>
</g>
<g>
</g>
<g>
</g>
<g>
</g>
<g>
</g>
<g>
</g>
<g>
</g>
<g>
</g>
<g>
</g>
<g>
</g>
<g>
</g>
<g>
</g>
<g>
</g>
</svg>
