<?xml version="1.0" encoding="iso-8859-1"?>
<!-- Generator: Adobe Illustrator 17.1.0, SVG Export Plug-In . SVG Version: 6.00 Build 0)  -->
<!DOCTYPE svg PUBLIC "-//W3C//DTD SVG 1.1//EN" "http://www.w3.org/Graphics/SVG/1.1/DTD/svg11.dtd">
<svg version="1.1" id="Capa_1" xmlns="http://www.w3.org/2000/svg" xmlns:xlink="http://www.w3.org/1999/xlink" x="0px" y="0px"
	 viewBox="0 0 465 465" style="enable-background:new 0 0 465 465;" xml:space="preserve">
<g>
	<path d="M193.543,323.297h-75.828c-4.143,0-7.5,3.358-7.5,7.5v24.91v64.302c0,4.142,3.357,7.5,7.5,7.5s7.5-3.358,7.5-7.5V389.4
		c8.057,7.28,18.726,11.721,30.414,11.721s22.357-4.441,30.414-11.721v30.608c0,4.142,3.357,7.5,7.5,7.5s7.5-3.358,7.5-7.5v-64.302
		v-24.91C201.043,326.655,197.686,323.297,193.543,323.297z M186.043,355.707c0,16.771-13.644,30.415-30.414,30.415
		s-30.414-13.644-30.414-30.415v-17.41h60.828V355.707z"/>
	<path d="M347.285,323.297h-75.828c-4.143,0-7.5,3.358-7.5,7.5v24.91v64.302c0,4.142,3.357,7.5,7.5,7.5s7.5-3.358,7.5-7.5V389.4
		c8.057,7.28,18.726,11.721,30.414,11.721s22.357-4.441,30.414-11.721v30.608c0,4.142,3.357,7.5,7.5,7.5s7.5-3.358,7.5-7.5v-64.302
		v-24.91C354.785,326.655,351.428,323.297,347.285,323.297z M339.785,355.707c0,16.771-13.644,30.415-30.414,30.415
		s-30.414-13.644-30.414-30.415v-17.41h60.828V355.707z"/>
	<path d="M355.805,118.523l0.006-27.902c0-18.859-15.344-34.202-34.203-34.202H280.54C274.878,26.959,249.833,0,232.505,0
		s-42.372,26.959-48.034,56.418h-41.07c-18.859,0-34.202,15.343-34.202,34.202v27.898c-19.729,26.567-30.147,58.093-30.147,91.348
		v220.931c0,18.859,15.343,34.202,34.202,34.202h238.492c18.859,0,34.202-15.343,34.202-34.202V209.867
		C385.948,176.613,375.532,145.089,355.805,118.523z M254.505,33.305c4.619,6.556,8.638,14.482,10.718,23.114h-10.718V33.305z
		 M225.505,17.913c2.797-1.878,5.251-2.913,7-2.913s4.203,1.034,7,2.912v38.506h-14V17.913z M210.505,33.305v23.113h-10.717
		C201.868,47.787,205.886,39.861,210.505,33.305z M124.199,90.621c0-10.588,8.614-19.202,19.202-19.202h130.613
		c0.003,0,0.007,0,0.01,0c0.004,0,0.008,0,0.012,0h47.572c10.589,0,19.203,8.614,19.203,19.201L340.801,140
		c0,50.522-34.776,93.071-81.646,104.977v-27.895c0-4.142-3.357-7.5-7.5-7.5s-7.5,3.358-7.5,7.5v30.59
		c-3.83,0.412-7.718,0.629-11.655,0.629s-7.825-0.217-11.655-0.629v-30.59c0-4.142-3.357-7.5-7.5-7.5s-7.5,3.358-7.5,7.5v27.895
		c-46.87-11.907-81.646-54.456-81.646-104.977V90.621z M220.845,278.3v-15.555c3.838,0.362,7.724,0.555,11.655,0.555
		s7.817-0.193,11.655-0.555V278.3H220.845z M244.155,293.3v4.601c0,6.427-5.229,11.655-11.655,11.655s-11.655-5.229-11.655-11.655
		V293.3H244.155z M370.948,430.798c0,10.588-8.614,19.202-19.202,19.202H113.254c-10.588,0-19.202-8.614-19.202-19.202V209.867
		c0-22.413,5.247-43.952,15.316-63.407c2.903,55.961,43.294,102.163,96.477,113.929V278.3h-1.246c-4.143,0-7.5,3.358-7.5,7.5
		s3.357,7.5,7.5,7.5h1.246v4.601c0,14.698,11.957,26.655,26.655,26.655s26.655-11.958,26.655-26.655V293.3h1.246
		c4.143,0,7.5-3.358,7.5-7.5s-3.357-7.5-7.5-7.5h-1.246v-17.911c53.184-11.767,93.574-57.969,96.477-113.929
		c10.069,19.454,15.316,40.994,15.316,63.407V430.798z"/>
</g>
<g>
</g>
<g>
</g>
<g>
</g>
<g>
</g>
<g>
</g>
<g>
</g>
<g>
</g>
<g>
</g>
<g>
</g>
<g>
</g>
<g>
</g>
<g>
</g>
<g>
</g>
<g>
</g>
<g>
</g>
</svg>
