<?xml version="1.0" encoding="iso-8859-1"?>
<!-- Generator: Adobe Illustrator 17.1.0, SVG Export Plug-In . SVG Version: 6.00 Build 0)  -->
<!DOCTYPE svg PUBLIC "-//W3C//DTD SVG 1.1//EN" "http://www.w3.org/Graphics/SVG/1.1/DTD/svg11.dtd">
<svg version="1.1" id="Capa_1" xmlns="http://www.w3.org/2000/svg" xmlns:xlink="http://www.w3.org/1999/xlink" x="0px" y="0px"
	 viewBox="0 0 465 465" style="enable-background:new 0 0 465 465;" xml:space="preserve">
<g>
	<path d="M414.311,332.458V181.806C414.311,81.558,332.753,0,232.505,0c0,0-0.001,0-0.001,0c0,0-0.001,0-0.001,0l-0.001,0
		c0,0,0,0,0,0l-0.001,0L232.5,0l-0.001,0l-0.001,0c0,0-0.001,0-0.001,0c-0.005,0-0.01,0-0.016,0
		C132.244,0.013,50.699,81.566,50.699,181.806l-0.01,150.652c-16.804,3.476-29.475,18.389-29.475,36.208v59.361
		c0,20.387,16.586,36.974,36.974,36.974h258.775h61.073h28.775c20.387,0,36.974-16.586,36.974-36.974v-59.361
		C443.785,350.847,431.115,335.934,414.311,332.458z M370.537,450h-46.073v-53.308h46.073V450z M428.785,428.026
		c0,12.116-9.857,21.974-21.974,21.974h-21.275v-60.808c0-4.142-3.358-7.5-7.5-7.5h-61.073c-4.142,0-7.5,3.358-7.5,7.5V450H58.188
		c-12.116,0-21.974-9.857-21.974-21.974v-59.361c0-12.116,9.857-21.974,21.974-21.974h0h39.725c4.142,0,7.5-3.358,7.5-7.5
		s-3.358-7.5-7.5-7.5H65.689l0.01-149.886c0-71.856,45.671-133.247,109.51-156.667c-8.815,8.475-16.952,18.994-24.197,31.419
		c-2.086,3.578-0.877,8.17,2.701,10.257c1.188,0.693,2.488,1.022,3.771,1.022c2.58,0,5.092-1.333,6.486-3.723
		c13.416-23.006,29.93-38.496,47.82-45.254c-4.294,9.265-8.045,21.97-11.296,38.222c-6.679,33.392-10.356,77.687-10.356,124.724
		v73.269c0,4.142,3.358,7.5,7.5,7.5s7.5-3.358,7.5-7.5v-73.269c0-44.827,3.409-87.234,9.6-119.409
		c7.133-37.075,15.422-46.865,17.743-47.391c2.389,0.56,10.662,10.378,17.783,47.391c6.19,32.175,9.6,74.582,9.6,119.409
		c0,4.142,3.358,7.5,7.5,7.5s7.5-3.358,7.5-7.5c0-47.038-3.678-91.332-10.356-124.724c-3.25-16.247-7-28.949-11.292-38.214
		c17.429,6.6,33.584,21.5,46.81,43.543c19.064,31.773,29.563,74.175,29.563,119.395v127.386c0,4.142,3.358,7.5,7.5,7.5
		s7.5-3.358,7.5-7.5V181.806c0-47.898-11.258-93.041-31.701-127.112c-6.978-11.631-14.764-21.526-23.16-29.582
		c63.878,23.4,109.585,84.809,109.585,156.694v149.886H127.914c-4.142,0-7.5,3.358-7.5,7.5s3.358,7.5,7.5,7.5h278.898
		c12.116,0,21.974,9.857,21.974,21.974V428.026z"/>
	<path d="M267.362,316.692c4.142,0,7.5-3.358,7.5-7.5v-97.386c0-4.142-3.358-7.5-7.5-7.5s-7.5,3.358-7.5,7.5v97.386
		C259.862,313.334,263.22,316.692,267.362,316.692z"/>
	<path d="M197.638,316.692c4.142,0,7.5-3.358,7.5-7.5v-24.117c0-4.142-3.358-7.5-7.5-7.5s-7.5,3.358-7.5,7.5v24.117
		C190.138,313.334,193.496,316.692,197.638,316.692z"/>
	<path d="M127.914,316.692c4.142,0,7.5-3.358,7.5-7.5V181.806c0-31.529,5.212-62.259,15.074-88.867
		c1.439-3.884-0.542-8.2-4.426-9.639c-3.883-1.438-8.199,0.543-9.639,4.426c-10.473,28.258-16.008,60.791-16.008,94.08v127.386
		C120.414,313.334,123.771,316.692,127.914,316.692z"/>
</g>
<g>
</g>
<g>
</g>
<g>
</g>
<g>
</g>
<g>
</g>
<g>
</g>
<g>
</g>
<g>
</g>
<g>
</g>
<g>
</g>
<g>
</g>
<g>
</g>
<g>
</g>
<g>
</g>
<g>
</g>
</svg>
