<?xml version="1.0" encoding="iso-8859-1"?>
<!-- Generator: Adobe Illustrator 17.1.0, SVG Export Plug-In . SVG Version: 6.00 Build 0)  -->
<!DOCTYPE svg PUBLIC "-//W3C//DTD SVG 1.1//EN" "http://www.w3.org/Graphics/SVG/1.1/DTD/svg11.dtd">
<svg version="1.1" id="Capa_1" xmlns="http://www.w3.org/2000/svg" xmlns:xlink="http://www.w3.org/1999/xlink" x="0px" y="0px"
	 viewBox="0 0 465 465" style="enable-background:new 0 0 465 465;" xml:space="preserve">
<g>
	<path d="M450.872,161.765c0-0.293-0.008-0.583-0.019-0.874l-0.008-0.273c-0.093-4.141-3.556-7.43-7.666-7.33
		c-4.141,0.093-7.423,3.524-7.33,7.666l0.013,0.448c0.004,0.121,0.01,0.242,0.01,0.363c0,11.94-5.875,23.138-15.718,29.952
		c-1.684,1.166-2.818,2.97-3.138,4.992c-0.32,2.023,0.201,4.09,1.442,5.719c7.254,9.522,9.382,21.987,5.693,33.344
		c-3.69,11.356-12.738,20.189-24.205,23.629c-1.962,0.588-3.598,1.953-4.528,3.778c-0.93,1.825-1.073,3.951-0.396,5.884
		c3.957,11.299,2.129,23.812-4.889,33.472c-7.019,9.659-18.34,15.234-30.322,14.992c-2.042-0.018-4.025,0.747-5.474,2.194
		c-1.448,1.448-2.241,3.426-2.195,5.474c0.271,11.97-5.333,23.305-14.993,30.322s-22.172,8.844-33.471,4.89
		c-1.933-0.678-4.058-0.535-5.884,0.396c-1.825,0.93-3.19,2.565-3.779,4.527c-3.44,11.467-12.273,20.515-23.629,24.205
		c-11.356,3.689-23.82,1.562-33.344-5.693c-2.685-2.045-6.405-2.045-9.09,0c-9.523,7.254-21.988,9.382-33.343,5.693
		c-11.356-3.69-20.189-12.738-23.629-24.205c-0.588-1.962-1.954-3.598-3.779-4.527c-1.825-0.93-3.951-1.073-5.884-0.396
		c-11.298,3.955-23.811,2.129-33.471-4.89c-9.66-7.018-15.264-18.353-14.993-30.322c0.046-2.048-0.747-4.025-2.195-5.474
		c-1.449-1.449-3.46-2.223-5.474-2.194c-11.954,0.26-23.303-5.332-30.321-14.992s-8.846-22.173-4.889-33.472
		c0.677-1.933,0.534-4.059-0.396-5.884c-0.93-1.824-2.566-3.19-4.528-3.778c-11.466-3.439-20.515-12.273-24.205-23.629
		c-3.689-11.356-1.562-23.821,5.693-33.344c1.241-1.629,1.762-3.695,1.442-5.718c-0.32-2.023-1.454-3.827-3.138-4.993
		c-9.842-6.814-15.718-18.012-15.718-29.952c0-0.139,0.006-0.277,0.011-0.415l0.014-0.437c0.1-4.141-3.176-7.578-7.317-7.679
		c-4.15-0.068-7.579,3.177-7.679,7.317l-0.009,0.286c-0.01,0.308-0.02,0.616-0.02,0.927c0,14.402,6.049,28.036,16.469,37.699
		c-6.923,12.409-8.464,27.245-4.013,40.942c4.451,13.698,14.417,24.795,27.313,30.765c-2.75,13.942,0.369,28.528,8.835,40.18
		c8.466,11.652,21.374,19.126,35.482,20.818c1.693,14.11,9.167,27.019,20.819,35.482c11.651,8.466,26.235,11.582,40.179,8.836
		c5.97,12.896,17.067,22.861,30.764,27.313c14.285,4.642,29.806,2.767,42.524-4.933c8.1,4.904,17.335,7.445,26.666,7.444
		c5.319,0,10.672-0.826,15.858-2.512c13.697-4.451,24.794-14.417,30.764-27.313c13.942,2.752,28.528-0.37,40.179-8.836
		c11.652-8.464,19.126-21.372,20.819-35.482c14.108-1.693,27.017-9.167,35.483-20.818c8.465-11.651,11.584-26.237,8.834-40.18
		c12.896-5.97,22.862-17.066,27.313-30.765c4.451-13.697,2.911-28.533-4.013-40.942
		C444.823,189.801,450.872,176.169,450.872,161.765z"/>
	<path d="M163.5,257.693c25.851,0,47.314-19.144,50.956-44h36.089c3.641,24.856,25.104,44,50.956,44
		c13.58,0,26.392-5.24,36.077-14.756c9.669-9.5,15.139-22.191,15.4-35.736c0.08-4.142-3.212-7.563-7.354-7.644
		c-4.148-0.091-7.563,3.214-7.644,7.354c-0.381,19.729-16.746,35.781-36.479,35.781c-20.126,0-36.5-16.374-36.5-36.5
		c0-4.143-3.358-7.5-7.5-7.5h-50c-4.142,0-7.5,3.357-7.5,7.5c0,20.126-16.374,36.5-36.5,36.5c-19.735,0-36.1-16.053-36.48-35.784
		c-0.08-4.141-3.464-7.427-7.643-7.354c-4.141,0.08-7.434,3.502-7.354,7.644c0.261,13.545,5.729,26.237,15.399,35.738
		C137.108,252.452,149.92,257.693,163.5,257.693z"/>
	<path d="M461.934,80.41c-2.337-1.713-5.454-1.928-8.004-0.547c-15.003,8.121-29.471,12.068-44.231,12.068
		c-21.539,0-41.162-8.528-60.138-16.776c-18.625-8.096-37.885-16.467-58.602-16.467c-20.08,0-39.258,7.932-58.458,24.213
		c-19.2-16.281-38.378-24.213-58.458-24.213c-20.719,0-39.98,8.371-58.607,16.467c-18.976,8.247-38.597,16.774-60.133,16.776
		c-0.004,0-0.005,0-0.008,0c-14.753,0-29.22-3.948-44.222-12.068c-2.55-1.381-5.666-1.167-8.004,0.547s-3.479,4.622-2.93,7.469
		c4.159,21.574,22.045,45.999,47.846,65.336c28.124,21.078,60.629,32.687,91.528,32.687c35.736,0,67.711-15.576,92.99-45.166
		c25.278,29.59,57.253,45.166,92.988,45.166c30.901,0,63.407-11.607,91.53-32.686c25.799-19.336,43.686-43.761,47.846-65.337
		C465.413,85.032,464.273,82.124,461.934,80.41z M408.023,141.213c-25.544,19.146-54.855,29.688-82.534,29.688
		c-34.226,0-63.502-15.697-87.016-46.656c-1.418-1.867-3.628-2.964-5.973-2.964s-4.554,1.097-5.973,2.964
		c-23.515,30.959-52.792,46.656-87.018,46.656c-27.676,0-56.986-10.544-82.532-29.689c-16.249-12.179-29.167-26.755-36.4-40.587
		c11.537,4.231,23.009,6.307,34.714,6.307c0.003,0,0.007,0,0.01,0c24.654-0.002,45.73-9.162,66.111-18.02
		c18.014-7.828,35.028-15.224,52.628-15.224c18.152,0,35.11,7.861,53.367,24.739c2.874,2.658,7.309,2.658,10.183,0
		c18.257-16.878,35.215-24.739,53.367-24.739c17.598,0,34.611,7.395,52.623,15.224c20.383,8.859,41.46,18.02,66.118,18.02
		c11.71,0,23.185-2.075,34.724-6.308C437.19,114.458,424.272,129.034,408.023,141.213z"/>
</g>
<g>
</g>
<g>
</g>
<g>
</g>
<g>
</g>
<g>
</g>
<g>
</g>
<g>
</g>
<g>
</g>
<g>
</g>
<g>
</g>
<g>
</g>
<g>
</g>
<g>
</g>
<g>
</g>
<g>
</g>
</svg>
