<?xml version="1.0" encoding="iso-8859-1"?>
<!-- Generator: Adobe Illustrator 17.1.0, SVG Export Plug-In . SVG Version: 6.00 Build 0)  -->
<!DOCTYPE svg PUBLIC "-//W3C//DTD SVG 1.1//EN" "http://www.w3.org/Graphics/SVG/1.1/DTD/svg11.dtd">
<svg version="1.1" id="Capa_1" xmlns="http://www.w3.org/2000/svg" xmlns:xlink="http://www.w3.org/1999/xlink" x="0px" y="0px"
	 viewBox="0 0 465 465" style="enable-background:new 0 0 465 465;" xml:space="preserve">
<g>
	<path d="M168.044,241.27c-2.096-3.573-6.693-4.767-10.265-2.673c-3.572,2.097-4.769,6.691-2.673,10.265
		c2.006,3.417,3.751,7.021,5.188,10.708c1.155,2.966,3.988,4.78,6.99,4.78c0.905,0,1.826-0.165,2.72-0.514
		c3.86-1.503,5.771-5.851,4.267-9.71C172.546,249.697,170.451,245.372,168.044,241.27z"/>
	<path d="M170.003,309.86c-3.861-1.505-8.208,0.406-9.71,4.267c-11.337,29.107-38.852,47.916-70.097,47.916
		C48.733,362.043,15,328.311,15,286.848c0-41.464,33.733-75.196,75.196-75.196c7.549,0,14.999,1.114,22.143,3.312
		c3.963,1.218,8.155-1.006,9.374-4.964c1.217-3.96-1.005-8.156-4.964-9.374c-8.575-2.637-17.508-3.974-26.553-3.974
		C40.462,196.651,0,237.113,0,286.848c0,49.733,40.462,90.195,90.196,90.195c18.527,0,36.329-5.577,51.482-16.127
		c14.801-10.306,26.07-24.603,32.591-41.346C175.773,315.711,173.862,311.363,170.003,309.86z"/>
	<path d="M379.789,196.787c-4.111-0.207-7.672,2.945-7.897,7.081s2.944,7.672,7.081,7.897C418.801,213.938,450,246.918,450,286.848
		c0,41.463-33.733,75.195-75.196,75.195s-75.195-33.732-75.195-75.195c0-22.59,10.023-43.779,27.499-58.137
		c3.201-2.629,3.664-7.355,1.034-10.556c-2.628-3.2-7.355-3.662-10.556-1.034c-20.958,17.217-32.978,42.632-32.978,69.727
		c0,49.733,40.462,90.195,90.195,90.195c49.734,0,90.196-40.462,90.196-90.195C465,238.953,427.571,199.394,379.789,196.787z"/>
	<path d="M367.676,289.178c1.034,3.163,3.971,5.172,7.128,5.172c0.771,0,1.558-0.12,2.331-0.373
		c3.938-1.287,6.086-5.521,4.799-9.459l-41.205-126.071v-55.514c3.908-0.258,7-3.501,7-7.475c0-4.143-3.357-7.5-7.5-7.5h-41.271
		c-15.994,0-29.006,13.012-29.006,29.006c0,4.143,3.357,7.5,7.5,7.5s7.5-3.357,7.5-7.5c0-7.723,6.283-14.006,14.006-14.006h26.771
		v54.073l-91.044,114.977l-52.595-132.672h30.741c4.143,0,7.5-3.357,7.5-7.5s-3.357-7.5-7.5-7.5h-41.595
		c-0.026-0.001-0.052,0-0.078,0h-16.222c-4.143,0-7.5,3.357-7.5,7.5s3.357,7.5,7.5,7.5h11.02l10.518,26.532l-13.453,16.981
		l-18.947-14.609c-1.312-1.012-2.922-1.561-4.579-1.561H48.848c-4.143,0-7.5,3.357-7.5,7.5s3.357,7.5,7.5,7.5h88.09l16.767,12.927
		L84.317,282.19c-1.786,2.255-2.125,5.332-0.873,7.922s3.875,4.235,6.752,4.235h142.28c0.009,0,0.017,0.002,0.026,0.002
		c0.267,0,0.535-0.019,0.803-0.048c0.059-0.006,0.117-0.017,0.175-0.025c0.199-0.026,0.397-0.06,0.595-0.102
		c0.085-0.018,0.17-0.039,0.254-0.061c0.165-0.042,0.33-0.09,0.494-0.144c0.097-0.032,0.194-0.064,0.289-0.099
		c0.05-0.019,0.101-0.032,0.151-0.052c0.097-0.038,0.187-0.086,0.281-0.128c0.104-0.046,0.208-0.09,0.31-0.141
		c0.161-0.08,0.315-0.169,0.467-0.259c0.073-0.043,0.147-0.082,0.219-0.128c0.22-0.14,0.432-0.29,0.633-0.451
		c0.004-0.003,0.007-0.005,0.011-0.008c0.216-0.173,0.421-0.357,0.615-0.551c0.029-0.029,0.054-0.061,0.083-0.09
		c0.156-0.161,0.306-0.328,0.446-0.502c0.017-0.021,0.036-0.038,0.052-0.059l92.059-116.258L367.676,289.178z M105.706,279.348
		l77.149-97.38l38.605,97.38H105.706z"/>
</g>
<g>
</g>
<g>
</g>
<g>
</g>
<g>
</g>
<g>
</g>
<g>
</g>
<g>
</g>
<g>
</g>
<g>
</g>
<g>
</g>
<g>
</g>
<g>
</g>
<g>
</g>
<g>
</g>
<g>
</g>
</svg>
