<?xml version="1.0" encoding="iso-8859-1"?>
<!-- Generator: Adobe Illustrator 17.1.0, SVG Export Plug-In . SVG Version: 6.00 Build 0)  -->
<!DOCTYPE svg PUBLIC "-//W3C//DTD SVG 1.1//EN" "http://www.w3.org/Graphics/SVG/1.1/DTD/svg11.dtd">
<svg version="1.1" id="Capa_1" xmlns="http://www.w3.org/2000/svg" xmlns:xlink="http://www.w3.org/1999/xlink" x="0px" y="0px"
	 viewBox="0 0 465 465" style="enable-background:new 0 0 465 465;" xml:space="preserve">
<path d="M457.5,297.15H405V249.35c0-1.615-0.013-3.219-0.037-4.813c-0.062-4.098-3.401-7.387-7.499-7.387h-2.718
	c-4.023-99.737-58.57-150.3-162.246-150.3s-158.222,50.563-162.246,150.3h-2.718c-4.098,0-7.438,3.289-7.499,7.387
	C60.013,246.131,60,247.734,60,249.35v47.801H7.5c-4.142,0-7.5,3.357-7.5,7.5c0,47.74,119.79,73.5,232.5,73.5
	c112.71,0,232.5-25.76,232.5-73.5C465,300.508,461.643,297.15,457.5,297.15z M116.86,143.161
	c24.057-27.412,62.964-41.312,115.64-41.312c52.676,0,91.583,13.899,115.64,41.312c19.252,21.937,29.865,53.532,31.599,93.988
	h-14.778v-2.5c0-4.143-3.357-7.5-7.5-7.5h-50c-4.143,0-7.5,3.357-7.5,7.5v2.5h-214.7C86.995,196.693,97.609,165.098,116.86,143.161z
	 M390,252.149v45.001h-25.039v-45.001H390z M349.961,242.149v55.001h-35v-55.001H349.961z M75,252.149h224.961v45.001H75V252.149z
	 M389.488,344.122c-41.831,12.271-97.584,19.028-156.988,19.028c-59.405,0-115.158-6.758-156.988-19.028
	c-31.006-9.095-51.787-20.628-58.315-31.972h430.607C441.275,323.494,420.494,335.027,389.488,344.122z"/>
<g>
</g>
<g>
</g>
<g>
</g>
<g>
</g>
<g>
</g>
<g>
</g>
<g>
</g>
<g>
</g>
<g>
</g>
<g>
</g>
<g>
</g>
<g>
</g>
<g>
</g>
<g>
</g>
<g>
</g>
</svg>
