<?xml version="1.0" encoding="iso-8859-1"?>
<!-- Generator: Adobe Illustrator 17.1.0, SVG Export Plug-In . SVG Version: 6.00 Build 0)  -->
<!DOCTYPE svg PUBLIC "-//W3C//DTD SVG 1.1//EN" "http://www.w3.org/Graphics/SVG/1.1/DTD/svg11.dtd">
<svg version="1.1" id="Capa_1" xmlns="http://www.w3.org/2000/svg" xmlns:xlink="http://www.w3.org/1999/xlink" x="0px" y="0px"
	 viewBox="0 0 465 465" style="enable-background:new 0 0 465 465;" xml:space="preserve">
<path d="M438.591,154.11c-6.967-11.277-14.316-21.635-20.693-29.163c-8.673-10.239-14.772-14.607-20.397-14.607
	c-30.134,0-107.466,49.765-123.051,60h-83.899c-15.585-10.235-92.917-60-123.051-60c-5.625,0-11.725,4.368-20.397,14.607
	c-6.377,7.528-13.727,17.886-20.693,29.163C20.214,164.137,0,198.369,0,217.839s20.214,53.702,26.409,63.729
	c6.967,11.277,14.316,21.635,20.693,29.163c8.673,10.239,14.772,14.607,20.397,14.607c20.804,0,64.106-23.721,94.054-41.777
	c-15.681,24.54-34.073,49.932-44.628,56.067c-1.292-0.144-5.459-0.949-14.815-5.416c-3.739-1.782-8.215-0.201-10,3.537
	c-1.784,3.738-0.2,8.215,3.537,10c11.085,5.291,17.598,6.91,21.818,6.91c2.429,0,4.099-0.536,5.442-1.217
	c21.265-10.767,56.89-70.172,67.097-87.747c0.188-0.123,0.373-0.244,0.546-0.358h83.899c0.173,0.114,0.358,0.235,0.546,0.358
	c10.206,17.575,45.832,76.979,67.097,87.747c1.344,0.681,3.013,1.217,5.442,1.217c4.221,0,10.734-1.619,21.818-6.91
	c3.737-1.785,5.321-6.262,3.537-10s-6.26-5.317-10-3.537c-9.356,4.467-13.523,5.272-14.815,5.416
	c-10.548-6.131-28.94-31.524-44.624-56.065c29.948,18.056,73.247,41.775,94.05,41.775c5.625,0,11.725-4.368,20.397-14.607
	c6.377-7.528,13.727-17.886,20.693-29.163C444.786,271.542,465,237.31,465,217.839S444.786,164.137,438.591,154.11z M180.8,210.339
	h-52.5c-4.143,0-7.5,3.357-7.5,7.5s3.357,7.5,7.5,7.5h52.5v26.977c-0.561,0.515-1.053,1.122-1.449,1.819
	c-0.179,0.315-0.362,0.635-0.544,0.955c-27.802,17.999-88.583,54.525-110.662,55.239c-4.208-2.091-16.778-16.438-30.563-39.242
	C23.864,248.394,15,227.494,15,217.839s8.864-30.555,22.582-53.247c13.784-22.804,26.354-37.151,30.563-39.242
	c22.623,0.731,85.878,39.061,112.655,56.534V210.339z M269.2,250.339h-73.4v-65h73.4V250.339z M427.418,271.086
	c-13.784,22.804-26.354,37.151-30.563,39.242c-22.078-0.714-82.859-37.239-110.662-55.239c-0.182-0.319-0.365-0.64-0.544-0.955
	c-0.396-0.697-0.889-1.304-1.449-1.819v-26.977h52.5c4.143,0,7.5-3.357,7.5-7.5s-3.357-7.5-7.5-7.5h-52.5v-28.455
	c26.777-17.473,90.033-55.803,112.655-56.534c4.208,2.091,16.778,16.438,30.563,39.242C441.136,187.285,450,208.185,450,217.839
	S441.136,248.394,427.418,271.086z"/>
<g>
</g>
<g>
</g>
<g>
</g>
<g>
</g>
<g>
</g>
<g>
</g>
<g>
</g>
<g>
</g>
<g>
</g>
<g>
</g>
<g>
</g>
<g>
</g>
<g>
</g>
<g>
</g>
<g>
</g>
</svg>
