<?xml version="1.0" encoding="iso-8859-1"?>
<!-- Generator: Adobe Illustrator 17.1.0, SVG Export Plug-In . SVG Version: 6.00 Build 0)  -->
<!DOCTYPE svg PUBLIC "-//W3C//DTD SVG 1.1//EN" "http://www.w3.org/Graphics/SVG/1.1/DTD/svg11.dtd">
<svg version="1.1" id="Capa_1" xmlns="http://www.w3.org/2000/svg" xmlns:xlink="http://www.w3.org/1999/xlink" x="0px" y="0px"
	 viewBox="0 0 465 465" style="enable-background:new 0 0 465 465;" xml:space="preserve">
<g>
	<path d="M396.902,68.098C352.988,24.184,294.603,0,232.5,0S112.012,24.184,68.098,68.098C24.185,112.011,0,170.397,0,232.5
		s24.185,120.489,68.098,164.402C112.012,440.816,170.397,465,232.5,465s120.488-24.184,164.402-68.098
		C440.815,352.989,465,294.603,465,232.5S440.815,112.011,396.902,68.098z M232.5,450C112.57,450,15,352.43,15,232.5
		S112.57,15,232.5,15S450,112.57,450,232.5S352.43,450,232.5,450z"/>
	<path d="M232.5,339.5c4.143,0,7.5-3.358,7.5-7.5v-9.894c41.066-3.281,74.89-33.26,83.087-73.465
		c2.536,1.833,6.057,1.946,8.747,0.03c3.374-2.403,4.161-7.086,1.759-10.459l-9.86-13.845c-1.795-2.521-4.953-3.679-7.954-2.919
		c-3,0.761-5.224,3.287-5.6,6.358l-0.15,1.229c-0.021,0.17-0.036,0.342-0.045,0.513l-0.475,8.93
		c-4.026,36.808-33.27,65.117-69.509,68.58v-87.82h8.609c4.143,0,7.5-3.358,7.5-7.5s-3.357-7.5-7.5-7.5H240V184.54
		c12.922-3.339,22.494-15.095,22.494-29.045c0-16.539-13.455-29.995-29.994-29.995s-29.994,13.456-29.994,29.995
		c0,13.95,9.573,25.706,22.494,29.045v19.699h-8.609c-4.143,0-7.5,3.358-7.5,7.5s3.357,7.5,7.5,7.5H225v87.82
		c-36.238-3.463-65.481-31.772-69.508-68.579l-0.476-8.932c-0.009-0.171-0.024-0.343-0.045-0.513l-0.15-1.229
		c-0.376-3.072-2.6-5.597-5.6-6.358c-2.997-0.761-6.158,0.398-7.954,2.919l-9.86,13.845c-2.402,3.374-1.615,8.057,1.759,10.459
		c2.69,1.917,6.214,1.804,8.747-0.03c8.198,40.203,42.022,70.184,83.087,73.465V332C225,336.142,228.357,339.5,232.5,339.5z
		 M217.506,155.495c0-8.268,6.727-14.995,14.994-14.995s14.994,6.727,14.994,14.995c0,6.188-3.769,11.511-9.13,13.798
		c-1.374-1.724-3.488-2.831-5.864-2.831c-2.376,0-4.49,1.108-5.864,2.831C221.275,167.006,217.506,161.683,217.506,155.495z"/>
	<path d="M232.5,45.154c-103.303,0-187.346,84.043-187.346,187.346S129.197,419.846,232.5,419.846S419.846,335.803,419.846,232.5
		S335.803,45.154,232.5,45.154z M232.5,404.846c-95.032,0-172.346-77.314-172.346-172.346S137.468,60.154,232.5,60.154
		S404.846,137.468,404.846,232.5S327.532,404.846,232.5,404.846z"/>
	<path d="M382.719,240.038c-4.122-0.411-7.796,2.597-8.208,6.718c-7.292,73.024-68.183,128.091-141.639,128.091
		c-78.489,0-142.346-63.856-142.346-142.346S154.383,90.154,232.872,90.154c73.456,0,134.347,55.067,141.639,128.091
		c0.412,4.122,4.087,7.126,8.208,6.718c4.122-0.412,7.129-4.086,6.718-8.208c-3.853-38.583-21.861-74.302-50.708-100.576
		c-29.046-26.456-66.64-41.025-105.856-41.025c-86.761,0-157.346,70.585-157.346,157.346s70.585,157.346,157.346,157.346
		c39.217,0,76.811-14.569,105.856-41.025c28.847-26.274,46.855-61.992,50.708-100.576
		C389.848,244.124,386.841,240.449,382.719,240.038z"/>
</g>
<g>
</g>
<g>
</g>
<g>
</g>
<g>
</g>
<g>
</g>
<g>
</g>
<g>
</g>
<g>
</g>
<g>
</g>
<g>
</g>
<g>
</g>
<g>
</g>
<g>
</g>
<g>
</g>
<g>
</g>
</svg>
