<?xml version="1.0" encoding="iso-8859-1"?>
<!-- Generator: Adobe Illustrator 17.1.0, SVG Export Plug-In . SVG Version: 6.00 Build 0)  -->
<!DOCTYPE svg PUBLIC "-//W3C//DTD SVG 1.1//EN" "http://www.w3.org/Graphics/SVG/1.1/DTD/svg11.dtd">
<svg version="1.1" id="Capa_1" xmlns="http://www.w3.org/2000/svg" xmlns:xlink="http://www.w3.org/1999/xlink" x="0px" y="0px"
	 viewBox="0 0 465 465" style="enable-background:new 0 0 465 465;" xml:space="preserve">
<g>
	<path d="M457.5,163.359h-2.282V92.598c0-9.53-7.753-17.283-17.283-17.283h-28.815c-1.34-7.753-8.096-13.674-16.226-13.674h-53.75
		c-8.129,0-14.886,5.921-16.226,13.674H165.541c-4.142,0-7.5,3.358-7.5,7.5v41.413h-14.348v-22.02c0-4.142-3.358-7.5-7.5-7.5H36.848
		c-4.142,0-7.5,3.358-7.5,7.5v22.02h-2.282c-9.53,0-17.283,7.753-17.283,17.283v21.848H7.5c-4.142,0-7.5,3.358-7.5,7.5
		s3.358,7.5,7.5,7.5h2.283v207.717c0,9.53,7.753,17.283,17.283,17.283h410.869c9.53,0,17.283-7.753,17.283-17.283V178.359h2.282
		c4.143,0,7.5-3.358,7.5-7.5S461.643,163.359,457.5,163.359z M337.66,78.125c0-0.818,0.665-1.484,1.483-1.484h53.75
		c0.818,0,1.483,0.666,1.483,1.484v53.75c0,0.818-0.665,1.484-1.483,1.484h-53.75c-0.818,0-1.483-0.666-1.483-1.484V78.125z
		 M44.348,109.708h84.346v14.52H44.348V109.708z M24.783,141.511c0-1.237,1.045-2.283,2.283-2.283h138.476
		c4.142,0,7.5-3.358,7.5-7.5V90.315H322.66v41.56c0,9.089,7.395,16.484,16.483,16.484h53.75c9.089,0,16.483-7.395,16.483-16.484
		v-41.56h28.558c1.237,0,2.283,1.045,2.283,2.283v70.761H24.783V141.511z M437.935,388.359H27.065c-1.237,0-2.283-1.045-2.283-2.283
		v-12.065h51.196c4.142,0,7.5-3.358,7.5-7.5s-3.358-7.5-7.5-7.5H24.783V178.359H207.73c-30.654,18.435-51.208,52.024-51.208,90.326
		c0,38.302,20.554,71.891,51.208,90.326H105.979c-4.142,0-7.5,3.358-7.5,7.5s3.358,7.5,7.5,7.5h334.239v12.065
		C440.218,387.313,439.172,388.359,437.935,388.359z M261.848,178.359c49.806,0,90.326,40.52,90.326,90.326
		c0,49.806-40.521,90.326-90.326,90.326s-90.326-40.52-90.326-90.326C171.522,218.879,212.042,178.359,261.848,178.359z
		 M440.218,359.011H315.966c30.655-18.436,51.208-52.024,51.208-90.326c0-38.302-20.554-71.89-51.208-90.326h124.252V359.011z"/>
	<path d="M389.021,287.598c-4.143,0-7.5,3.358-7.5,7.5s3.357,7.5,7.5,7.5c11.388,0,20.652-9.264,20.652-20.652v-26.522
		c0-11.388-9.265-20.652-20.652-20.652c-4.143,0-7.5,3.358-7.5,7.5s3.357,7.5,7.5,7.5c3.117,0,5.652,2.536,5.652,5.652v26.522
		C394.674,285.062,392.139,287.598,389.021,287.598z"/>
	<path d="M261.848,344.663c41.895,0,75.979-34.084,75.979-75.979s-34.084-75.978-75.979-75.978s-75.978,34.083-75.978,75.978
		S219.953,344.663,261.848,344.663z M261.848,207.707c33.624,0,60.979,27.354,60.979,60.978s-27.354,60.979-60.979,60.979
		c-33.624,0-60.978-27.355-60.978-60.979S228.224,207.707,261.848,207.707z"/>
	<path d="M261.848,314.663c25.353,0,45.979-20.626,45.979-45.979c0-4.142-3.357-7.5-7.5-7.5s-7.5,3.358-7.5,7.5
		c0,17.082-13.896,30.979-30.979,30.979c-4.143,0-7.5,3.358-7.5,7.5S257.705,314.663,261.848,314.663z"/>
</g>
<g>
</g>
<g>
</g>
<g>
</g>
<g>
</g>
<g>
</g>
<g>
</g>
<g>
</g>
<g>
</g>
<g>
</g>
<g>
</g>
<g>
</g>
<g>
</g>
<g>
</g>
<g>
</g>
<g>
</g>
</svg>
