<?xml version="1.0" encoding="iso-8859-1"?>
<!-- Generator: Adobe Illustrator 17.1.0, SVG Export Plug-In . SVG Version: 6.00 Build 0)  -->
<!DOCTYPE svg PUBLIC "-//W3C//DTD SVG 1.1//EN" "http://www.w3.org/Graphics/SVG/1.1/DTD/svg11.dtd">
<svg version="1.1" id="Capa_1" xmlns="http://www.w3.org/2000/svg" xmlns:xlink="http://www.w3.org/1999/xlink" x="0px" y="0px"
	 viewBox="0 0 465.103 465.103" style="enable-background:new 0 0 465.103 465.103;" xml:space="preserve">
<g>
	<path d="M200.569,336.058c-54.112-41.726-114.311-64.709-137.681-72.654c-3.044-1.034-6.407-0.015-8.364,2.535
		c-8.06,10.502-13.316,27.079-14.061,44.342c-0.616,14.289,1.473,35.811,14.925,57.2c15.345,24.398,45.51,41.552,73.796,42.133
		c0.799,0.117,1.505,0.124,2.004,0.124c0.512,0,1.011-0.052,1.495-0.15c34.716-1.12,52.934-30.965,69.978-64.165
		C204.313,342.205,203.433,338.267,200.569,336.058z M130.665,394.641c-23.83,0-49.563-14.453-62.579-35.147
		c-17.858-28.396-14.355-62.543-4.562-79.986c24.733,8.807,75.699,29.515,122.89,64.644
		C168.728,377.646,154.617,394.641,130.665,394.641z"/>
	<path d="M410.579,265.939c-1.957-2.55-5.32-3.567-8.364-2.535c-23.37,7.945-83.569,30.929-137.681,72.654
		c-2.864,2.209-3.744,6.147-2.092,9.365c17.044,33.201,35.262,63.046,69.979,64.165c0.483,0.098,0.982,0.15,1.494,0.15
		c0.5,0,1.206-0.007,2.006-0.124c28.286-0.582,58.449-17.736,73.794-42.133c13.452-21.389,15.541-42.911,14.925-57.2
		C423.895,293.018,418.638,276.441,410.579,265.939z M397.017,359.494c-13.016,20.694-38.749,35.147-62.579,35.147
		c-23.952,0-38.063-16.995-55.749-50.489c47.189-35.128,98.156-55.837,122.89-64.644
		C411.373,296.951,414.876,331.099,397.017,359.494z"/>
	<path d="M462.241,228.444c-0.032-0.268-0.078-0.537-0.141-0.805c-0.004-0.017-0.01-0.032-0.014-0.049
		c-0.054-0.225-0.115-0.449-0.191-0.672c-0.279-0.82-28.293-82.981-58.291-162.991c-8.987-23.975-31.918-38.127-55.778-34.413
		c-8.388,1.305-14.246,7.601-14.246,15.309c0,8.491,6.908,15.398,15.399,15.398c4.325,0,11.563,0,20.313,36.105
		c11.104,45.81,21.18,88.848,27.678,116.885c0.936,4.036,4.966,6.552,9,5.613c4.035-0.935,6.548-4.964,5.613-9
		c-6.506-28.071-16.595-71.162-27.713-117.032c-7.118-29.369-15.438-47.572-34.892-47.572c-0.185,0-0.34-0.125-0.386-0.306
		c0.197-0.158,0.688-0.448,1.539-0.581c16.758-2.606,32.962,7.615,39.427,24.857c24.483,65.302,47.642,132.042,55.399,154.578
		c-10.869,2.5-31.429,7.788-57.451,17.102c-35.329,12.645-87.67,35.417-136.394,72.092c-8.902,6.701-14.106,9.312-18.561,9.312
		s-9.658-2.611-18.561-9.312c-48.724-36.675-101.064-59.447-136.394-72.092c-26.022-9.314-46.583-14.601-57.451-17.102
		c7.756-22.535,30.913-89.269,55.399-154.578c6.465-17.242,22.678-27.459,39.427-24.857c0.854,0.133,1.347,0.425,1.541,0.583
		c-0.043,0.174-0.2,0.303-0.388,0.303c-19.454,0-27.773,18.203-34.892,47.572c-11.118,45.87-21.207,88.961-27.713,117.032
		c-0.935,4.035,1.578,8.064,5.613,9c4.036,0.939,8.064-1.578,9-5.613c6.498-28.038,16.574-71.075,27.678-116.885
		c8.75-36.105,15.988-36.105,20.313-36.105c8.491,0,15.399-6.908,15.399-15.398c0-7.708-5.858-14.004-14.246-15.309
		C93.427,25.799,70.488,39.951,61.5,63.927C31.502,143.937,3.488,226.098,3.209,226.919c-0.076,0.224-0.138,0.449-0.192,0.674
		c-0.004,0.016-0.01,0.031-0.013,0.046c-0.063,0.268-0.109,0.536-0.141,0.805c-4.534,35.907-3.678,68.25,2.547,96.133
		c5.592,25.048,15.51,46.625,29.479,64.13c29.003,36.343,66.441,45.025,86.177,46.965c3.407,0.335,6.785,0.505,10.037,0.505
		c44.869,0,65.091-31.321,79.855-54.191c7.9-12.237,14.724-22.806,21.594-22.806s13.695,10.569,21.598,22.808
		c14.768,22.868,34.991,54.186,79.851,54.189c0.002,0,0.003,0,0.005,0c3.249,0,6.625-0.17,10.033-0.505
		c19.735-1.94,57.174-10.622,86.177-46.965c13.97-17.505,23.888-39.082,29.479-64.13
		C465.919,296.694,466.775,264.35,462.241,228.444z M418.49,379.35c-25.564,32.035-58.539,39.685-75.919,41.394
		c-2.923,0.287-5.805,0.433-8.565,0.433c-0.002,0-0.003,0-0.005,0c-36.691-0.002-52.926-25.144-67.25-47.326
		c-10.281-15.921-19.16-29.671-34.199-29.671c-15.04,0-23.917,13.75-34.195,29.67c-14.322,22.184-30.555,47.327-67.254,47.327
		c-2.765,0-5.647-0.146-8.57-0.433c-17.38-1.709-50.354-9.359-75.919-41.394c-25.786-32.313-36.035-80.919-29.802-140.934
		c26.057,6.057,112.117,29.295,188.158,86.533c9.831,7.399,18.283,12.328,27.582,12.328s17.751-4.928,27.582-12.328
		c75.946-57.166,162.09-80.457,188.158-86.528C454.526,298.436,444.276,347.038,418.49,379.35z"/>
</g>
<g>
</g>
<g>
</g>
<g>
</g>
<g>
</g>
<g>
</g>
<g>
</g>
<g>
</g>
<g>
</g>
<g>
</g>
<g>
</g>
<g>
</g>
<g>
</g>
<g>
</g>
<g>
</g>
<g>
</g>
</svg>
