<?xml version="1.0" encoding="iso-8859-1"?>
<!-- Generator: Adobe Illustrator 17.1.0, SVG Export Plug-In . SVG Version: 6.00 Build 0)  -->
<!DOCTYPE svg PUBLIC "-//W3C//DTD SVG 1.1//EN" "http://www.w3.org/Graphics/SVG/1.1/DTD/svg11.dtd">
<svg version="1.1" id="Capa_1" xmlns="http://www.w3.org/2000/svg" xmlns:xlink="http://www.w3.org/1999/xlink" x="0px" y="0px"
	 viewBox="0 0 465 465" style="enable-background:new 0 0 465 465;" xml:space="preserve">
<path d="M404.776,108.472l-10-40c-0.835-3.339-3.835-5.681-7.276-5.681h-3.485l-9.111-56.485C374.318,2.672,371.181,0,367.5,0h-270
	c-3.681,0-6.818,2.672-7.404,6.306l-9.111,56.485H77.5c-3.441,0-6.441,2.342-7.276,5.681l-10,40
	c-0.561,2.241-0.057,4.614,1.364,6.435s3.602,2.885,5.912,2.885h13.776l2.097,35h-0.833c-4.142,0-7.5,3.357-7.5,7.5
	s3.358,7.5,7.5,7.5h1.732L98.182,400h-2.038c-4.142,0-7.5,3.357-7.5,7.5s3.358,7.5,7.5,7.5h2.936l2.573,42.948
	c0.237,3.961,3.519,7.052,7.487,7.052h246.719c3.968,0,7.249-3.091,7.486-7.052L365.919,415h2.937c4.143,0,7.5-3.357,7.5-7.5
	s-3.357-7.5-7.5-7.5h-2.038l13.911-232.209h1.732c4.143,0,7.5-3.357,7.5-7.5s-3.357-7.5-7.5-7.5h-0.834l2.097-35H397.5
	c2.31,0,4.49-1.064,5.911-2.885C404.833,113.086,405.336,110.713,404.776,108.472z M348.795,450h-232.59l-2.097-35h236.784
	L348.795,450z M351.79,400H113.209L99.298,167.791h266.404L351.79,400z M366.601,152.791H98.399l-2.097-35h272.395L366.601,152.791z
	 M77.106,102.791l6.25-25H127.5c4.142,0,7.5-3.357,7.5-7.5s-3.358-7.5-7.5-7.5H96.179L103.887,15h257.225l7.709,47.791H157.5
	c-4.142,0-7.5,3.357-7.5,7.5s3.358,7.5,7.5,7.5h224.145l6.25,25H77.106z"/>
<g>
</g>
<g>
</g>
<g>
</g>
<g>
</g>
<g>
</g>
<g>
</g>
<g>
</g>
<g>
</g>
<g>
</g>
<g>
</g>
<g>
</g>
<g>
</g>
<g>
</g>
<g>
</g>
<g>
</g>
</svg>
