<?xml version="1.0" encoding="iso-8859-1"?>
<!-- Generator: Adobe Illustrator 17.1.0, SVG Export Plug-In . SVG Version: 6.00 Build 0)  -->
<!DOCTYPE svg PUBLIC "-//W3C//DTD SVG 1.1//EN" "http://www.w3.org/Graphics/SVG/1.1/DTD/svg11.dtd">
<svg version="1.1" id="Capa_1" xmlns="http://www.w3.org/2000/svg" xmlns:xlink="http://www.w3.org/1999/xlink" x="0px" y="0px"
	 viewBox="0 0 465 465" style="enable-background:new 0 0 465 465;" xml:space="preserve">
<g>
	<path d="M179.028,313.022c-2.93-2.928-7.678-2.928-10.607,0c-2.929,2.93-2.929,7.678,0,10.607l19.908,19.908
		c1.465,1.464,3.385,2.196,5.304,2.196s3.839-0.732,5.304-2.196c2.929-2.93,2.929-7.678,0-10.607L179.028,313.022z"/>
	<path d="M271.367,345.734c1.919,0,3.839-0.732,5.304-2.196l19.908-19.908c2.929-2.93,2.929-7.678,0-10.607
		c-2.93-2.928-7.678-2.928-10.607,0l-19.908,19.908c-2.929,2.93-2.929,7.678,0,10.607
		C267.528,345.002,269.448,345.734,271.367,345.734z"/>
	<path d="M457.5,0c-4.143,0-7.5,3.357-7.5,7.5c0,23.868-16.748,43.885-39.106,48.951c4.929-15.447,7.6-31.892,7.6-48.951
		c0-4.143-3.357-7.5-7.5-7.5s-7.5,3.357-7.5,7.5c0,42.629-18.322,81.055-47.5,107.831c-36.95-1.523-66.544-32.046-66.544-69.363
		c0-4.143-3.357-7.5-7.5-7.5s-7.5,3.357-7.5,7.5c0,40,27.967,73.567,65.367,82.238c-23.544,16.18-52.031,25.666-82.694,25.666
		c-3.895,0-7.142,2.981-7.473,6.862l-2.166,25.382C242.548,185.378,237.54,185,232.5,185s-10.048,0.378-14.984,1.116l-2.166-25.382
		c-0.331-3.881-3.578-6.862-7.473-6.862c-30.664,0-59.15-9.486-82.694-25.666c37.4-8.671,65.367-42.239,65.367-82.238
		c0-4.143-3.357-7.5-7.5-7.5s-7.5,3.357-7.5,7.5c0,37.317-29.594,67.84-66.544,69.363C79.828,88.555,61.506,50.129,61.506,7.5
		c0-4.143-3.357-7.5-7.5-7.5s-7.5,3.357-7.5,7.5c0,17.059,2.671,33.504,7.6,48.951C31.748,51.385,15,31.368,15,7.5
		C15,3.357,11.643,0,7.5,0S0,3.357,0,7.5c0,34.26,26.567,62.414,60.179,64.99c9.368,21.206,23.177,40.025,40.236,55.283
		c0.458,0.535,0.987,1.005,1.576,1.394c26.741,23.303,61.202,37.961,98.987,39.56l1.769,20.736
		c-15.646,4.782-30.08,13.28-41.885,24.884l-79.914-21.413c-1.92-0.516-3.967-0.245-5.691,0.749
		c-1.723,0.994-2.979,2.633-3.494,4.554c-8.499,31.72,10.392,64.439,42.11,72.938c5.699,1.526,11.578,2.198,17.438,2
		c-0.634,4.621-0.953,9.291-0.953,13.968c0,35.039,17.396,66.875,46.705,85.802l13.399,58.551
		C194.762,450.283,213.227,465,232.5,465s37.738-14.717,42.037-33.505l13.4-58.551c29.31-18.927,46.705-50.763,46.705-85.802
		c0-4.677-0.319-9.347-0.953-13.968c0.678,0.023,1.355,0.035,2.033,0.035c0,0,0,0,0.001,0c5.182,0,10.364-0.685,15.404-2.035
		c31.719-8.499,50.609-41.219,42.11-72.938c-0.515-1.921-1.771-3.56-3.494-4.554c-1.724-0.995-3.771-1.263-5.691-0.749
		l-79.914,21.413c-11.805-11.604-26.239-20.102-41.885-24.884l1.769-20.736c37.784-1.599,72.246-16.257,98.987-39.56
		c0.589-0.389,1.119-0.859,1.576-1.394c17.059-15.258,30.868-34.077,40.236-55.283C438.433,69.914,465,41.76,465,7.5
		C465,3.357,461.643,0,457.5,0z M296.339,227.836c1.891,2.033,4.751,2.854,7.435,2.138l76.308-20.447
		c1.983,21.22-11.574,41.463-32.836,47.16c-6.937,1.857-14.231,2.012-21.209,0.451c-2.533-0.565-5.18,0.217-6.996,2.072
		s-2.544,4.518-1.924,7.039c1.677,6.813,2.526,13.843,2.526,20.894c0,30.814-15.774,58.729-42.196,74.67
		c-1.742,1.052-2.982,2.766-3.436,4.749l-14.096,61.588C257.205,439.993,244.65,450,232.5,450s-24.705-10.007-27.416-21.851
		l-14.095-61.588c-0.453-1.983-1.693-3.697-3.436-4.749c-26.422-15.941-42.196-43.855-42.196-74.67c0-7.051,0.85-14.08,2.526-20.894
		c0.62-2.521-0.107-5.184-1.924-7.039c-1.427-1.457-3.365-2.253-5.359-2.253c-0.545,0-1.093,0.06-1.637,0.181
		c-6.978,1.562-14.272,1.407-21.209-0.451c-21.262-5.697-34.819-25.94-32.836-47.16l76.308,20.447
		c2.684,0.722,5.543-0.104,7.435-2.138C185.104,210.146,208.372,200,232.5,200S279.896,210.146,296.339,227.836z"/>
</g>
<g>
</g>
<g>
</g>
<g>
</g>
<g>
</g>
<g>
</g>
<g>
</g>
<g>
</g>
<g>
</g>
<g>
</g>
<g>
</g>
<g>
</g>
<g>
</g>
<g>
</g>
<g>
</g>
<g>
</g>
</svg>
