<?xml version="1.0" encoding="iso-8859-1"?>
<!-- Generator: Adobe Illustrator 17.1.0, SVG Export Plug-In . SVG Version: 6.00 Build 0)  -->
<!DOCTYPE svg PUBLIC "-//W3C//DTD SVG 1.1//EN" "http://www.w3.org/Graphics/SVG/1.1/DTD/svg11.dtd">
<svg version="1.1" id="Capa_1" xmlns="http://www.w3.org/2000/svg" xmlns:xlink="http://www.w3.org/1999/xlink" x="0px" y="0px"
	 viewBox="0 0 464.989 464.989" style="enable-background:new 0 0 464.989 464.989;" xml:space="preserve">
<g>
	<path d="M464.933,151.443c-0.004-0.029-0.011-0.057-0.015-0.085c-0.037-0.262-0.089-0.521-0.153-0.778
		c-0.021-0.082-0.044-0.163-0.068-0.245c-0.064-0.225-0.139-0.446-0.224-0.665c-0.023-0.06-0.044-0.121-0.069-0.181
		c-0.118-0.281-0.252-0.557-0.405-0.824c-0.003-0.005-0.005-0.011-0.008-0.017l-75-129.903c-0.011-0.019-0.026-0.036-0.037-0.055
		c-0.155-0.263-0.323-0.518-0.51-0.762c-0.013-0.016-0.027-0.031-0.04-0.047c-0.17-0.217-0.354-0.424-0.549-0.624
		c-0.054-0.055-0.109-0.108-0.165-0.162c-0.164-0.158-0.337-0.308-0.518-0.453c-0.061-0.049-0.12-0.099-0.183-0.146
		c-0.236-0.177-0.481-0.345-0.743-0.496c-0.261-0.15-0.528-0.278-0.798-0.394c-0.075-0.032-0.153-0.06-0.229-0.089
		c-0.21-0.082-0.422-0.155-0.636-0.217c-0.078-0.023-0.156-0.045-0.235-0.066c-0.264-0.068-0.529-0.122-0.796-0.16
		c-0.026-0.004-0.051-0.01-0.078-0.014c-0.303-0.04-0.607-0.058-0.911-0.06c-0.023,0-0.045-0.004-0.067-0.004h-300
		c-0.023,0-0.045,0.004-0.068,0.005c-0.304,0.002-0.608,0.021-0.912,0.061c-0.023,0.003-0.045,0.009-0.068,0.012
		c-0.27,0.038-0.539,0.094-0.807,0.162c-0.077,0.02-0.152,0.042-0.228,0.064c-0.217,0.063-0.431,0.137-0.645,0.22
		c-0.074,0.029-0.149,0.055-0.223,0.087c-0.271,0.116-0.538,0.244-0.8,0.395c-0.262,0.151-0.507,0.319-0.744,0.496
		c-0.062,0.046-0.12,0.096-0.181,0.145c-0.182,0.145-0.356,0.297-0.522,0.456c-0.054,0.052-0.109,0.104-0.162,0.158
		c-0.197,0.201-0.384,0.41-0.555,0.63c-0.011,0.014-0.024,0.027-0.035,0.042c-0.188,0.245-0.357,0.501-0.512,0.765
		c-0.011,0.019-0.025,0.035-0.036,0.054l-75,129.903c-0.003,0.005-0.005,0.01-0.008,0.016c-0.154,0.268-0.288,0.544-0.407,0.827
		c-0.024,0.058-0.044,0.117-0.067,0.175c-0.086,0.221-0.162,0.445-0.227,0.672c-0.023,0.08-0.046,0.159-0.066,0.24
		c-0.065,0.26-0.118,0.522-0.155,0.786c-0.004,0.026-0.01,0.052-0.014,0.078c-0.037,0.289-0.053,0.579-0.056,0.871
		c-0.001,0.079,0.003,0.157,0.004,0.235c0.004,0.227,0.019,0.453,0.044,0.68c0.008,0.074,0.015,0.149,0.025,0.223
		c0.083,0.587,0.236,1.168,0.461,1.73c0.026,0.065,0.055,0.128,0.083,0.193c0.094,0.218,0.2,0.431,0.316,0.642
		c0.024,0.044,0.041,0.09,0.066,0.133c0.016,0.027,0.036,0.05,0.051,0.077c0.142,0.238,0.296,0.471,0.467,0.697
		c0.015,0.02,0.028,0.042,0.043,0.062c0.003,0.004,0.005,0.007,0.008,0.011l225,290.097c0.103,0.132,0.218,0.252,0.328,0.376
		c0.056,0.063,0.107,0.129,0.165,0.189c0.248,0.261,0.512,0.502,0.792,0.722c0.061,0.048,0.125,0.089,0.187,0.135
		c0.236,0.175,0.481,0.334,0.735,0.479c0.084,0.048,0.167,0.097,0.254,0.143c0.317,0.165,0.642,0.314,0.98,0.432
		c0.047,0.017,0.097,0.027,0.145,0.043c0.303,0.1,0.612,0.177,0.927,0.238c0.099,0.019,0.197,0.037,0.297,0.052
		c0.368,0.055,0.739,0.094,1.116,0.094c0.377,0,0.749-0.038,1.116-0.094c0.1-0.015,0.198-0.033,0.297-0.052
		c0.315-0.061,0.626-0.138,0.929-0.238c0.047-0.016,0.097-0.026,0.143-0.042c0.338-0.119,0.664-0.267,0.981-0.433
		c0.085-0.045,0.167-0.093,0.251-0.141c0.255-0.146,0.502-0.307,0.739-0.482c0.061-0.045,0.124-0.086,0.184-0.133
		c0.281-0.221,0.545-0.463,0.794-0.724c0.056-0.059,0.107-0.124,0.161-0.185c0.112-0.125,0.227-0.246,0.331-0.379l225-290.097
		c0.003-0.004,0.006-0.009,0.01-0.014c0.01-0.014,0.019-0.029,0.03-0.042c0.177-0.232,0.334-0.472,0.48-0.717
		c0.015-0.026,0.034-0.048,0.049-0.074c0.024-0.042,0.04-0.086,0.063-0.128c0.118-0.214,0.225-0.43,0.321-0.651
		c0.027-0.062,0.055-0.124,0.08-0.186c0.225-0.563,0.379-1.144,0.462-1.733c0.01-0.074,0.017-0.148,0.025-0.222
		c0.025-0.226,0.04-0.452,0.044-0.679c0.002-0.079,0.005-0.158,0.004-0.238C464.985,152.021,464.97,151.731,464.933,151.443z
		 M369.504,29.995l-62.01,107.404l-62.01-107.404H369.504z M294.504,144.898H170.485l62.01-107.403L294.504,144.898z M82.495,37.494
		l14.534,25.173c1.389,2.406,3.91,3.751,6.502,3.751c1.272,0,2.562-0.324,3.743-1.006c3.587-2.071,4.816-6.658,2.745-10.245
		L95.485,29.995h124.019c-14.188,24.575-47.821,82.828-62.01,107.403l-30.153-52.227c-2.071-3.587-6.658-4.815-10.245-2.745
		c-3.587,2.071-4.816,6.658-2.745,10.245l30.153,52.227H20.485L82.495,37.494z M248.861,409.156l41.095-158.953
		c1.036-4.01-1.374-8.102-5.385-9.139c-4.007-1.034-8.101,1.374-9.139,5.385l-42.937,166.082l-59.982-232.006
		c-1.037-4.011-5.13-6.417-9.139-5.385c-4.01,1.037-6.42,5.129-5.384,9.139l58.139,224.878L22.803,159.898h284.661
		c0.01,0,0.02,0.002,0.03,0.002c0.01,0,0.02-0.002,0.03-0.002h134.662L248.861,409.156z M320.485,144.898
		c14.189-24.577,47.823-82.832,62.009-107.403l62.01,107.403H320.485z"/>
	<path d="M301.616,175.136c-4.016-1.032-8.103,1.375-9.139,5.385l-9.289,35.929c-1.036,4.01,1.374,8.102,5.385,9.139
		c0.63,0.162,1.261,0.24,1.882,0.24c3.337,0,6.383-2.244,7.257-5.625L307,184.275C308.037,180.265,305.626,176.173,301.616,175.136z
		"/>
</g>
<g>
</g>
<g>
</g>
<g>
</g>
<g>
</g>
<g>
</g>
<g>
</g>
<g>
</g>
<g>
</g>
<g>
</g>
<g>
</g>
<g>
</g>
<g>
</g>
<g>
</g>
<g>
</g>
<g>
</g>
</svg>
