<?xml version="1.0" encoding="iso-8859-1"?>
<!-- Generator: Adobe Illustrator 17.1.0, SVG Export Plug-In . SVG Version: 6.00 Build 0)  -->
<!DOCTYPE svg PUBLIC "-//W3C//DTD SVG 1.1//EN" "http://www.w3.org/Graphics/SVG/1.1/DTD/svg11.dtd">
<svg version="1.1" id="Capa_1" xmlns="http://www.w3.org/2000/svg" xmlns:xlink="http://www.w3.org/1999/xlink" x="0px" y="0px"
	 viewBox="0 0 465.002 465.002" style="enable-background:new 0 0 465.002 465.002;" xml:space="preserve">
<g>
	<path d="M407.507,416.168c-7.398-73.929-57.513-137.593-90.674-179.721c-5.308-6.743-10.028-12.738-14.039-18.1
		c4.716-10.613,15.548-40.594,20.93-101.26l21.946,10.285c3.397,1.59,7.448,0.429,9.483-2.723l31.571-48.882
		c2.001-3.098,1.452-7.191-1.294-9.653L322.127,9.364c-0.942-0.845-2.083-1.437-3.315-1.722L286.64,0.196
		c-4-0.928-8.002,1.54-8.977,5.528c-0.041,0.169-1.159,4.647-3.361,11.54c-13.468,4.276-27.51,6.447-41.798,6.447
		c-14.291,0-28.335-2.172-41.804-6.449c-2.202-6.891-3.319-11.368-3.36-11.536c-0.973-3.992-4.979-6.461-8.978-5.531l-32.171,7.446
		c-1.233,0.285-2.374,0.877-3.315,1.722L79.572,66.113c-2.746,2.462-3.295,6.555-1.294,9.653l31.571,48.882
		c2.035,3.151,6.085,4.312,9.483,2.723l21.946-10.285c5.382,60.666,16.214,90.647,20.93,101.26
		c-4.011,5.361-8.73,11.356-14.039,18.1c-33.162,42.128-83.276,105.792-90.674,179.721c-0.249,2.484,0.756,4.93,2.679,6.522
		c1.847,1.53,46.436,37.538,149.608,42.305c2.63,0.119,5.122-1.141,6.582-3.325l16.137-24.149l16.137,24.149
		c1.396,2.088,3.738,3.333,6.235,3.333c0.115,0,0.231-0.002,0.347-0.008c103.172-4.767,147.761-40.774,149.608-42.305
		C406.751,421.097,407.756,418.652,407.507,416.168z M232.504,38.711c12.081,0,24.005-1.404,35.615-4.173
		c-7.448,18.709-19.283,41.86-35.617,54.372c-16.334-12.512-28.17-35.664-35.618-54.373
		C208.494,37.307,220.421,38.711,232.504,38.711z M258.745,449.795l-20.008-29.941c-1.392-2.083-3.731-3.333-6.236-3.333
		s-4.844,1.25-6.236,3.333l-20.008,29.941C126.219,445.333,84.193,420.994,72.9,413.4c8.46-67.831,55.627-127.749,87.056-167.676
		c5.596-7.109,10.539-13.392,14.773-19.08h68.828c4.142,0,7.5-3.358,7.5-7.5s-3.358-7.5-7.5-7.5h-67.894
		c-4.346-10.08-15.535-41.508-20.302-106.483c-0.181-2.461-1.561-4.676-3.69-5.923s-4.737-1.367-6.972-0.319l-25.802,12.091
		L94.353,73.007l57.099-51.187l23.271-5.386c5.478,18.672,22.537,68.313,53.787,87.956c2.439,1.534,5.543,1.534,7.982,0
		c31.25-19.643,48.309-69.283,53.787-87.956l23.271,5.386l57.099,51.187l-24.544,38.002l-25.802-12.091
		c-2.236-1.047-4.842-0.928-6.972,0.319s-3.51,3.462-3.69,5.923c-4.77,65.018-15.97,96.444-20.299,106.483h-15.784
		c-4.142,0-7.5,3.358-7.5,7.5v81.826c0,4.142,3.358,7.5,7.5,7.5s7.5-3.358,7.5-7.5v-74.326h9.215
		c4.235,5.688,9.177,11.971,14.773,19.08c31.429,39.927,78.596,99.843,87.056,167.674
		C380.779,421.011,338.755,445.334,258.745,449.795z"/>
	<path d="M232.501,151.559c-4.411,0-8,3.589-8,8s3.589,8,8,8s8-3.589,8-8S236.912,151.559,232.501,151.559z"/>
	<path d="M232.501,384.749c-4.411,0-8,3.589-8,8s3.589,8,8,8s8-3.589,8-8S236.912,384.749,232.501,384.749z"/>
	<path d="M232.501,353.989c-4.411,0-8,3.589-8,8s3.589,8,8,8s8-3.589,8-8S236.912,353.989,232.501,353.989z"/>
	<path d="M232.501,292.47c-4.411,0-8,3.589-8,8s3.589,8,8,8s8-3.589,8-8S236.912,292.47,232.501,292.47z"/>
	<path d="M232.501,120.799c-4.411,0-8,3.589-8,8c0,4.411,3.589,8,8,8s8-3.589,8-8C240.501,124.388,236.912,120.799,232.501,120.799z
		"/>
</g>
<g>
</g>
<g>
</g>
<g>
</g>
<g>
</g>
<g>
</g>
<g>
</g>
<g>
</g>
<g>
</g>
<g>
</g>
<g>
</g>
<g>
</g>
<g>
</g>
<g>
</g>
<g>
</g>
<g>
</g>
</svg>
