<?xml version="1.0" encoding="iso-8859-1"?>
<!-- Generator: Adobe Illustrator 17.1.0, SVG Export Plug-In . SVG Version: 6.00 Build 0)  -->
<!DOCTYPE svg PUBLIC "-//W3C//DTD SVG 1.1//EN" "http://www.w3.org/Graphics/SVG/1.1/DTD/svg11.dtd">
<svg version="1.1" id="Capa_1" xmlns="http://www.w3.org/2000/svg" xmlns:xlink="http://www.w3.org/1999/xlink" x="0px" y="0px"
	 viewBox="0 0 465 465" style="enable-background:new 0 0 465 465;" xml:space="preserve">
<path d="M457.5,88.562c4.142,0,7.5-3.358,7.5-7.5s-3.358-7.5-7.5-7.5h-42.935V54.641H457.5c4.142,0,7.5-3.358,7.5-7.5
	s-3.358-7.5-7.5-7.5h-44.044c-2.282-5.711-7.859-9.761-14.374-9.761H99.866c-21.742,0-39.431,17.689-39.431,39.431v131.258
	c0,21.742,17.688,39.431,39.431,39.431h265.269c13.471,0,24.431,10.959,24.431,24.431v141.258c0,5.043,0,14.431-24.431,14.431
	H137.366V279.914H353.16c10.738,0,19.474-8.736,19.474-19.474c0-4.142-3.358-7.5-7.5-7.5s-7.5,3.358-7.5,7.5
	c0,2.467-2.007,4.474-4.474,4.474H65.918c-6.515,0-12.093,4.051-14.374,9.761H7.5c-4.142,0-7.5,3.358-7.5,7.5s3.358,7.5,7.5,7.5
	h42.935v18.921H7.5c-4.142,0-7.5,3.358-7.5,7.5s3.358,7.5,7.5,7.5h42.935v18.921H7.5c-4.142,0-7.5,3.358-7.5,7.5s3.358,7.5,7.5,7.5
	h42.935v18.921H7.5c-4.142,0-7.5,3.358-7.5,7.5s3.358,7.5,7.5,7.5h42.935v18.921H7.5c-4.142,0-7.5,3.358-7.5,7.5s3.358,7.5,7.5,7.5
	h44.044c2.282,5.711,7.859,9.761,14.374,9.761h299.216c11.32,0,19.908-1.753,26.255-5.358c6.011-3.415,13.175-10.362,13.175-24.073
	V264.431c0-21.742-17.688-39.431-39.431-39.431H99.866c-13.471,0-24.431-10.959-24.431-24.431V69.311
	c0-13.471,10.959-24.431,24.431-24.431h227.769v22.131c0,4.142,3.358,7.5,7.5,7.5s7.5-3.358,7.5-7.5V44.88h56.448
	c0.248,0,0.483,0.235,0.483,0.483v139.241c0,0.248-0.235,0.482-0.483,0.482h-56.448V97.011c0-4.142-3.358-7.5-7.5-7.5
	s-7.5,3.358-7.5,7.5v88.075H111.84c-10.738,0-19.474,8.736-19.474,19.474c0,4.142,3.358,7.5,7.5,7.5s7.5-3.358,7.5-7.5
	c0-2.467,2.007-4.474,4.474-4.474h287.242c6.515,0,12.092-4.051,14.374-9.761H457.5c4.142,0,7.5-3.358,7.5-7.5s-3.358-7.5-7.5-7.5
	h-42.935v-18.921H457.5c4.142,0,7.5-3.358,7.5-7.5s-3.358-7.5-7.5-7.5h-42.935v-18.921H457.5c4.142,0,7.5-3.358,7.5-7.5
	s-3.358-7.5-7.5-7.5h-42.935V88.562H457.5z M65.435,419.637V280.396c0-0.248,0.235-0.482,0.483-0.482h56.448V420.12H65.918
	C65.67,420.12,65.435,419.885,65.435,419.637z"/>
<g>
</g>
<g>
</g>
<g>
</g>
<g>
</g>
<g>
</g>
<g>
</g>
<g>
</g>
<g>
</g>
<g>
</g>
<g>
</g>
<g>
</g>
<g>
</g>
<g>
</g>
<g>
</g>
<g>
</g>
</svg>
