<?xml version="1.0" encoding="iso-8859-1"?>
<!-- Generator: Adobe Illustrator 17.1.0, SVG Export Plug-In . SVG Version: 6.00 Build 0)  -->
<!DOCTYPE svg PUBLIC "-//W3C//DTD SVG 1.1//EN" "http://www.w3.org/Graphics/SVG/1.1/DTD/svg11.dtd">
<svg version="1.1" id="Capa_1" xmlns="http://www.w3.org/2000/svg" xmlns:xlink="http://www.w3.org/1999/xlink" x="0px" y="0px"
	 viewBox="0 0 465 465" style="enable-background:new 0 0 465 465;" xml:space="preserve">
<path d="M464.997,285.169c-0.001-0.149-0.012-0.299-0.023-0.449c-0.007-0.11-0.012-0.221-0.024-0.33
	c-0.013-0.11-0.033-0.219-0.05-0.329c-0.023-0.148-0.046-0.295-0.078-0.44c-0.005-0.021-0.006-0.042-0.011-0.063
	c-0.291-1.269-29.295-127.941-50.996-216.671c-6.283-25.691-29.541-41.799-54.096-37.47c-4.08,0.72-6.803,4.609-6.084,8.688
	c0.719,4.08,4.611,6.804,8.688,6.084c16.669-2.942,32.541,8.351,36.921,26.261c18.283,74.755,41.764,176.509,48.839,207.281h-92.085
	c-18.943,0-82.073,2.408-101.162,33.267c-6.519-4.405-14.242-6.825-22.336-6.825c-8.094,0-15.817,2.42-22.336,6.825
	c-6.553-10.593-18.292-17.835-31.656-22.776c-0.367-0.167-0.744-0.304-1.128-0.408c-17.42-6.232-37.386-8.661-52.156-9.57
	c-0.413-0.058-0.829-0.084-1.245-0.074c-6.183-0.352-11.379-0.439-14.977-0.439H16.917c7.075-30.772,30.556-132.526,48.839-207.281
	c4.38-17.911,20.249-29.202,36.921-26.261c4.078,0.719,7.969-2.004,8.688-6.084c0.719-4.079-2.004-7.969-6.084-8.688
	c-24.557-4.329-47.813,11.778-54.096,37.47C29.484,155.617,0.479,282.289,0.189,283.558c-0.005,0.021-0.006,0.042-0.011,0.063
	c-0.032,0.145-0.054,0.292-0.078,0.44c-0.017,0.11-0.038,0.22-0.05,0.329c-0.012,0.109-0.017,0.22-0.024,0.33
	c-0.01,0.15-0.021,0.3-0.023,0.449c0,0.021-0.003,0.041-0.003,0.062v32.551c0,3.008,1.797,5.725,4.565,6.902l21.469,9.128
	c-1.238,15.531,0.747,32.958,5.656,48.234c4.81,14.966,12.087,27.034,21.065,35.252c0.065,0.07,0.123,0.143,0.191,0.211
	c0.287,0.287,0.596,0.538,0.915,0.769c3.506,3.039,7.251,5.521,11.21,7.348c14.026,6.474,37.899,10.658,60.821,10.658
	c16.651,0,39.383-2.18,53.124-12.567c12.918-9.767,24.152-33.988,29.846-51.763c2.994-9.345,8.323-29.082,6.258-45.733
	c4.643-4.509,10.819-7.049,17.379-7.049c6.56,0,12.736,2.54,17.379,7.049c-2.066,16.651,3.264,36.388,6.258,45.733
	c5.694,17.775,16.928,41.997,29.846,51.763c13.74,10.387,36.473,12.567,53.124,12.567c22.921,0,46.795-4.184,60.821-10.658
	c14.672-6.773,26.527-22.25,33.382-43.581c4.909-15.276,6.894-32.703,5.656-48.234l21.469-9.128
	c2.768-1.177,4.565-3.894,4.565-6.902v-32.551C465,285.21,464.997,285.19,464.997,285.169z M15,292.731h28.667
	c-8.999,7.44-13.056,16.997-15.224,25.806L15,312.821V292.731z M194.579,367.378c-6.415,20.023-16.533,38.27-24.607,44.374
	c-8.014,6.059-24.08,9.533-44.078,9.533c-20.598,0-42.513-3.728-54.534-9.277c-0.516-0.238-1.019-0.511-1.524-0.78l23.156-23.156
	c2.929-2.929,2.929-7.678,0-10.606c-2.929-2.929-7.678-2.929-10.606,0l-24.017,24.017c-14.372-17.568-20.682-49.436-16.467-73.98
	c3.445-20.054,10.153-34.337,64.581-34.761l-38.534,38.534c-2.929,2.929-2.929,7.678,0,10.606c1.464,1.464,3.384,2.197,5.303,2.197
	s3.839-0.732,5.303-2.197l48.536-48.536c12.645,0.87,24.194,2.654,34.197,5.217l-57.69,57.69c-2.929,2.929-2.929,7.678,0,10.606
	c1.464,1.464,3.384,2.197,5.303,2.197s3.839-0.732,5.303-2.197l63.008-63.008c9.669,4.133,16.707,9.277,20.301,15.201
	c0.913,1.505,1.622,3.346,2.135,5.47c0.051,0.606,0.175,1.204,0.371,1.782C201.758,336.04,199.88,350.831,194.579,367.378z
	 M393.64,412.008c-12.021,5.549-33.936,9.277-54.534,9.277c-17.457,0-31.915-2.649-40.638-7.352l25.862-25.862
	c2.929-2.929,2.929-7.678,0-10.606c-2.929-2.929-7.678-2.929-10.606,0l-26.122,26.122c-6.223-8.716-12.632-22.013-17.18-36.209
	c-5.301-16.547-7.18-31.338-5.442-41.073c0.196-0.578,0.32-1.177,0.371-1.782c0.513-2.124,1.222-3.965,2.135-5.47
	c8.27-13.631,34.747-23.144,69.68-25.656l-37.879,37.879c-2.929,2.929-2.929,7.678,0,10.606c1.464,1.464,3.384,2.197,5.303,2.197
	s3.839-0.732,5.303-2.197l49.135-49.135c15.463,0.146,27.044,1.421,35.777,3.637l-59.869,59.869c-2.929,2.929-2.929,7.678,0,10.606
	c1.464,1.465,3.384,2.197,5.303,2.197c1.919,0,3.839-0.732,5.303-2.197l64.212-64.212c9.047,6.138,11.61,14.766,13.343,24.855
	C428.425,358.515,416.959,401.244,393.64,412.008z M450,312.821l-13.443,5.716c-2.169-8.809-6.226-18.365-15.224-25.806H450V312.821
	z"/>
<g>
</g>
<g>
</g>
<g>
</g>
<g>
</g>
<g>
</g>
<g>
</g>
<g>
</g>
<g>
</g>
<g>
</g>
<g>
</g>
<g>
</g>
<g>
</g>
<g>
</g>
<g>
</g>
<g>
</g>
</svg>
