<?xml version="1.0" encoding="iso-8859-1"?>
<!-- Generator: Adobe Illustrator 17.1.0, SVG Export Plug-In . SVG Version: 6.00 Build 0)  -->
<!DOCTYPE svg PUBLIC "-//W3C//DTD SVG 1.1//EN" "http://www.w3.org/Graphics/SVG/1.1/DTD/svg11.dtd">
<svg version="1.1" id="Capa_1" xmlns="http://www.w3.org/2000/svg" xmlns:xlink="http://www.w3.org/1999/xlink" x="0px" y="0px"
	 viewBox="0 0 464.963 464.963" style="enable-background:new 0 0 464.963 464.963;" xml:space="preserve">
<g>
	<path d="M449.125,327.516c-3.758-1.745-8.217-0.112-9.96,3.646c-7.5,16.159-25.034,29.584-46.809,36.615
		c-7.476-3.476-18.044-11.801-29.184-20.586c-17.055-13.449-38.28-30.187-60.834-39.734c-25.594-10.834-49.071-10.582-69.855,0.737
		c-20.786-11.318-44.262-11.571-69.855-0.737c-22.554,9.548-43.779,26.285-60.834,39.734c-11.14,8.785-21.708,17.11-29.184,20.586
		c-21.775-7.031-39.31-20.456-46.809-36.615c-1.745-3.757-6.205-5.392-9.96-3.646c-3.757,1.743-5.39,6.203-3.646,9.96
		c9.473,20.411,31.354,37.137,58.062,45.255c0.36,0.14,0.73,0.252,1.109,0.336c5.241,1.538,10.659,2.751,16.203,3.59
		c23.582,3.568,48.73,0.536,72.723-8.771c25.604-9.934,49.86-26.74,72.192-50.009c22.333,23.269,46.588,40.075,72.192,50.009
		c17.463,6.774,35.537,10.225,53.174,10.225c6.596,0,13.13-0.482,19.549-1.454c5.616-0.85,11.101-2.084,16.404-3.651
		c0.253-0.063,0.502-0.137,0.746-0.226c26.781-8.099,48.732-24.852,58.224-45.304C454.515,333.719,452.882,329.259,449.125,327.516z
		 M93.643,372.336c5.42-3.894,11.237-8.478,17.437-13.367c17.201-13.564,36.697-28.938,57.393-37.699
		c19.3-8.171,36.338-8.96,51.796-2.348C169.313,371.231,120.725,375.481,93.643,372.336z M244.694,318.922
		c15.458-6.61,32.495-5.821,51.796,2.347c20.696,8.762,40.192,24.135,57.393,37.699c6.2,4.889,12.017,9.473,17.437,13.367
		C344.236,375.48,295.649,371.231,244.694,318.922z"/>
	<path d="M36.263,252.602c0.018,0.018,0.038,0.033,0.056,0.05c7.303,7.161,15.714,13.159,25.238,17.409
		c11.404,5.09,23.273,7.67,35.279,7.67c29.75,0,59.837-15.995,82.545-43.884c10.692-13.131,18.63-27.581,23.367-41.889
		c2.904-1.034,4.988-3.8,4.988-7.06v-18.616c0.026-0.553,0.04-1.102,0.055-1.651c6.386-6.857,15.247-10.743,24.691-10.743
		s18.305,3.886,24.691,10.743c0.015,0.549,0.028,1.098,0.055,1.651v18.616c0,3.26,2.083,6.026,4.988,7.06
		c4.738,14.308,12.676,28.758,23.367,41.889c22.708,27.889,52.794,43.884,82.545,43.884h0c12.005,0,23.875-2.58,35.279-7.67
		c46.82-20.895,66.742-84.009,60.414-120.06c-3.175-18.083-11.452-32.566-24.602-43.05c-0.192-0.153-0.398-0.294-0.592-0.445
		c-0.241-0.205-0.49-0.395-0.75-0.564c-12.662-9.593-29.484-15.412-50.191-17.351c-0.131-0.017-0.262-0.032-0.393-0.042
		c-2.712-0.247-5.506-0.412-8.35-0.527v-3.67c0-4.143-3.358-7.5-7.5-7.5H93.521c-4.142,0-7.5,3.357-7.5,7.5v3.67
		c-25.513,1.028-45.778,7.371-60.276,18.929c-13.15,10.483-21.427,24.967-24.602,43.05c-5.035,28.681,6.546,74.488,35.066,102.541
		C36.228,252.561,36.244,252.583,36.263,252.602z M307.829,174.919c1.464,1.464,3.384,2.196,5.303,2.196
		c1.919,0,3.839-0.732,5.303-2.196l71.066-71.065c12.841,1.497,23.675,4.694,32.472,9.58L344.106,191.3
		c-2.929,2.93-2.929,7.678,0,10.607c1.464,1.464,3.384,2.196,5.303,2.196s3.839-0.732,5.303-2.196l79.415-79.415
		c7.77,7.758,12.757,17.798,14.917,30.103c5.355,30.503-12.143,86.092-51.752,103.769c-9.468,4.225-19.28,6.367-29.166,6.367
		c-18.333,0-36.995-7.394-53.445-20.792L333.5,223.12c2.929-2.93,2.929-7.678,0-10.607c-2.929-2.928-7.678-2.928-10.606,0
		l-19.21,19.21c-2.217-2.333-4.378-4.779-6.469-7.347c-15.039-18.47-24.077-40.243-24.987-58.854v-3.611
		c0-0.246-0.038-0.488-0.062-0.731c0.069-3.229,0.394-6.345,1.006-9.302c3.636-17.569,12.494-29.384,27.874-37.181
		c15.353-7.782,37.701-11.648,68.223-11.824l-61.44,61.439C304.899,167.241,304.899,171.989,307.829,174.919z M322.912,91.853
		c-11.06,2.203-20.504,5.336-28.648,9.465c-18.868,9.564-30.416,24.44-35.289,45.396c-7.791-5.057-16.931-7.825-26.493-7.825
		s-18.703,2.768-26.493,7.825c-4.008-17.234-12.54-30.35-25.941-39.782c-0.075-0.052-0.149-0.105-0.225-0.154
		c-2.831-1.976-5.858-3.805-9.123-5.46c-8.144-4.128-17.588-7.262-28.648-9.465H322.912z M15.917,152.595
		c5.794-33.005,31.903-49.739,77.604-49.739c6.398,0,12.427,0.167,18.131,0.485L50.68,164.312c-2.929,2.93-2.929,7.678,0,10.607
		c1.464,1.464,3.384,2.196,5.303,2.196c1.919,0,3.839-0.732,5.303-2.196l69.703-69.702c13.224,1.923,24.052,5.03,32.687,9.365
		L86.958,191.3c-2.929,2.93-2.929,7.678,0,10.607c1.464,1.464,3.384,2.196,5.303,2.196s3.839-0.732,5.303-2.196l78.778-78.778
		c7.928,7.218,12.937,16.607,15.449,28.747c0.612,2.957,0.937,6.073,1.006,9.302c-0.024,0.243-0.062,0.485-0.062,0.731v3.611
		c-0.91,18.611-9.948,40.385-24.987,58.854c-19.847,24.375-45.694,38.354-70.913,38.354c-9.886,0-19.698-2.143-29.166-6.367
		c-5.489-2.45-10.538-5.648-15.175-9.387l23.857-23.857c2.929-2.93,2.929-7.678,0-10.607c-2.928-2.928-7.677-2.928-10.606,0
		l-24.009,24.008C20.64,211.999,11.926,175.332,15.917,152.595z"/>
</g>
<g>
</g>
<g>
</g>
<g>
</g>
<g>
</g>
<g>
</g>
<g>
</g>
<g>
</g>
<g>
</g>
<g>
</g>
<g>
</g>
<g>
</g>
<g>
</g>
<g>
</g>
<g>
</g>
<g>
</g>
</svg>
