<?xml version="1.0" encoding="iso-8859-1"?>
<!-- Generator: Adobe Illustrator 17.1.0, SVG Export Plug-In . SVG Version: 6.00 Build 0)  -->
<!DOCTYPE svg PUBLIC "-//W3C//DTD SVG 1.1//EN" "http://www.w3.org/Graphics/SVG/1.1/DTD/svg11.dtd">
<svg version="1.1" id="Capa_1" xmlns="http://www.w3.org/2000/svg" xmlns:xlink="http://www.w3.org/1999/xlink" x="0px" y="0px"
	 viewBox="0 0 465 465" style="enable-background:new 0 0 465 465;" xml:space="preserve">
<path d="M455.765,305.491c-5.785-25.24-34.797-151.542-55.202-234.975c-6.515-26.641-30.623-43.344-56.077-38.857
	c-4.08,0.72-6.803,4.609-6.084,8.688c0.719,4.08,4.61,6.805,8.688,6.084c17.566-3.1,34.29,8.788,38.902,27.648
	c19.329,79.035,46.403,196.631,54.076,230.07h-6.286c-4.227-10.387-10.245-19.861-17.679-28.028
	c-0.203-0.266-0.418-0.526-0.661-0.769c-0.11-0.11-0.228-0.208-0.344-0.311c-11.191-11.919-25.431-20.938-41.464-25.802
	c-0.192-0.066-0.386-0.124-0.582-0.173c-8.495-2.517-17.484-3.875-26.784-3.875H118.732c-39.53,0-73.46,24.417-87.515,58.958h-6.286
	c7.673-33.439,34.746-151.035,54.076-230.07c4.612-18.86,21.336-30.745,38.902-27.648c4.075,0.718,7.969-2.004,8.688-6.084
	c0.719-4.079-2.004-7.969-6.084-8.688c-25.453-4.486-49.562,12.216-56.077,38.857C44.032,153.949,15.019,280.251,9.235,305.491
	C3.802,307.908,0,313.348,0,319.668v11.943c0,8.557,6.961,15.519,15.519,15.519h9.073c1.903,24.108,12.901,45.695,29.552,61.33
	c0.102,0.115,0.2,0.233,0.311,0.344c0.243,0.243,0.503,0.458,0.768,0.661c16.785,15.278,39.078,24.604,63.509,24.604
	c39.609,0,73.595-24.513,87.599-59.164c3.832-0.335,6.84-3.547,6.84-7.467v-24.339c5.407-4.115,12.159-6.353,19.329-6.353
	s13.922,2.239,19.329,6.353v24.339c0,3.919,3.007,7.132,6.84,7.467c5.179,12.815,13.09,24.241,23.01,33.555
	c0.102,0.115,0.2,0.233,0.311,0.344c0.243,0.243,0.503,0.458,0.768,0.661c16.785,15.278,39.078,24.604,63.509,24.604
	c49.549,0,90.306-38.358,94.141-86.938h9.073c8.557,0,15.519-6.961,15.519-15.519v-11.943
	C465,313.348,461.198,307.908,455.765,305.491z M24.592,332.129h-9.073c-0.286,0-0.519-0.232-0.519-0.519v-11.943
	c0-0.285,0.23-0.516,0.514-0.518c0.004,0,0.007,0.001,0.011,0.001c0.006,0,0.011-0.001,0.017-0.001h10.995
	C25.599,323.378,24.94,327.71,24.592,332.129z M118.732,419.068c-17.957,0-34.535-5.996-47.855-16.082l22.747-22.747
	c2.929-2.929,2.929-7.678,0-10.606c-2.929-2.929-7.678-2.929-10.606,0l-23.211,23.211c-12.741-14.095-20.514-32.763-20.514-53.214
	c0-43.803,35.636-79.438,79.438-79.438c3.331,0,6.608,0.23,9.832,0.63l-60.611,60.611c-2.929,2.929-2.929,7.678,0,10.606
	c1.464,1.464,3.384,2.197,5.303,2.197s3.839-0.732,5.303-2.197l67.131-67.131c9.785,3.541,18.681,8.949,26.256,15.796
	l-67.716,67.716c-2.929,2.929-2.929,7.678,0,10.606c1.464,1.464,3.384,2.197,5.303,2.197s3.839-0.732,5.303-2.197l67.252-67.251
	c10.085,13.319,16.081,29.898,16.081,47.854C198.171,383.432,162.535,419.068,118.732,419.068z M252.783,326.239
	c-6.214-2.931-13.116-4.493-20.283-4.493s-14.069,1.562-20.283,4.493c-2.729-19.143-11.214-36.456-23.649-50.118
	c-0.203-0.266-0.418-0.526-0.661-0.769c-0.11-0.11-0.228-0.208-0.344-0.311c-5.299-5.643-11.279-10.64-17.812-14.85h125.498
	C272.712,274.716,256.729,298.563,252.783,326.239z M346.268,419.068c-17.957,0-34.535-5.996-47.855-16.082l22.747-22.747
	c2.929-2.929,2.929-7.678,0-10.606c-2.929-2.929-7.678-2.929-10.606,0l-23.211,23.211c-12.741-14.095-20.514-32.763-20.514-53.214
	c0-43.803,35.636-79.438,79.438-79.438c3.331,0,6.608,0.23,9.832,0.63l-60.611,60.611c-2.929,2.929-2.929,7.678,0,10.606
	c1.464,1.464,3.384,2.197,5.303,2.197s3.839-0.732,5.303-2.197l67.131-67.131c9.785,3.541,18.681,8.949,26.256,15.796
	l-67.716,67.716c-2.929,2.929-2.929,7.678,0,10.606c1.464,1.464,3.384,2.197,5.303,2.197s3.839-0.732,5.303-2.197l67.252-67.251
	c10.085,13.319,16.081,29.898,16.081,47.854C425.706,383.432,390.07,419.068,346.268,419.068z M450,331.611
	c0,0.286-0.232,0.519-0.519,0.519h-9.073c-0.349-4.419-1.007-8.752-1.946-12.98h10.995c0.006,0,0.011,0.001,0.017,0.001
	c0.004,0,0.007-0.001,0.011-0.001c0.284,0.002,0.514,0.234,0.514,0.518V331.611z"/>
<g>
</g>
<g>
</g>
<g>
</g>
<g>
</g>
<g>
</g>
<g>
</g>
<g>
</g>
<g>
</g>
<g>
</g>
<g>
</g>
<g>
</g>
<g>
</g>
<g>
</g>
<g>
</g>
<g>
</g>
</svg>
