<?xml version="1.0" encoding="iso-8859-1"?>
<!-- Generator: Adobe Illustrator 17.1.0, SVG Export Plug-In . SVG Version: 6.00 Build 0)  -->
<!DOCTYPE svg PUBLIC "-//W3C//DTD SVG 1.1//EN" "http://www.w3.org/Graphics/SVG/1.1/DTD/svg11.dtd">
<svg version="1.1" id="Capa_1" xmlns="http://www.w3.org/2000/svg" xmlns:xlink="http://www.w3.org/1999/xlink" x="0px" y="0px"
	 viewBox="0 0 465.337 465.337" style="enable-background:new 0 0 465.337 465.337;" xml:space="preserve">
<g>
	<path d="M435.502,197.002C412.851,113.05,360.6,72.925,313.715,46.183c-0.08-0.046-0.158-0.094-0.24-0.137
		c-10.113-5.761-19.975-10.904-29.231-15.728c-19.091-9.951-35.578-18.544-46.566-28.402c-0.04-0.036-0.083-0.065-0.123-0.1
		c-0.089-0.077-0.18-0.15-0.273-0.222c-0.096-0.075-0.193-0.149-0.292-0.219c-0.093-0.066-0.188-0.129-0.284-0.19
		c-0.104-0.067-0.21-0.131-0.317-0.192c-0.098-0.056-0.197-0.11-0.298-0.162c-0.109-0.056-0.219-0.109-0.331-0.159
		c-0.104-0.047-0.209-0.093-0.315-0.135c-0.113-0.045-0.227-0.086-0.342-0.125c-0.109-0.037-0.217-0.074-0.328-0.107
		c-0.12-0.035-0.241-0.064-0.362-0.093c-0.108-0.026-0.215-0.053-0.324-0.074c-0.14-0.027-0.281-0.046-0.422-0.064
		c-0.094-0.013-0.186-0.029-0.281-0.038c-0.477-0.046-0.958-0.046-1.435,0c-0.095,0.009-0.187,0.025-0.281,0.038
		c-0.141,0.019-0.282,0.038-0.422,0.064c-0.11,0.021-0.217,0.048-0.324,0.074c-0.121,0.029-0.242,0.058-0.362,0.093
		c-0.111,0.032-0.219,0.069-0.328,0.107c-0.115,0.039-0.229,0.08-0.342,0.125c-0.106,0.042-0.211,0.088-0.315,0.135
		c-0.112,0.05-0.222,0.103-0.331,0.16c-0.101,0.052-0.2,0.105-0.298,0.162c-0.107,0.061-0.212,0.125-0.317,0.192
		c-0.096,0.062-0.191,0.125-0.284,0.19c-0.099,0.07-0.196,0.143-0.292,0.219c-0.093,0.072-0.184,0.146-0.273,0.222
		c-0.04,0.035-0.083,0.065-0.123,0.1c-10.988,9.858-27.476,18.452-46.566,28.402c-9.257,4.825-19.119,9.969-29.233,15.73
		c-0.079,0.041-0.155,0.088-0.232,0.132c-46.886,26.742-99.141,66.867-121.793,150.822C3.669,237.715-5.414,288.184,3.564,343.05
		c6.032,36.857,18.145,63.948,21.21,70.405l2.722,44.836c0.252,4.134,3.79,7.272,7.94,7.032c4.135-0.251,7.283-3.806,7.032-7.941
		l-2.812-46.319c-0.062-1.013-0.33-2.007-0.785-2.914c-0.142-0.282-14.21-28.626-20.577-67.969
		c-8.436-52.12-0.104-97.876,24.762-135.998c0.437-0.669,0.764-1.403,0.968-2.175C61.388,136.548,97.07,99.73,134.669,74.245
		c-11.93,25.054-18.833,52.044-20.55,80.578c-2.045,34.017,3.234,69.334,15.692,104.97c1.081,3.091,3.98,5.027,7.08,5.027
		c0.82,0,1.656-0.136,2.475-0.422c3.91-1.367,5.973-5.645,4.605-9.555c-24.905-71.24-18.937-140.974,16.743-196.595
		c9.3-5.238,18.487-10.029,27.313-14.629c13.953-7.273,26.573-13.856,37.142-20.949v70.145c0,4.142,3.357,7.5,7.5,7.5
		s7.5-3.358,7.5-7.5V22.671c10.569,7.093,23.189,13.676,37.142,20.949c8.83,4.602,18.022,9.396,27.327,14.637
		c27.342,42.581,37.268,91.384,29.482,145.095c-0.594,4.1,2.248,7.904,6.347,8.499c0.365,0.053,0.728,0.079,1.086,0.079
		c3.665,0,6.871-2.691,7.413-6.425c6.787-46.825,0.443-91.657-18.347-131.292c37.618,25.486,73.324,62.307,90.695,127.796
		c0.204,0.772,0.531,1.506,0.968,2.175c24.866,38.122,33.197,83.878,24.762,135.998c-6.367,39.343-20.436,67.688-20.574,67.964
		c-0.458,0.91-0.727,1.903-0.788,2.919l-2.812,46.319c-0.251,4.135,2.897,7.69,7.032,7.941c0.154,0.009,0.309,0.014,0.461,0.014
		c3.935,0,7.237-3.066,7.479-7.046l2.722-44.836c3.065-6.457,15.178-33.548,21.21-70.405
		C470.752,288.184,461.669,237.715,435.502,197.002z"/>
	<path d="M419.849,291.286c-6.459-21.948-15.191-38.097-20.026-46.06c4.43-4.255,8.772-8.672,12.98-13.298
		c2.787-3.064,2.563-7.808-0.501-10.595c-3.064-2.787-7.809-2.563-10.595,0.502c-50.913,55.974-120.492,83.021-169.039,89.762
		c-48.547-6.741-118.126-33.788-169.039-89.762c-2.786-3.064-7.528-3.289-10.595-0.502c-3.063,2.787-3.288,7.531-0.501,10.595
		c4.208,4.626,8.549,9.043,12.98,13.298c-4.835,7.964-13.567,24.112-20.026,46.06c-8.421,28.616-14.35,72.849,4.87,121.669v44.881
		c0,4.142,3.357,7.5,7.5,7.5s7.5-3.358,7.5-7.5v-46.319c0-0.96-0.185-1.911-0.543-2.801c-14.591-36.242-16.305-74.146-5.094-112.661
		c5.361-18.415,12.561-32.577,17.135-40.51c50.395,43.421,110.947,65.179,154.817,71.053c0.33,0.044,0.662,0.066,0.995,0.066
		s0.665-0.022,0.995-0.066c43.871-5.874,104.422-27.632,154.817-71.053c4.576,7.935,11.775,22.096,17.135,40.509
		c11.211,38.515,9.497,76.419-5.094,112.661c-0.358,0.891-0.543,1.841-0.543,2.801v46.319c0,4.142,3.357,7.5,7.5,7.5
		s7.5-3.358,7.5-7.5v-44.881C434.199,364.135,428.27,319.902,419.849,291.286z"/>
	<path d="M328.445,264.823c3.1,0,5.999-1.936,7.08-5.027c2.561-7.326,4.852-14.764,6.809-22.109
		c1.066-4.002-1.313-8.112-5.316-9.178c-3.997-1.066-8.111,1.313-9.178,5.316c-1.86,6.98-4.038,14.052-6.475,21.021
		c-1.366,3.91,0.695,8.188,4.605,9.555C326.789,264.688,327.624,264.823,328.445,264.823z"/>
	<path d="M240.169,289.166v-166.35c0-4.142-3.357-7.5-7.5-7.5s-7.5,3.358-7.5,7.5v166.35c0,4.142,3.357,7.5,7.5,7.5
		S240.169,293.308,240.169,289.166z"/>
</g>
<g>
</g>
<g>
</g>
<g>
</g>
<g>
</g>
<g>
</g>
<g>
</g>
<g>
</g>
<g>
</g>
<g>
</g>
<g>
</g>
<g>
</g>
<g>
</g>
<g>
</g>
<g>
</g>
<g>
</g>
</svg>
