<?xml version="1.0" encoding="iso-8859-1"?>
<!-- Generator: Adobe Illustrator 17.1.0, SVG Export Plug-In . SVG Version: 6.00 Build 0)  -->
<!DOCTYPE svg PUBLIC "-//W3C//DTD SVG 1.1//EN" "http://www.w3.org/Graphics/SVG/1.1/DTD/svg11.dtd">
<svg version="1.1" id="Capa_1" xmlns="http://www.w3.org/2000/svg" xmlns:xlink="http://www.w3.org/1999/xlink" x="0px" y="0px"
	 viewBox="0 0 465 465" style="enable-background:new 0 0 465 465;" xml:space="preserve">
<path d="M457.5,287.002h-53.059c-1.274-11.637-4.672-31.526-9.896-54.186c-0.785-3.404-3.815-5.815-7.308-5.815h-4.341
	c-5.583-22.915-14.291-53.505-25.944-79.25c-14.261-31.504-29.286-47.932-45.931-50.22c-14.062-1.937-31.757,1.75-48.87,5.313
	c-11.408,2.374-22.183,4.617-29.652,4.617s-18.244-2.243-29.652-4.617c-17.113-3.563-34.808-7.248-48.869-5.313
	c-16.646,2.288-31.67,18.716-45.931,50.22c-11.654,25.745-20.361,56.335-25.944,79.25h-4.34c-3.493,0-6.523,2.411-7.308,5.815
	c-5.224,22.658-8.621,42.547-9.896,54.186H7.5c-4.142,0-7.5,3.357-7.5,7.5c0,47.74,119.79,73.5,232.5,73.5s232.5-25.76,232.5-73.5
	C465,290.36,461.642,287.002,457.5,287.002z M156.021,112.391c11.496-1.575,28.642,1.99,43.77,5.138
	c12.186,2.537,23.696,4.933,32.709,4.933s20.523-2.396,32.708-4.933c15.128-3.148,32.275-6.717,43.77-5.138
	c19.322,2.657,41.469,46.283,58.472,114.61H97.549C114.552,158.674,136.699,115.048,156.021,112.391z M83.757,242.002h293.193
	c0.008,0,0.015,0.002,0.023,0.002c0.011,0,0.023-0.002,0.034-0.002h4.236c4.125,18.638,6.919,34.963,8.113,45.001H75.644
	C76.838,276.963,79.632,260.638,83.757,242.002z M389.488,333.974c-41.83,12.271-97.583,19.028-156.988,19.028
	s-115.158-6.758-156.988-19.028c-31.006-9.095-51.787-20.628-58.315-31.972h430.606
	C441.275,313.346,420.494,324.879,389.488,333.974z"/>
<g>
</g>
<g>
</g>
<g>
</g>
<g>
</g>
<g>
</g>
<g>
</g>
<g>
</g>
<g>
</g>
<g>
</g>
<g>
</g>
<g>
</g>
<g>
</g>
<g>
</g>
<g>
</g>
<g>
</g>
</svg>
