<?xml version="1.0" encoding="iso-8859-1"?>
<!-- Generator: Adobe Illustrator 17.1.0, SVG Export Plug-In . SVG Version: 6.00 Build 0)  -->
<!DOCTYPE svg PUBLIC "-//W3C//DTD SVG 1.1//EN" "http://www.w3.org/Graphics/SVG/1.1/DTD/svg11.dtd">
<svg version="1.1" id="Capa_1" xmlns="http://www.w3.org/2000/svg" xmlns:xlink="http://www.w3.org/1999/xlink" x="0px" y="0px"
	 viewBox="0 0 465 465" style="enable-background:new 0 0 465 465;" xml:space="preserve">
<path d="M431.167,166.733l10.564-6.916c1.664-1.09,2.828-2.796,3.234-4.743s0.022-3.976-1.066-5.64
	C397.02,77.819,317.991,35.063,232.5,35.063c-84.01,0-162.275,41.609-209.36,111.306c-2.318,3.432-1.416,8.094,2.017,10.413
	l10.463,7.069C12.297,200.881,0,243.488,0,287.563c0,41.271,10.962,81.817,31.701,117.258c0.778,1.331,1.949,2.39,3.352,3.032
	c11.06,5.061,23.059,7.628,35.104,7.628c4.849,0,9.704-0.425,14.51-1.263l0.737,2.749c2.046,7.636,9.003,12.969,16.918,12.969
	c1.521,0,3.04-0.2,4.515-0.596l28.978-7.765c4.505-1.206,8.275-4.104,10.616-8.159s2.965-8.77,1.758-13.273l-44.994-167.923
	c-2.046-7.636-9.004-12.969-16.919-12.969c-1.521,0-3.04,0.2-4.515,0.596l-28.977,7.764c-9.32,2.497-14.872,12.111-12.375,21.434
	l0.735,2.743c-9.163,3.357-17.66,8.277-25.107,14.492c3.248-33.44,14.137-65.497,32.017-94.028l10.248,6.923
	c1.647,1.113,3.669,1.526,5.624,1.148c1.953-0.378,3.676-1.517,4.789-3.165c36.844-54.536,98.072-87.095,163.786-87.095
	c66.874,0,128.699,33.455,165.382,89.493c1.439,2.199,3.837,3.394,6.282,3.394c1.409,0,2.834-0.396,4.101-1.226l10.348-6.774
	c16.881,27.837,27.197,58.962,30.347,91.324c-7.446-6.212-15.941-11.131-25.102-14.488l0.735-2.744
	c2.496-9.321-3.056-18.936-12.375-21.432l-28.978-7.765c-1.475-0.396-2.994-0.596-4.515-0.596c-7.915,0-14.873,5.333-16.919,12.969
	l-44.994,167.923c-1.207,4.504-0.583,9.218,1.758,13.273s6.111,6.953,10.615,8.159l28.979,7.765
	c1.474,0.396,2.993,0.596,4.514,0.596c0.001,0,0.001,0,0.001,0c7.915,0,14.872-5.333,16.918-12.969l0.737-2.749
	c4.805,0.837,9.66,1.263,14.51,1.263c12.045,0,24.046-2.567,35.104-7.628c1.402-0.643,2.573-1.701,3.352-3.032
	C454.038,369.381,465,328.834,465,287.563C465,244.692,453.321,203.082,431.167,166.733z M56.665,242.101l28.978-7.765
	c0.209-0.056,0.421-0.084,0.632-0.084c0.961,0,2.104,0.636,2.431,1.852l44.994,167.923c0.229,0.856-0.064,1.553-0.261,1.891
	c-0.195,0.339-0.65,0.941-1.507,1.171l-28.979,7.765c-0.209,0.056-0.421,0.084-0.632,0.084c-0.961,0-2.104-0.636-2.43-1.852
	l-2.586-9.65c-0.001-0.003-0.001-0.007-0.002-0.01s-0.002-0.006-0.003-0.01L57.485,254.821l-2.588-9.658
	C54.546,243.854,55.355,242.451,56.665,242.101z M45.047,266.358l35.717,133.298c-12.589,1.944-25.545,0.408-37.328-4.507
	c-18.392-32.259-28.197-68.912-28.426-106.25C22.755,278.767,33.189,270.965,45.047,266.358z M416.792,158.215
	c-0.003,0.002-0.006,0.003-0.009,0.005s-0.005,0.004-0.008,0.006l-10.559,6.912C366.333,108.594,301.948,75.063,232.5,75.063
	c-68.201,0-131.909,32.591-171.908,87.557l-10.455-7.064c-0.004-0.003-0.007-0.006-0.011-0.009s-0.008-0.005-0.012-0.007
	l-10.248-6.923C84.529,86.766,155.983,50.063,232.5,50.063c77.911,0,150.116,37.755,194.644,101.375L416.792,158.215z
	 M367.7,403.415c-0.001,0.003-0.002,0.007-0.003,0.01s-0.001,0.007-0.002,0.01l-2.586,9.65c-0.326,1.216-1.469,1.852-2.43,1.852
	c-0.211,0-0.423-0.028-0.632-0.084l-28.979-7.766c-0.855-0.229-1.311-0.831-1.506-1.17c-0.196-0.338-0.49-1.034-0.261-1.891
	l44.994-167.923c0.326-1.216,1.47-1.852,2.431-1.852c0.211,0,0.423,0.028,0.632,0.084l28.979,7.765
	c1.309,0.351,2.118,1.753,1.768,3.062l-2.585,9.647c-0.001,0.004-0.003,0.008-0.004,0.012s-0.001,0.009-0.003,0.013L367.7,403.415z
	 M421.563,395.149c-11.782,4.914-24.739,6.449-37.328,4.506l35.718-133.297c11.858,4.607,22.292,12.409,30.036,22.54
	C449.76,326.238,439.956,362.891,421.563,395.149z"/>
<g>
</g>
<g>
</g>
<g>
</g>
<g>
</g>
<g>
</g>
<g>
</g>
<g>
</g>
<g>
</g>
<g>
</g>
<g>
</g>
<g>
</g>
<g>
</g>
<g>
</g>
<g>
</g>
<g>
</g>
</svg>
