<?xml version="1.0" encoding="iso-8859-1"?>
<!-- Generator: Adobe Illustrator 17.1.0, SVG Export Plug-In . SVG Version: 6.00 Build 0)  -->
<!DOCTYPE svg PUBLIC "-//W3C//DTD SVG 1.1//EN" "http://www.w3.org/Graphics/SVG/1.1/DTD/svg11.dtd">
<svg version="1.1" id="Capa_1" xmlns="http://www.w3.org/2000/svg" xmlns:xlink="http://www.w3.org/1999/xlink" x="0px" y="0px"
	 viewBox="0 0 465 465" style="enable-background:new 0 0 465 465;" xml:space="preserve">
<g>
	<path d="M160.242,54.5c-4.411,0-8,3.589-8,8s3.589,8,8,8s8-3.589,8-8S164.653,54.5,160.242,54.5z"/>
	<path d="M222.742,62.5c0-17.92-14.58-32.5-32.5-32.5h-30c-17.92,0-32.5,14.58-32.5,32.5s14.58,32.5,32.5,32.5h30
		C208.163,95,222.742,80.42,222.742,62.5z M142.742,62.5c0-9.649,7.851-17.5,17.5-17.5h30c9.649,0,17.5,7.851,17.5,17.5
		s-7.851,17.5-17.5,17.5h-30C150.593,80,142.742,72.149,142.742,62.5z"/>
	<path d="M233.262,148.432c1.919,0,3.839-0.732,5.304-2.197l11.01-11.01c2.929-2.929,2.929-7.678,0-10.606
		c-2.93-2.929-7.678-2.929-10.607,0l-11.009,11.01c-2.929,2.929-2.929,7.678,0,10.606
		C229.423,147.7,231.342,148.432,233.262,148.432z"/>
	<path d="M254.758,150.224c-7.337,0-14.678,2.141-21.496,6.234c-6.819-4.094-14.162-6.235-21.499-6.235
		c-11.743,0-22.607,5.456-29.805,14.968c-8.305,10.975-10.613,25.965-6.332,41.125c7.731,27.378,24.734,45.069,43.317,45.069
		c4.918,0,9.716-1.236,14.318-3.681c4.602,2.445,9.398,3.68,14.316,3.681c0,0,0,0,0.001,0c14.136,0,27.511-10.239,36.693-28.09
		c0.991-1.925,1.101-4.185,0.302-6.197c-0.798-2.012-2.428-3.582-4.469-4.304c-5.081-1.798-8.495-6.616-8.495-11.99
		c0-6.897,5.615-12.603,12.518-12.719c2.34-0.04,4.527-1.168,5.914-3.053c1.388-1.885,1.815-4.309,1.157-6.554
		C286.248,161.579,271.604,150.224,254.758,150.224z M256.61,200.805c0,8.67,4.07,16.676,10.669,21.838
		c-5.879,8.716-12.97,13.743-19.701,13.743c-3.288,0-6.629-1.208-9.929-3.588c-2.619-1.89-6.155-1.89-8.775,0
		c-3.301,2.381-6.642,3.588-9.93,3.588c-11.328,0-23.204-14.041-28.881-34.146c-2.993-10.599-1.587-20.804,3.857-27.998
		c4.337-5.732,10.841-9.02,17.844-9.02c5.695,0,11.564,2.164,16.971,6.259c2.679,2.028,6.379,2.028,9.055,0
		c5.406-4.094,11.274-6.258,16.969-6.258c7.658,0,14.413,3.804,18.647,10.13C263.553,179.632,256.61,189.482,256.61,200.805z"/>
	<path d="M333.855,0H131.144c-18.418,0-33.402,14.984-33.402,33.402v398.196c0,18.418,14.984,33.402,33.402,33.402h202.711
		c18.418,0,33.402-14.984,33.402-33.402V33.402C367.258,14.984,352.273,0,333.855,0z M352.258,431.598
		c0,10.147-8.255,18.402-18.402,18.402H131.144c-10.147,0-18.402-8.255-18.402-18.402V33.402c0-10.147,8.255-18.402,18.402-18.402
		h202.711c10.147,0,18.402,8.255,18.402,18.402V431.598z"/>
</g>
<g>
</g>
<g>
</g>
<g>
</g>
<g>
</g>
<g>
</g>
<g>
</g>
<g>
</g>
<g>
</g>
<g>
</g>
<g>
</g>
<g>
</g>
<g>
</g>
<g>
</g>
<g>
</g>
<g>
</g>
</svg>
