<?xml version="1.0" encoding="iso-8859-1"?>
<!-- Generator: Adobe Illustrator 17.1.0, SVG Export Plug-In . SVG Version: 6.00 Build 0)  -->
<!DOCTYPE svg PUBLIC "-//W3C//DTD SVG 1.1//EN" "http://www.w3.org/Graphics/SVG/1.1/DTD/svg11.dtd">
<svg version="1.1" id="Capa_1" xmlns="http://www.w3.org/2000/svg" xmlns:xlink="http://www.w3.org/1999/xlink" x="0px" y="0px"
	 viewBox="0 0 465 465" style="enable-background:new 0 0 465 465;" xml:space="preserve">
<g>
	<path d="M339.295,3.608h-25.229C312.112,1.373,309.373,0,306.291,0h-27.509c-3.082,0-5.822,1.373-7.775,3.608H70.443
		c-4.142,0-7.5,3.358-7.5,7.5v386.808v55c0,4.142,3.358,7.5,7.5,7.5h199.804c1.965,2.805,5.027,4.584,8.535,4.584h27.509
		c3.508,0,6.569-1.779,8.535-4.584h14.47c34.607,0,62.762-28.155,62.762-62.761v-21.077c6.317-9.79,10-21.431,10-33.923V66.369
		C402.057,31.762,373.902,3.608,339.295,3.608z M387.057,66.369v207.485h-69.942V18.608h22.18
		C365.631,18.608,387.057,40.033,387.057,66.369z M387.057,342.655c0,26.335-21.426,47.761-47.762,47.761h-22.18V288.854h69.942
		V342.655z M302.115,281.344c0,0.003,0,0.006,0,0.01s0,0.006,0,0.01v109.053h-19.157V281.373c0-0.007,0.001-0.013,0.001-0.019
		s-0.001-0.013-0.001-0.019V15h19.157V281.344z M267.958,445.416H99.141c2.592-3.708,4.484-7.938,5.484-12.5h29.818
		c4.142,0,7.5-3.358,7.5-7.5s-3.358-7.5-7.5-7.5h-29.818c-1-4.562-2.892-8.792-5.484-12.5h168.816V445.416z M77.943,406.889
		c7.32,2.974,12.5,10.153,12.5,18.527s-5.18,15.553-12.5,18.527V406.889z M77.943,390.416V288.854h190.014v101.563H77.943z
		 M267.958,18.608v255.246H77.943V18.608H267.958z M282.958,405.416h19.157V450h-19.157V405.416z M329.295,445.416h-12.18v-40h22.18
		c10.193,0,19.817-2.458,28.336-6.788c-6.982,9.393-17.346,16.178-29.408,18.457c-4.07,0.769-6.747,4.692-5.978,8.762
		c0.68,3.6,3.827,6.109,7.361,6.109c0.461,0,0.93-0.043,1.4-0.132c12.938-2.444,24.395-8.83,33.16-17.804
		C367.472,432.319,349.885,445.416,329.295,445.416z"/>
	<path d="M164.444,432.916h81.014c4.142,0,7.5-3.358,7.5-7.5s-3.358-7.5-7.5-7.5h-81.014c-4.142,0-7.5,3.358-7.5,7.5
		S160.302,432.916,164.444,432.916z"/>
</g>
<g>
</g>
<g>
</g>
<g>
</g>
<g>
</g>
<g>
</g>
<g>
</g>
<g>
</g>
<g>
</g>
<g>
</g>
<g>
</g>
<g>
</g>
<g>
</g>
<g>
</g>
<g>
</g>
<g>
</g>
</svg>
