<?xml version="1.0" encoding="iso-8859-1"?>
<!-- Generator: Adobe Illustrator 17.1.0, SVG Export Plug-In . SVG Version: 6.00 Build 0)  -->
<!DOCTYPE svg PUBLIC "-//W3C//DTD SVG 1.1//EN" "http://www.w3.org/Graphics/SVG/1.1/DTD/svg11.dtd">
<svg version="1.1" id="Capa_1" xmlns="http://www.w3.org/2000/svg" xmlns:xlink="http://www.w3.org/1999/xlink" x="0px" y="0px"
	 viewBox="0 0 465 465" style="enable-background:new 0 0 465 465;" xml:space="preserve">
<path d="M463.392,243.728c-1.683-2.136-4.39-3.201-7.074-2.766c-6.741,1.075-13.344,1.621-19.626,1.621
	c-43.25,0-68.425-25.003-92.771-49.182c-20.001-19.863-38.893-38.625-65.339-38.625c-14.298,0-29.415,5.587-46.082,17.056
	c-16.667-11.469-31.784-17.056-46.082-17.056c-26.45,0-45.345,18.763-65.348,38.628c-24.346,24.177-49.52,49.176-92.763,49.179
	c-6.279,0-12.882-0.545-19.625-1.621c-2.686-0.433-5.392,0.63-7.074,2.766c-1.682,2.137-2.077,5.016-1.031,7.525
	c14.468,34.721,55.565,58.97,99.94,58.97c32.86,0,81.92-12.477,131.982-70.636c50.062,58.159,99.123,70.636,131.982,70.636
	c44.375,0,85.472-24.249,99.94-58.97C465.469,248.744,465.074,245.865,463.392,243.728z M364.482,295.223
	c-30.874,0-77.822-12.502-126.159-72.058c-1.424-1.755-3.563-2.773-5.823-2.773s-4.399,1.019-5.823,2.773
	c-48.337,59.556-95.286,72.058-126.159,72.058c-37.495,0-65.433-17.972-79.447-37.846c2.444,0.137,4.859,0.206,7.237,0.206
	c49.425-0.003,78.064-28.443,103.332-53.535c18.519-18.39,34.511-34.271,54.779-34.271c12.24,0,25.856,5.659,41.628,17.302
	c2.647,1.955,6.261,1.955,8.908,0c15.772-11.643,29.388-17.302,41.628-17.302c20.264,0,36.254,15.88,54.769,34.269
	c25.268,25.095,53.908,53.538,103.341,53.538c2.378,0,4.792-0.069,7.237-0.206C429.915,277.251,401.977,295.223,364.482,295.223z"/>
<g>
</g>
<g>
</g>
<g>
</g>
<g>
</g>
<g>
</g>
<g>
</g>
<g>
</g>
<g>
</g>
<g>
</g>
<g>
</g>
<g>
</g>
<g>
</g>
<g>
</g>
<g>
</g>
<g>
</g>
</svg>
