<?xml version="1.0" encoding="iso-8859-1"?>
<!-- Generator: Adobe Illustrator 17.1.0, SVG Export Plug-In . SVG Version: 6.00 Build 0)  -->
<!DOCTYPE svg PUBLIC "-//W3C//DTD SVG 1.1//EN" "http://www.w3.org/Graphics/SVG/1.1/DTD/svg11.dtd">
<svg version="1.1" id="Capa_1" xmlns="http://www.w3.org/2000/svg" xmlns:xlink="http://www.w3.org/1999/xlink" x="0px" y="0px"
	 viewBox="0 0 465.001 465.001" style="enable-background:new 0 0 465.001 465.001;" xml:space="preserve">
<g>
	<path d="M464.374,108.374c-0.322-0.736-8.188-18.355-35.083-45.252c-26.895-26.896-44.515-34.761-45.252-35.083
		c-2.833-1.234-6.134-0.608-8.315,1.582c-27.961,28.081-86.337,90.451-94.572,107.38c-15.522,31.909-13.784,65.072-12.608,76.262
		L68.536,413.27l-0.907-0.907c-2.929-2.928-7.678-2.928-10.606,0c-2.929,2.93-2.929,7.678,0,10.607l12.42,12.42
		c1.464,1.464,3.384,2.196,5.303,2.196s3.839-0.732,5.303-2.196c2.929-2.93,2.929-7.678,0-10.607l-0.906-0.906l200.013-200.013
		c3.23,0.333,8.292,0.712,14.626,0.713c0.001,0,0.002,0,0.004,0c15.629,0,39.006-2.311,61.627-13.314
		c16.929-8.235,79.299-66.611,107.379-94.572C464.983,114.509,465.611,111.207,464.374,108.374z M348.851,197.773
		c-20.054,9.755-41.013,11.803-55.065,11.803c0,0-0.003,0-0.004,0c-0.114,0-0.223-0.002-0.337-0.002l95.306-95.306
		c2.929-2.93,2.929-7.678,0-10.607c-2.929-2.928-7.678-2.928-10.606,0l-95.302,95.302c-0.032-13.943,1.94-35.137,11.797-55.401
		c6.18-12.703,55.343-66.473,87.795-99.401c6.298,3.726,19.049,12.369,36.249,29.569c17.042,17.042,25.776,29.92,29.552,36.266
		C415.306,142.447,361.553,191.594,348.851,197.773z"/>
	<path d="M171.219,224.576c6.333,0,11.396-0.379,14.626-0.712l20.139,20.139c1.464,1.464,3.384,2.196,5.303,2.196
		s3.839-0.732,5.303-2.196c2.929-2.93,2.929-7.678,0-10.607l-20.133-20.133c1.176-11.19,2.914-44.353-12.608-76.262
		c-8.235-16.929-66.611-79.299-94.572-107.38c-2.181-2.189-5.482-2.816-8.315-1.582c-0.737,0.322-18.357,8.187-45.252,35.083
		C8.814,90.019,0.949,107.638,0.627,108.374c-1.237,2.833-0.609,6.135,1.582,8.315c28.08,27.961,90.45,86.337,107.379,94.572
		C132.21,222.266,155.589,224.576,171.219,224.576z M46.317,73.73C63.36,56.686,76.238,47.953,82.583,44.178
		c32.453,32.93,81.599,86.683,87.778,99.384c9.815,20.177,11.792,41.404,11.773,55.377l-95.278-95.278
		c-2.929-2.928-7.678-2.928-10.606,0c-2.929,2.93-2.929,7.678,0,10.607l95.306,95.306c-0.113,0-0.222,0.002-0.337,0.002
		c-14.053,0-35.015-2.048-55.069-11.803c-12.704-6.181-66.474-55.344-99.402-87.796C20.473,103.68,29.117,90.929,46.317,73.73z"/>
	<path d="M397.371,412.363l-0.907,0.907L259.015,275.821c-2.929-2.928-7.678-2.928-10.606,0c-2.929,2.93-2.929,7.678,0,10.607
		l137.449,137.448l-0.906,0.906c-2.929,2.93-2.929,7.678,0,10.607c1.464,1.464,3.384,2.196,5.303,2.196s3.839-0.732,5.303-2.196
		l12.42-12.42c2.929-2.93,2.929-7.678,0-10.607C405.049,409.436,400.3,409.436,397.371,412.363z"/>
</g>
<g>
</g>
<g>
</g>
<g>
</g>
<g>
</g>
<g>
</g>
<g>
</g>
<g>
</g>
<g>
</g>
<g>
</g>
<g>
</g>
<g>
</g>
<g>
</g>
<g>
</g>
<g>
</g>
<g>
</g>
</svg>
