<?xml version="1.0" encoding="iso-8859-1"?>
<!-- Generator: Adobe Illustrator 17.1.0, SVG Export Plug-In . SVG Version: 6.00 Build 0)  -->
<!DOCTYPE svg PUBLIC "-//W3C//DTD SVG 1.1//EN" "http://www.w3.org/Graphics/SVG/1.1/DTD/svg11.dtd">
<svg version="1.1" id="Capa_1" xmlns="http://www.w3.org/2000/svg" xmlns:xlink="http://www.w3.org/1999/xlink" x="0px" y="0px"
	 viewBox="0 0 465 465" style="enable-background:new 0 0 465 465;" xml:space="preserve">
<path d="M409.069,324.738v-26.551c0-63.734-26.974-122.311-75.951-164.937c-19.11-16.632-40.815-30.208-63.918-40.3l30.911-25.757
	c0.006-0.005,0.012-0.01,0.018-0.015l0.021-0.017c0.041-0.034,0.075-0.072,0.115-0.106c0.143-0.124,0.284-0.25,0.417-0.385
	c0.081-0.082,0.153-0.168,0.23-0.253c0.086-0.096,0.175-0.19,0.257-0.29c0.083-0.102,0.158-0.209,0.235-0.314
	c0.066-0.091,0.135-0.179,0.197-0.273c0.072-0.108,0.136-0.22,0.202-0.332c0.059-0.1,0.12-0.198,0.175-0.301
	c0.055-0.104,0.103-0.212,0.153-0.318c0.055-0.116,0.11-0.231,0.159-0.35c0.04-0.098,0.073-0.199,0.109-0.299
	c0.047-0.131,0.095-0.261,0.135-0.395c0.029-0.096,0.05-0.194,0.075-0.292c0.035-0.139,0.072-0.276,0.1-0.418
	c0.021-0.11,0.034-0.22,0.051-0.331c0.019-0.13,0.042-0.258,0.054-0.39c0.015-0.159,0.019-0.318,0.024-0.477
	c0.002-0.08,0.012-0.158,0.012-0.239V39.015c0-4.142-3.357-7.5-7.5-7.5h-80.94c-4.143,0-7.5,3.358-7.5,7.5
	c0,13.89,9.525,25.596,22.386,28.931v11.427c-16.248-4.036-32.823-6.396-49.375-6.946V21.36c0-4.142-3.357-7.5-7.5-7.5h-28.555
	c-16.479,0-29.886,13.407-29.886,29.886c0,4.142,3.357,7.5,7.5,7.5s7.5-3.358,7.5-7.5c0-8.208,6.678-14.886,14.886-14.886h21.055
	v77.616C73.313,110.417,0,186.163,0,278.722C0,373.793,77.347,451.14,172.419,451.14s172.419-77.347,172.419-172.418
	c0-92.559-73.313-168.304-164.919-172.246V87.434c17.82,0.626,35.791,3.465,53.348,8.386c0.894,0.477,1.897,0.774,2.961,0.853
	c4.979,1.466,9.921,3.098,14.814,4.895c0.76,0.452,1.588,0.754,2.441,0.915c76.68,29.116,140.586,98.62,140.586,195.703v26.551
	c-31.451,3.724-55.93,30.535-55.93,62.972c0,34.976,28.454,63.43,63.43,63.43S465,422.686,465,387.71
	C465,355.273,440.521,328.462,409.069,324.738z M196.838,278.735c-0.007,13.458-10.958,24.406-24.419,24.406
	c-10.849,0-20.063-7.113-23.236-16.918h23.236c4.143,0,7.5-3.358,7.5-7.5v-23.236c9.802,3.172,16.913,12.38,16.919,23.223
	c0,0.004-0.001,0.009-0.001,0.013S196.838,278.73,196.838,278.735z M149.183,271.222c2.408-7.441,8.295-13.328,15.736-15.736v15.736
	H149.183z M329.838,278.722c0,86.801-70.618,157.418-157.419,157.418S15,365.522,15,278.722
	c0-84.287,66.588-153.308,149.919-157.236v118.542c-15.73,3.043-28.151,15.464-31.194,31.194h-22.193c-4.143,0-7.5,3.358-7.5,7.5
	s3.357,7.5,7.5,7.5h22.193c3.513,18.16,19.524,31.918,38.694,31.918s35.181-13.759,38.694-31.918h22.192c4.143,0,7.5-3.358,7.5-7.5
	s-3.357-7.5-7.5-7.5h-22.192c-3.043-15.73-15.464-28.151-31.194-31.194V121.485C263.25,125.414,329.838,194.435,329.838,278.722z
	 M223.939,46.515h63.909V53.9h-51.055C231.319,53.9,226.525,50.929,223.939,46.515z M244.294,68.9h30.338l-21.297,17.746
	c-2.996-1.074-6.012-2.084-9.042-3.042V68.9z M401.569,436.14c-26.704,0-48.43-21.726-48.43-48.43
	c0-24.154,17.775-44.232,40.93-47.847v47.847c0,4.142,3.357,7.5,7.5,7.5s7.5-3.358,7.5-7.5v-47.848
	C432.225,343.478,450,363.556,450,387.71C450,414.415,428.274,436.14,401.569,436.14z"/>
<g>
</g>
<g>
</g>
<g>
</g>
<g>
</g>
<g>
</g>
<g>
</g>
<g>
</g>
<g>
</g>
<g>
</g>
<g>
</g>
<g>
</g>
<g>
</g>
<g>
</g>
<g>
</g>
<g>
</g>
</svg>
