<?xml version="1.0" encoding="iso-8859-1"?>
<!-- Generator: Adobe Illustrator 17.1.0, SVG Export Plug-In . SVG Version: 6.00 Build 0)  -->
<!DOCTYPE svg PUBLIC "-//W3C//DTD SVG 1.1//EN" "http://www.w3.org/Graphics/SVG/1.1/DTD/svg11.dtd">
<svg version="1.1" id="Capa_1" xmlns="http://www.w3.org/2000/svg" xmlns:xlink="http://www.w3.org/1999/xlink" x="0px" y="0px"
	 viewBox="0 0 465 465" style="enable-background:new 0 0 465 465;" xml:space="preserve">
<path d="M392.848,337.907c-74.224-8.161-135.544-62.305-152.849-134.842l0-57.061c23.438,42.531,66.517,72.233,116.391,77.717
	c0.278,0.03,0.555,0.046,0.828,0.046c3.775,0,7.024-2.843,7.446-6.682c0.453-4.117-2.518-7.821-6.636-8.274
	c-57.285-6.299-104.611-48.057-118.029-104.013l0-60.706c17.858,27.712,47.558,46.792,81.57,50.532
	c0.279,0.03,0.556,0.046,0.829,0.046c3.774,0,7.024-2.843,7.446-6.681c0.453-4.118-2.518-7.822-6.635-8.275
	c-40.601-4.465-74.119-34.172-83.406-73.921c-0.009-0.036-0.022-0.07-0.031-0.106c-0.025-0.098-0.05-0.195-0.078-0.292
	c-0.025-0.085-0.051-0.168-0.078-0.251c-0.021-0.064-0.044-0.128-0.067-0.191c-0.029-0.079-0.058-0.157-0.089-0.234
	c-0.035-0.087-0.07-0.172-0.108-0.257c-0.031-0.069-0.062-0.138-0.095-0.206c-0.031-0.065-0.064-0.128-0.097-0.192
	c-0.043-0.083-0.086-0.165-0.132-0.246c-0.04-0.071-0.08-0.141-0.122-0.21c-0.036-0.059-0.074-0.117-0.112-0.175
	c-0.049-0.076-0.099-0.151-0.151-0.225c-0.046-0.066-0.092-0.132-0.14-0.196c-0.044-0.059-0.091-0.117-0.138-0.175
	c-0.055-0.069-0.11-0.136-0.167-0.203c-0.048-0.056-0.095-0.113-0.145-0.168c-0.056-0.062-0.114-0.12-0.172-0.18
	c-0.061-0.063-0.124-0.124-0.187-0.185c-0.046-0.044-0.091-0.09-0.138-0.133c-0.068-0.062-0.137-0.121-0.207-0.18
	c-0.069-0.059-0.14-0.115-0.212-0.171c-0.042-0.033-0.083-0.068-0.126-0.101c-0.076-0.058-0.154-0.113-0.233-0.168
	c-0.079-0.055-0.159-0.106-0.24-0.158c-0.042-0.026-0.082-0.055-0.124-0.08c-0.08-0.049-0.16-0.096-0.242-0.142
	c-0.087-0.049-0.176-0.095-0.266-0.141c-0.047-0.024-0.094-0.049-0.142-0.072c-0.077-0.037-0.154-0.074-0.233-0.108
	c-0.092-0.041-0.185-0.078-0.279-0.115c-0.063-0.025-0.126-0.049-0.189-0.072c-0.071-0.026-0.141-0.051-0.212-0.075
	c-0.09-0.03-0.18-0.057-0.272-0.083c-0.084-0.024-0.169-0.046-0.254-0.068c-0.042-0.01-0.081-0.026-0.123-0.035
	c-0.027-0.006-0.053-0.009-0.08-0.014c-0.078-0.017-0.156-0.033-0.234-0.048c-0.101-0.019-0.202-0.035-0.304-0.05
	c-0.078-0.011-0.156-0.023-0.233-0.032c-0.06-0.007-0.119-0.013-0.18-0.018c-0.104-0.01-0.209-0.015-0.315-0.021
	c-0.095-0.005-0.19-0.009-0.285-0.01C232.55,0.004,232.526,0,232.5,0c-0.026,0-0.05,0.004-0.076,0.004
	c-0.095,0.001-0.19,0.005-0.286,0.01c-0.106,0.005-0.211,0.011-0.316,0.021c-0.059,0.005-0.118,0.011-0.177,0.018
	c-0.077,0.009-0.154,0.021-0.231,0.032c-0.104,0.015-0.208,0.031-0.311,0.051c-0.077,0.015-0.154,0.03-0.23,0.047
	c-0.026,0.006-0.053,0.008-0.079,0.014c-0.04,0.009-0.077,0.024-0.117,0.034c-0.09,0.023-0.18,0.046-0.269,0.072
	c-0.089,0.026-0.177,0.053-0.264,0.082c-0.068,0.023-0.135,0.047-0.203,0.071c-0.07,0.025-0.138,0.051-0.207,0.079
	c-0.091,0.036-0.182,0.073-0.271,0.113c-0.075,0.033-0.148,0.068-0.222,0.103c-0.054,0.026-0.107,0.054-0.161,0.081
	c-0.087,0.045-0.174,0.09-0.259,0.138c-0.078,0.044-0.155,0.088-0.231,0.135c-0.048,0.029-0.094,0.061-0.141,0.091
	c-0.079,0.051-0.157,0.102-0.234,0.155c-0.075,0.052-0.149,0.105-0.222,0.159c-0.048,0.036-0.093,0.075-0.14,0.112
	c-0.07,0.056-0.14,0.111-0.208,0.17c-0.067,0.057-0.133,0.113-0.198,0.172c-0.05,0.046-0.098,0.094-0.147,0.141
	c-0.063,0.061-0.125,0.122-0.186,0.185c-0.055,0.057-0.112,0.114-0.165,0.173c-0.051,0.057-0.1,0.115-0.15,0.173
	c-0.058,0.068-0.114,0.136-0.169,0.206c-0.045,0.056-0.09,0.111-0.133,0.169c-0.048,0.065-0.094,0.131-0.141,0.198
	c-0.053,0.075-0.103,0.152-0.153,0.229c-0.037,0.057-0.074,0.113-0.109,0.171c-0.042,0.069-0.082,0.138-0.121,0.208
	c-0.047,0.083-0.091,0.166-0.135,0.251c-0.033,0.063-0.065,0.126-0.096,0.19c-0.032,0.067-0.063,0.135-0.094,0.203
	c-0.038,0.086-0.075,0.173-0.11,0.261c-0.031,0.078-0.06,0.156-0.089,0.234c-0.022,0.062-0.044,0.124-0.065,0.187
	c-0.028,0.085-0.055,0.169-0.08,0.255c-0.028,0.096-0.053,0.193-0.078,0.291c-0.009,0.036-0.022,0.07-0.031,0.106
	c-9.287,39.749-42.806,69.456-83.406,73.921c-4.117,0.453-7.088,4.157-6.635,8.275c0.422,3.839,3.671,6.681,7.446,6.681
	c0.273,0,0.55-0.016,0.829-0.046c34.011-3.74,63.711-22.82,81.569-50.531l0,60.71c-13.419,55.954-60.744,97.709-118.028,104.008
	c-4.118,0.453-7.089,4.157-6.636,8.274c0.422,3.839,3.671,6.682,7.446,6.682c0.273,0,0.55-0.016,0.828-0.046
	c49.872-5.484,92.95-35.184,116.389-77.714l0,57.068c-17.308,72.532-78.626,126.67-152.846,134.831
	c-4.118,0.453-7.089,4.157-6.636,8.274c0.422,3.839,3.671,6.682,7.446,6.682c0.273,0,0.55-0.016,0.828-0.046
	c66.011-7.259,122.611-48.048,151.207-105.871L224.997,457.5c0,4.142,3.357,7.5,7.5,7.5c4.142,0,7.5-3.357,7.5-7.5l0.001-210.56
	c28.595,57.826,85.197,98.619,151.211,105.878c0.278,0.03,0.555,0.046,0.828,0.046c3.774,0,7.024-2.843,7.446-6.682
	C399.937,342.064,396.966,338.36,392.848,337.907z"/>
<g>
</g>
<g>
</g>
<g>
</g>
<g>
</g>
<g>
</g>
<g>
</g>
<g>
</g>
<g>
</g>
<g>
</g>
<g>
</g>
<g>
</g>
<g>
</g>
<g>
</g>
<g>
</g>
<g>
</g>
</svg>
