<?xml version="1.0" encoding="iso-8859-1"?>
<!-- Generator: Adobe Illustrator 17.1.0, SVG Export Plug-In . SVG Version: 6.00 Build 0)  -->
<!DOCTYPE svg PUBLIC "-//W3C//DTD SVG 1.1//EN" "http://www.w3.org/Graphics/SVG/1.1/DTD/svg11.dtd">
<svg version="1.1" id="Capa_1" xmlns="http://www.w3.org/2000/svg" xmlns:xlink="http://www.w3.org/1999/xlink" x="0px" y="0px"
	 viewBox="0 0 465.025 465.025" style="enable-background:new 0 0 465.025 465.025;" xml:space="preserve">
<path d="M462.828,89.03l-6.557-6.557c-0.018-0.017-0.035-0.035-0.052-0.052l-21.736-21.736c-0.014-0.014-0.028-0.029-0.042-0.043
	l-6.561-6.561c-2.929-2.929-7.678-2.929-10.606,0c-2.929,2.929-2.929,7.678,0,10.606l1.09,1.09l-83.377,77.616
	c-10.333-0.111-20.257,3.967-27.642,11.354l-23.426,23.426c-0.002,0.001-0.003,0.003-0.005,0.005
	c-0.001,0.001-0.003,0.003-0.005,0.004l-91.484,91.485l-38.638-38.638c-0.097-0.103-0.196-0.202-0.299-0.3l-24.466-24.465
	c0,0,0,0,0,0c-8.563-8.562-24.182-0.262-35.185,6.727c-13.707,8.706-29.905,22.15-45.609,37.855
	c-15.705,15.705-29.149,31.903-37.855,45.609c-6.989,11.003-15.291,26.622-6.727,35.185l24.479,24.479
	c0.088,0.093,0.179,0.184,0.272,0.272l30.782,30.781c16.744,16.745,39.007,25.966,62.688,25.966c23.68,0,45.943-9.222,62.688-25.966
	l154.127-154.126c0.017-0.017,0.034-0.033,0.05-0.05c0.017-0.017,0.034-0.034,0.05-0.051l23.381-23.381
	c7.386-7.386,11.423-17.304,11.354-27.642l77.616-83.376l1.09,1.09c2.929,2.929,7.678,2.929,10.606,0
	C465.757,96.708,465.757,91.959,462.828,89.03z M58.833,261.453c28.531-28.531,50.482-41.53,58.547-43.548
	c-2.018,8.065-15.018,30.016-43.548,58.547c-28.532,28.531-50.482,41.53-58.547,43.548
	C17.304,311.934,30.304,289.983,58.833,261.453z M173.947,376.567c-13.912,13.912-32.408,21.573-52.082,21.573
	s-38.17-7.661-52.082-21.573l-23.542-23.542c2.434-1.355,4.949-2.859,7.57-4.524c15.382-9.771,33.276-24.574,50.385-41.684
	c4.525-4.524,8.951-9.169,13.156-13.803c2.783-3.068,2.553-7.811-0.515-10.594c-3.069-2.784-7.812-2.552-10.594,0.515
	c-4.042,4.456-8.299,8.922-12.653,13.276c-16.356,16.355-33.339,30.429-47.822,39.628c-3.792,2.409-7.302,4.425-10.618,6.096
	l-9.704-9.704c4.696-2.019,9.35-4.757,13.381-7.317c13.706-8.707,29.904-22.15,45.609-37.855
	c15.705-15.705,29.149-31.902,37.855-45.609c2.561-4.032,5.298-8.684,7.317-13.381l9.704,9.704
	c-1.67,3.315-3.686,6.825-6.095,10.617c-1.887,2.971-4.012,6.095-6.316,9.285c-2.425,3.358-1.669,8.046,1.689,10.471
	c3.358,2.425,8.046,1.668,10.471-1.689c2.478-3.43,4.771-6.802,6.817-10.024c1.665-2.621,3.168-5.136,4.523-7.569l50.857,50.856
	c2.929,2.929,7.678,2.929,10.606,0c2.929-2.929,2.929-7.678,0-10.606l-8.839-8.839l86.186-86.186l33.605,33.605L173.947,376.567z
	 M360.379,174.02c-1.463,1.572-2.182,3.695-1.976,5.833c0.687,7.104-1.809,14.067-6.848,19.106l-18.128,18.128l-33.605-33.605
	l18.128-18.128c5.039-5.039,12.002-7.538,19.107-6.848c2.135,0.207,4.26-0.513,5.832-1.976l86.087-80.138l11.542,11.542
	L360.379,174.02z"/>
<g>
</g>
<g>
</g>
<g>
</g>
<g>
</g>
<g>
</g>
<g>
</g>
<g>
</g>
<g>
</g>
<g>
</g>
<g>
</g>
<g>
</g>
<g>
</g>
<g>
</g>
<g>
</g>
<g>
</g>
</svg>
