<?xml version="1.0" encoding="iso-8859-1"?>
<!-- Generator: Adobe Illustrator 17.1.0, SVG Export Plug-In . SVG Version: 6.00 Build 0)  -->
<!DOCTYPE svg PUBLIC "-//W3C//DTD SVG 1.1//EN" "http://www.w3.org/Graphics/SVG/1.1/DTD/svg11.dtd">
<svg version="1.1" id="Capa_1" xmlns="http://www.w3.org/2000/svg" xmlns:xlink="http://www.w3.org/1999/xlink" x="0px" y="0px"
	 viewBox="0 0 465 465" style="enable-background:new 0 0 465 465;" xml:space="preserve">
<g>
	<path d="M443.829,211.329h-36.205c-0.62-3.517-3.684-6.19-7.378-6.19c-4.142,0-7.5,3.357-7.5,7.5V225h-14.011
		c-1.761-34.732-15.684-66.306-37.58-90.548l9.959-9.959l8.74,8.74c1.464,1.464,3.384,2.196,5.303,2.196
		c1.919,0,3.839-0.732,5.303-2.196c2.612-2.613,2.888-6.669,0.841-9.594l25.601-25.6c3.999-3.999,6.201-9.315,6.201-14.971
		s-2.203-10.972-6.201-14.97c-3.999-4-9.315-6.202-14.971-6.202s-10.972,2.202-14.971,6.201l-25.6,25.6
		c-2.925-2.047-6.982-1.771-9.594,0.84c-2.929,2.93-2.929,7.678,0,10.607l8.74,8.74l-9.959,9.959
		c-24.242-21.896-55.816-35.819-90.548-37.58V72.254h12.361c4.142,0,7.5-3.357,7.5-7.5c0-3.695-2.673-6.758-6.189-7.378V21.171
		C253.671,9.497,244.174,0,232.5,0s-21.171,9.497-21.171,21.171v36.205c-3.516,0.621-6.189,3.684-6.189,7.378
		c0,4.143,3.358,7.5,7.5,7.5H225v14.011c-34.732,1.761-66.306,15.684-90.548,37.58l-9.959-9.959l8.74-8.74
		c2.929-2.93,2.929-7.678,0-10.607c-2.612-2.611-6.669-2.887-9.594-0.84l-25.6-25.599c-3.999-4-9.316-6.202-14.971-6.202
		s-10.972,2.202-14.97,6.201c-3.999,3.999-6.201,9.315-6.201,14.971s2.203,10.972,6.201,14.971l25.601,25.6
		c-2.047,2.926-1.771,6.981,0.841,9.594c1.464,1.464,3.384,2.196,5.303,2.196s3.839-0.732,5.303-2.196l8.74-8.74l9.959,9.959
		c-21.896,24.242-35.819,55.816-37.58,90.548H72.254v-12.361c0-4.143-3.358-7.5-7.5-7.5c-3.695,0-6.758,2.674-7.378,6.19H21.171
		C9.498,211.329,0,220.826,0,232.5s9.498,21.171,21.171,21.171h36.205c0.62,3.517,3.684,6.19,7.378,6.19c4.142,0,7.5-3.357,7.5-7.5
		V240h14.011c1.761,34.732,15.684,66.306,37.58,90.548l-9.959,9.959l-8.74-8.74c-2.929-2.928-7.678-2.928-10.606,0
		c-2.612,2.613-2.888,6.669-0.841,9.594l-25.601,25.6c-3.999,3.999-6.201,9.315-6.201,14.971s2.203,10.972,6.201,14.97
		c3.999,4,9.315,6.202,14.971,6.202s10.972-2.202,14.971-6.201l25.6-25.6c1.285,0.9,2.786,1.356,4.291,1.356
		c1.919,0,3.839-0.732,5.303-2.196c2.929-2.93,2.929-7.678,0-10.607l-8.74-8.74l9.959-9.959
		c24.242,21.896,55.816,35.819,90.548,37.58v14.011h-12.361c-4.142,0-7.5,3.357-7.5,7.5c0,3.695,2.673,6.758,6.189,7.378v36.205
		c0,11.674,9.498,21.171,21.171,21.171s21.171-9.497,21.171-21.171v-36.205c3.516-0.621,6.189-3.684,6.189-7.378
		c0-4.143-3.358-7.5-7.5-7.5H240v-14.011c34.732-1.761,66.306-15.684,90.548-37.58l9.959,9.959l-8.74,8.74
		c-2.929,2.93-2.929,7.678,0,10.607c1.464,1.464,3.384,2.196,5.303,2.196c1.504,0,3.006-0.457,4.291-1.356l25.6,25.599
		c3.999,4,9.316,6.202,14.971,6.202s10.972-2.202,14.97-6.201c3.999-3.999,6.201-9.315,6.201-14.971s-2.203-10.972-6.201-14.971
		l-25.601-25.6c2.047-2.926,1.771-6.981-0.841-9.594c-2.929-2.928-7.678-2.928-10.606,0l-8.74,8.74l-9.959-9.959
		c21.896-24.242,35.819-55.816,37.58-90.548h14.011v12.361c0,4.143,3.358,7.5,7.5,7.5c3.695,0,6.758-2.674,7.378-6.19h36.205
		c11.674,0,21.171-9.497,21.171-21.171S455.502,211.329,443.829,211.329z M377.568,78.704c1.166-1.166,2.715-1.808,4.364-1.808
		c1.648,0,3.198,0.642,4.364,1.809c1.166,1.165,1.808,2.715,1.808,4.363s-0.642,3.198-1.808,4.363l-25.515,25.514l-4.361-4.361
		c-0.001-0.001-0.002-0.002-0.002-0.003s-0.002-0.001-0.003-0.002l-4.361-4.361L377.568,78.704z M108.585,108.58
		c-0.001,0.001-0.002,0.001-0.003,0.002s-0.002,0.002-0.002,0.003l-4.361,4.361L78.704,87.432c-1.166-1.165-1.808-2.715-1.808-4.363
		s0.642-3.198,1.808-4.364c1.166-1.166,2.715-1.808,4.363-1.808c1.648,0,3.198,0.642,4.364,1.809l25.514,25.514L108.585,108.58z
		 M57.254,238.671H21.171c-3.403,0-6.171-2.769-6.171-6.171s2.769-6.171,6.171-6.171h36.083V238.671z M87.432,386.296
		c-1.166,1.166-2.715,1.808-4.364,1.808c-1.648,0-3.198-0.642-4.364-1.809c-1.166-1.165-1.808-2.715-1.808-4.363
		s0.642-3.198,1.808-4.363l25.515-25.514l4.361,4.361c0.001,0.001,0.002,0.002,0.002,0.003s0.002,0.001,0.003,0.002l4.361,4.361
		L87.432,386.296z M356.415,356.42c0.001-0.001,0.002-0.001,0.003-0.002s0.002-0.002,0.002-0.003l4.361-4.361l25.515,25.514
		c1.166,1.165,1.808,2.715,1.808,4.363s-0.642,3.198-1.808,4.364c-1.166,1.166-2.715,1.808-4.363,1.808
		c-1.648,0-3.198-0.642-4.364-1.809l-25.514-25.514L356.415,356.42z M226.329,21.171c0-3.402,2.769-6.171,6.171-6.171
		s6.171,2.769,6.171,6.171v36.083h-12.343V21.171z M238.671,443.829c0,3.402-2.769,6.171-6.171,6.171s-6.171-2.769-6.171-6.171
		v-36.083h12.343V443.829z M232.5,363.925c-72.468,0-131.425-58.957-131.425-131.425S160.032,101.075,232.5,101.075
		S363.925,160.032,363.925,232.5S304.968,363.925,232.5,363.925z M443.829,238.671h-36.083v-12.342h36.083
		c3.403,0,6.171,2.769,6.171,6.171S447.231,238.671,443.829,238.671z"/>
	<path d="M314.825,150.175c-0.227-0.227-0.467-0.429-0.714-0.621c-21.026-20.691-49.851-33.479-81.61-33.479
		c-31.76,0-60.585,12.788-81.611,33.479c-0.247,0.192-0.487,0.394-0.714,0.621c-0.227,0.227-0.43,0.468-0.621,0.715
		c-20.691,21.026-33.479,49.851-33.479,81.611s12.788,60.585,33.479,81.611c0.192,0.247,0.395,0.488,0.621,0.715
		c0.227,0.227,0.467,0.429,0.714,0.621c21.026,20.691,49.851,33.479,81.611,33.479c31.76,0,60.585-12.788,81.611-33.479
		c0.247-0.192,0.487-0.394,0.714-0.621c0.227-0.227,0.43-0.468,0.621-0.715c20.691-21.026,33.479-49.851,33.479-81.611
		s-12.788-60.585-33.479-81.611C315.254,150.642,315.051,150.402,314.825,150.175z M240,131.353
		c22.335,1.64,42.683,10.544,58.685,24.355l-45.301,45.301c-3.995-2.658-8.521-4.58-13.384-5.563V131.353z M225,131.353v64.093
		c-4.863,0.983-9.388,2.904-13.384,5.563l-45.301-45.301C182.317,141.897,202.665,132.993,225,131.353z M155.708,166.315
		l45.301,45.3c-2.659,3.996-4.58,8.521-5.563,13.385h-64.093C132.993,202.665,141.897,182.317,155.708,166.315z M131.353,240h64.093
		c0.983,4.863,2.904,9.389,5.563,13.385l-45.301,45.3C141.897,282.683,132.993,262.335,131.353,240z M225,333.647
		c-22.335-1.64-42.683-10.544-58.685-24.355l45.301-45.301c3.995,2.658,8.521,4.58,13.384,5.563V333.647z M209.696,232.5
		c0-12.574,10.23-22.804,22.804-22.804s22.804,10.229,22.804,22.804s-10.23,22.804-22.804,22.804S209.696,245.074,209.696,232.5z
		 M240,333.647v-64.093c4.863-0.983,9.388-2.904,13.384-5.563l45.301,45.301C282.683,323.103,262.335,332.007,240,333.647z
		 M309.292,298.685l-45.301-45.3c2.659-3.996,4.58-8.521,5.563-13.385h64.093C332.007,262.335,323.103,282.683,309.292,298.685z
		 M269.554,225c-0.983-4.863-2.904-9.389-5.563-13.385l45.301-45.3c13.811,16.002,22.715,36.35,24.355,58.685H269.554z"/>
</g>
<g>
</g>
<g>
</g>
<g>
</g>
<g>
</g>
<g>
</g>
<g>
</g>
<g>
</g>
<g>
</g>
<g>
</g>
<g>
</g>
<g>
</g>
<g>
</g>
<g>
</g>
<g>
</g>
<g>
</g>
</svg>
