<?xml version="1.0" encoding="iso-8859-1"?>
<!-- Generator: Adobe Illustrator 17.1.0, SVG Export Plug-In . SVG Version: 6.00 Build 0)  -->
<!DOCTYPE svg PUBLIC "-//W3C//DTD SVG 1.1//EN" "http://www.w3.org/Graphics/SVG/1.1/DTD/svg11.dtd">
<svg version="1.1" id="Capa_1" xmlns="http://www.w3.org/2000/svg" xmlns:xlink="http://www.w3.org/1999/xlink" x="0px" y="0px"
	 viewBox="0 0 465.001 465.001" style="enable-background:new 0 0 465.001 465.001;" xml:space="preserve">
<g>
	<path d="M462.506,120.514l-96.288-86.318c-0.93-0.834-2.055-1.423-3.27-1.712l-66.08-15.721c-3.22-0.764-6.579,0.7-8.24,3.562
		c-0.68,1.17-17.085,28.658-56.128,28.658c-39.042,0-55.448-27.488-56.11-28.628c-1.647-2.899-5.012-4.365-8.257-3.592
		l-66.08,15.721c-1.216,0.289-2.34,0.878-3.271,1.712L2.494,120.514c-2.746,2.462-3.295,6.555-1.294,9.654l48.021,74.353
		c2.035,3.152,6.085,4.313,9.483,2.723l37.584-17.613v251.312c0,4.142,3.358,7.5,7.5,7.5h257.424c4.143,0,7.5-3.358,7.5-7.5V189.63
		l37.584,17.613c3.396,1.591,7.448,0.429,9.482-2.723l48.021-74.353C465.802,127.069,465.253,122.976,462.506,120.514z
		 M406.732,190.881l-42.337-19.84c-2.324-1.089-5.042-0.914-7.206,0.462c-2.165,1.376-3.477,3.764-3.477,6.329v255.609H111.288
		V177.833c0-2.565-1.312-4.953-3.476-6.329c-2.166-1.376-4.884-1.55-7.207-0.462l-42.337,19.84l-40.994-63.473l90.102-80.773
		l59.211-14.086c7.458,9.874,28.078,31.434,65.912,31.434c37.835,0,58.454-21.56,65.912-31.434l59.212,14.086l90.102,80.773
		L406.732,190.881z"/>
	<path d="M238.995,101.967c-1.34-2.32-3.815-3.75-6.495-3.75c-2.679,0-5.155,1.43-6.495,3.75L153.678,227.24
		c-1.34,2.32-1.34,5.18,0,7.5s3.815,3.75,6.495,3.75h30c4.142,0,7.5-3.358,7.5-7.5s-3.358-7.5-7.5-7.5h-17.01L232.5,120.717
		l59.336,102.773h-71.663c-4.142,0-7.5,3.358-7.5,7.5s3.358,7.5,7.5,7.5h84.653c2.68,0,5.155-1.43,6.495-3.75s1.34-5.18,0-7.5
		L238.995,101.967z"/>
</g>
<g>
</g>
<g>
</g>
<g>
</g>
<g>
</g>
<g>
</g>
<g>
</g>
<g>
</g>
<g>
</g>
<g>
</g>
<g>
</g>
<g>
</g>
<g>
</g>
<g>
</g>
<g>
</g>
<g>
</g>
</svg>
