<?xml version="1.0" encoding="iso-8859-1"?>
<!-- Generator: Adobe Illustrator 17.1.0, SVG Export Plug-In . SVG Version: 6.00 Build 0)  -->
<!DOCTYPE svg PUBLIC "-//W3C//DTD SVG 1.1//EN" "http://www.w3.org/Graphics/SVG/1.1/DTD/svg11.dtd">
<svg version="1.1" id="Capa_1" xmlns="http://www.w3.org/2000/svg" xmlns:xlink="http://www.w3.org/1999/xlink" x="0px" y="0px"
	 viewBox="0 0 465 465" style="enable-background:new 0 0 465 465;" xml:space="preserve">
<g>
	<path d="M462.846,134.582l-81.046-82.376c-0.988-1.005-2.239-1.71-3.61-2.037l-58.413-13.896V10.314c0-4.142-3.358-7.5-7.5-7.5
		H152.723c-4.142,0-7.5,3.358-7.5,7.5v25.922l-43.126,9.981c-1.232,0.285-2.373,0.877-3.315,1.722L2.494,134.258
		c-2.746,2.462-3.295,6.555-1.294,9.653l48.021,74.353c2.035,3.152,6.085,4.314,9.483,2.723l37.083-17.378l-9.492,230.769
		c-0.155,3.775,2.522,7.076,6.248,7.704l118.712,20c2.913,0.488,5.847-0.776,7.486-3.236l13.76-20.639l13.76,20.639
		c1.405,2.108,3.759,3.34,6.239,3.34c0.414,0,0.831-0.035,1.248-0.104l118.712-20c3.726-0.628,6.403-3.929,6.248-7.704
		l-9.492-230.769l37.083,17.378c3.397,1.592,7.447,0.43,9.483-2.723l48.021-74.353C465.705,140.962,465.309,137.085,462.846,134.582
		z M406.732,204.625l-42.337-19.84c-2.373-1.11-5.152-0.905-7.335,0.546c-2.182,1.451-3.449,3.935-3.341,6.553l9.728,236.504
		l-107.401,18.094L240,422.415V82.301c0-4.142-3.358-7.5-7.5-7.5s-7.5,3.358-7.5,7.5v340.114l-16.045,24.067l-107.401-18.094
		l9.728-236.504c0.108-2.618-1.159-5.103-3.341-6.553c-2.182-1.451-4.963-1.658-7.335-0.546l-42.337,19.84l-40.994-63.473
		l90.084-80.756l42.839-9.915l39.961,42.767c1.576,1.687,3.841,2.552,6.142,2.35c2.3-0.204,4.378-1.456,5.633-3.394l23.199-35.826
		c1.124-1.736,1.481-3.859,0.988-5.868c-0.494-2.008-1.795-3.724-3.596-4.74l-36.721-20.73c-3.607-2.037-8.183-0.763-10.218,2.844
		c-2.036,3.607-0.763,8.182,2.844,10.218l29.781,16.813L194.562,75.99l-34.339-36.75V17.814h144.555V39.24l-34.339,36.75
		l-13.647-21.076l29.781-16.813c3.607-2.037,4.88-6.611,2.844-10.218c-2.037-3.607-6.611-4.881-10.218-2.844l-36.721,20.73
		c-1.801,1.017-3.102,2.732-3.596,4.74c-0.494,2.009-0.136,4.132,0.988,5.868l23.199,35.826c1.255,1.938,3.333,3.19,5.633,3.394
		c0.221,0.02,0.442,0.029,0.663,0.029c2.067,0,4.055-0.855,5.479-2.379l39.939-42.744l57.838,13.76l75.32,76.557L406.732,204.625z"
		/>
	<path d="M195.527,139.026h-54.765c-4.142,0-7.5,3.358-7.5,7.5v29.061c0,19.234,15.648,34.882,34.882,34.882
		c4.142,0,7.5-3.358,7.5-7.5s-3.358-7.5-7.5-7.5c-10.963,0-19.882-8.919-19.882-19.882v-21.561h39.765v21.561
		c0,4.142,3.358,7.5,7.5,7.5s7.5-3.358,7.5-7.5v-29.061C203.027,142.384,199.669,139.026,195.527,139.026z"/>
	<path d="M324.238,139.026h-54.765c-4.142,0-7.5,3.358-7.5,7.5v29.061c0,19.234,15.648,34.882,34.882,34.882
		c4.142,0,7.5-3.358,7.5-7.5s-3.358-7.5-7.5-7.5c-10.963,0-19.882-8.919-19.882-19.882v-21.561h39.765v21.561
		c0,4.142,3.358,7.5,7.5,7.5s7.5-3.358,7.5-7.5v-29.061C331.738,142.384,328.381,139.026,324.238,139.026z"/>
</g>
<g>
</g>
<g>
</g>
<g>
</g>
<g>
</g>
<g>
</g>
<g>
</g>
<g>
</g>
<g>
</g>
<g>
</g>
<g>
</g>
<g>
</g>
<g>
</g>
<g>
</g>
<g>
</g>
<g>
</g>
</svg>
