<?xml version="1.0" encoding="iso-8859-1"?>
<!-- Generator: Adobe Illustrator 17.1.0, SVG Export Plug-In . SVG Version: 6.00 Build 0)  -->
<!DOCTYPE svg PUBLIC "-//W3C//DTD SVG 1.1//EN" "http://www.w3.org/Graphics/SVG/1.1/DTD/svg11.dtd">
<svg version="1.1" id="Capa_1" xmlns="http://www.w3.org/2000/svg" xmlns:xlink="http://www.w3.org/1999/xlink" x="0px" y="0px"
	 viewBox="0 0 465 465" style="enable-background:new 0 0 465 465;" xml:space="preserve">
<g>
	<path d="M457.5,278.266h-0.552c-2.845-49.213-34.439-56.668-77.401-66.805c-5.14-1.213-10.455-2.467-15.991-3.848
		c-57.449-14.337-118.549-47.776-152.04-83.21c-2.839-3.004-7.572-3.145-10.585-0.315c-0.198,0.186-20.237,18.792-52.908,31.24
		c-42.25,16.098-84.675,14.669-126.17-4.232v-11.234c0-4.143-3.358-7.5-7.5-7.5s-7.5,3.357-7.5,7.5v138.436
		C3.014,278.627,0,281.842,0,285.766v49.68c0,4.143,3.358,7.5,7.5,7.5h118.273c2.038,0,3.988-0.829,5.402-2.298
		c1.414-1.468,2.169-3.448,2.092-5.484l-0.449-11.897h25.834v12.18c0,4.143,3.358,7.5,7.5,7.5H457.5c4.142,0,7.5-3.357,7.5-7.5
		v-49.68C465,281.623,461.642,278.266,457.5,278.266z M367.314,223.972c2.991,0.719,5.921,1.412,8.789,2.088
		c41.352,9.756,63.338,14.945,65.818,52.205H175.25c9.288-20.46,57.649-24.344,100.836-27.808
		c22.909-1.837,44.548-3.572,61.104-7.645C343.763,241.197,361.454,236.833,367.314,223.972z M21.853,167.448
		c53.716,22.238,100.754,13.616,131.511,1.898c25.358-9.662,43.596-22.655,52.238-29.563
		c34.454,33.786,91.494,65.065,146.389,80.281c-9.392,10.011-46.487,12.987-77.104,15.443c-26.688,2.14-54.285,4.354-75.78,10.476
		c-23.114,6.583-36.407,17.426-39.657,32.283h-28.987c-2.56-6.686-8.169-18.185-19.392-29.594
		c-14.542-14.782-41.673-32.251-89.218-33.93V167.448z M21.853,229.746c33.331,1.28,60.162,11.177,77.908,28.826
		c7.143,7.104,11.621,14.275,14.32,19.694H21.853V229.746z M450,327.945H173.653v-12.18c0-4.143-3.358-7.5-7.5-7.5h-41.123
		c-2.038,0-3.989,0.829-5.402,2.298c-1.414,1.468-2.169,3.448-2.092,5.484l0.449,11.897H15v-34.68h110.001
		c0.008,0,0.015,0.002,0.023,0.002c0.011,0,0.023-0.002,0.035-0.002h324.599H450V327.945z"/>
	<path d="M227.059,194.097c4.408,0,7.995-3.587,7.995-7.995s-3.586-7.994-7.995-7.994s-7.995,3.586-7.995,7.994
		S222.65,194.097,227.059,194.097z"/>
	<path d="M203.661,176.473c4.408,0,7.995-3.586,7.995-7.994s-3.586-7.995-7.995-7.995s-7.995,3.587-7.995,7.995
		S199.252,176.473,203.661,176.473z"/>
</g>
<g>
</g>
<g>
</g>
<g>
</g>
<g>
</g>
<g>
</g>
<g>
</g>
<g>
</g>
<g>
</g>
<g>
</g>
<g>
</g>
<g>
</g>
<g>
</g>
<g>
</g>
<g>
</g>
<g>
</g>
</svg>
