<?xml version="1.0" encoding="iso-8859-1"?>
<!-- Generator: Adobe Illustrator 17.1.0, SVG Export Plug-In . SVG Version: 6.00 Build 0)  -->
<!DOCTYPE svg PUBLIC "-//W3C//DTD SVG 1.1//EN" "http://www.w3.org/Graphics/SVG/1.1/DTD/svg11.dtd">
<svg version="1.1" id="Capa_1" xmlns="http://www.w3.org/2000/svg" xmlns:xlink="http://www.w3.org/1999/xlink" x="0px" y="0px"
	 viewBox="0 0 465 465" style="enable-background:new 0 0 465 465;" xml:space="preserve">
<g>
	<path d="M70.116,161.262c-22.12,0-40.115,17.996-40.115,40.114c0,4.133,0.631,8.22,1.877,12.146
		c1.253,3.949,5.468,6.132,9.417,4.88c3.948-1.253,6.133-5.47,4.879-9.417c-0.78-2.457-1.175-5.016-1.174-7.607
		c0-13.849,11.267-25.115,25.115-25.115s25.116,11.267,25.116,25.115c0,6.709-2.613,13.017-7.356,17.76
		c-4.743,4.743-11.049,7.355-17.758,7.355h-0.001c-2.592,0-5.152-0.396-7.608-1.175c-3.949-1.254-8.164,0.933-9.417,4.882
		c-1.252,3.948,0.933,8.164,4.881,9.417c3.925,1.245,8.011,1.876,12.143,1.876c0.001,0,0.001,0,0.002,0
		c10.714,0,20.788-4.173,28.364-11.749c7.577-7.576,11.75-17.65,11.75-28.366C110.231,179.258,92.236,161.262,70.116,161.262z"/>
	<path d="M386.616,291.212c-5.196-1.226-10.568-2.493-16.165-3.89c-39.321-9.813-85.219-24.239-120.858-49.066l0.732-1.008
		c2.435-3.351,1.692-8.041-1.659-10.476c-3.349-2.434-8.04-1.691-10.476,1.659l-0.553,0.761
		c-6.398-5.291-12.334-10.999-17.692-17.164l1.067-0.775c3.351-2.435,4.094-7.125,1.66-10.476
		c-2.435-3.352-7.125-4.095-10.476-1.659l-1.427,1.037c-4.649-6.814-8.632-14.119-11.814-21.964l2.212-0.719
		c3.939-1.28,6.096-5.511,4.815-9.45c-1.28-3.939-5.514-6.095-9.45-4.815l-2.288,0.743c-2.026-7.763-3.322-15.998-3.795-24.737
		h2.282c4.142,0,7.5-3.357,7.5-7.5s-3.358-7.5-7.5-7.5h-2.5V38.762c0-4.143-3.358-7.5-7.5-7.5c-29.162,0-53.306,21.827-56.995,50H15
		v-2.5c0-4.143-3.358-7.5-7.5-7.5S0,74.619,0,78.762v287.477v60c0,4.143,3.358,7.5,7.5,7.5h450c4.143,0,7.5-3.357,7.5-7.5v-60
		C465,309.706,432.121,301.948,386.616,291.212z M369.621,302.566c4.673,1.148,9.179,2.213,13.551,3.245
		c41.868,9.877,64.112,15.131,66.592,52.927H341.38C343.703,321.112,363.144,306.432,369.621,302.566z M207.758,220.884
		c6.155,7.19,13.184,14.003,21.069,20.435l-20.597,28.349c-10.87-8.724-20.476-18.149-28.799-28.204L207.758,220.884z
		 M184.632,182.845c3.619,9.146,8.282,17.865,13.979,26.144l-28.26,20.532c-7.84-11.284-14.194-23.261-19.001-35.862
		L184.632,182.845z M179.933,168.6l-33.288,10.816c-3.607-12.852-5.693-26.281-6.247-40.203h35.026
		C175.917,149.407,177.422,159.206,179.933,168.6z M140.231,88.762c0-20.876,15.13-38.284,35-41.838v77.289h-35V88.762z M15,96.262
		h110.231v27.951h-2.5c-4.142,0-7.5,3.357-7.5,7.5s3.358,7.5,7.5,7.5h2.652c0.566,15.557,2.894,30.538,6.948,44.854l-2.373,0.771
		c-3.939,1.28-6.096,5.511-4.815,9.45c1.03,3.17,3.97,5.185,7.131,5.185c0.768,0,1.549-0.119,2.319-0.369l2.425-0.788
		c5.301,14.104,12.364,27.489,21.145,40.061l-2.598,1.888c-3.351,2.435-4.094,7.125-1.66,10.476
		c1.468,2.021,3.755,3.093,6.074,3.093c1.528,0,3.071-0.466,4.402-1.434l2.857-2.076c9.251,11.262,19.973,21.794,32.159,31.503
		l-2.352,3.237c-2.435,3.351-1.691,8.041,1.66,10.476c1.331,0.968,2.874,1.434,4.402,1.434c2.319,0,4.606-1.073,6.074-3.093
		l2.239-3.082c25.804,18.113,56.77,33.047,94.611,45.601c3.928,1.307,8.175-0.825,9.479-4.757c1.305-3.931-0.825-8.176-4.757-9.479
		c-36.336-12.055-65.963-26.302-90.516-43.501l20.57-28.313c27.704,19.297,63.186,34.563,110.595,47.505
		c-10.535,10.065-23.32,28.751-25.063,60.886H15V96.262z M280,418.738H15v-15h265V418.738z M280,388.738H15v-15h265V388.738z
		 M450,418.738H295v-45h155V418.738z"/>
</g>
<g>
</g>
<g>
</g>
<g>
</g>
<g>
</g>
<g>
</g>
<g>
</g>
<g>
</g>
<g>
</g>
<g>
</g>
<g>
</g>
<g>
</g>
<g>
</g>
<g>
</g>
<g>
</g>
<g>
</g>
</svg>
