<?xml version="1.0" encoding="iso-8859-1"?>
<!-- Generator: Adobe Illustrator 17.1.0, SVG Export Plug-In . SVG Version: 6.00 Build 0)  -->
<!DOCTYPE svg PUBLIC "-//W3C//DTD SVG 1.1//EN" "http://www.w3.org/Graphics/SVG/1.1/DTD/svg11.dtd">
<svg version="1.1" id="Capa_1" xmlns="http://www.w3.org/2000/svg" xmlns:xlink="http://www.w3.org/1999/xlink" x="0px" y="0px"
	 viewBox="0 0 460.975 460.975" style="enable-background:new 0 0 460.975 460.975;" xml:space="preserve">
<g>
	<path d="M161.195,369.185L147.651,368c-4.132-0.358-7.765,2.691-8.125,6.818c-0.361,4.126,2.691,7.764,6.818,8.125l13.543,1.185
		c0.223,0.019,0.443,0.029,0.663,0.029c3.846,0,7.121-2.943,7.463-6.847C168.374,373.184,165.321,369.546,161.195,369.185z"/>
	<path d="M125.079,366.024l-13.543-1.185c-4.125-0.358-7.764,2.691-8.125,6.818c-0.361,4.126,2.692,7.764,6.818,8.125l13.543,1.185
		c0.222,0.019,0.443,0.029,0.662,0.029c3.846,0,7.121-2.943,7.463-6.847C132.258,370.023,129.205,366.386,125.079,366.024z"/>
	<path d="M88.963,362.865l-13.543-1.185c-4.127-0.358-7.764,2.691-8.125,6.818c-0.361,4.126,2.692,7.764,6.818,8.125l13.543,1.185
		c0.222,0.019,0.443,0.029,0.662,0.029c3.846,0,7.121-2.943,7.463-6.847C96.142,366.864,93.089,363.226,88.963,362.865z"/>
	<path d="M52.847,359.705l-13.543-1.185c-4.121-0.359-7.764,2.691-8.125,6.818c-0.361,4.126,2.692,7.764,6.818,8.125l13.543,1.185
		c0.222,0.019,0.443,0.029,0.662,0.029c3.846,0,7.121-2.943,7.463-6.847C60.026,363.704,56.974,360.066,52.847,359.705z"/>
	<path d="M445.072,108.178c-0.01-0.231-0.03-0.458-0.061-0.683c-2.954-33.153-5.15-54.497-5.218-55.152
		c-0.396-3.822-3.617-6.727-7.46-6.727H28.642c-3.843,0-7.064,2.904-7.46,6.727C20.97,54.386,0,258.247,0,393.391
		c0,3.912,3.006,7.167,6.906,7.477l182.106,14.467c2.031,0.159,4.041-0.511,5.565-1.861c1.525-1.351,2.436-3.264,2.521-5.299
		l5.316-126.104c9.176,1.648,18.51,2.477,27.846,2.49c0.076,0.002,0.15,0.011,0.226,0.011c0.076,0,0.15-0.009,0.226-0.011
		c9.336-0.013,18.67-0.842,27.845-2.49l5.316,126.104c0.086,2.036,0.996,3.949,2.521,5.299c1.376,1.219,3.146,1.885,4.972,1.885
		c0.197,0,0.396-0.008,0.594-0.023l182.106-14.467c3.899-0.31,6.906-3.565,6.906-7.477
		C460.975,301.812,451.346,178.684,445.072,108.178z M429.37,101.019H237.987V60.616h187.563
		C426.321,68.375,427.691,82.475,429.37,101.019z M237.987,116.019h34.546v39.5c0,20.201-15.063,36.94-34.546,39.601V116.019z
		 M222.987,60.616v40.402H31.605c1.679-18.543,3.049-32.643,3.819-40.402H222.987z M197.042,265.625
		c-2.18-0.522-4.478-0.042-6.267,1.308c-1.789,1.351-2.879,3.43-2.974,5.669l-4.155,98.552c-4.08-0.288-7.647,2.736-8.005,6.822
		c-0.361,4.126,2.691,7.764,6.818,8.125l0.555,0.049l-0.574,13.615L15.018,386.465c0.025-4.918,0.079-9.926,0.155-14.998
		l0.252,0.022c0.223,0.019,0.443,0.029,0.663,0.029c3.846,0,7.121-2.943,7.463-6.847c0.361-4.126-2.691-7.764-6.818-8.125
		l-1.272-0.111c1.912-82.159,9.399-178.855,14.808-240.416h110.014c-1.097,55.219-46.351,99.803-101.828,99.803
		c-4.142,0-7.5,3.358-7.5,7.5s3.358,7.5,7.5,7.5c63.748,0,115.729-51.313,116.828-114.803h67.705v153.329
		C214.242,268.895,205.541,267.662,197.042,265.625z M278.533,399.766l-0.574-13.615l0.555-0.049
		c4.127-0.361,7.179-3.999,6.818-8.125c-0.358-4.086-3.934-7.103-8.006-6.822l-4.154-98.552c-0.095-2.239-1.186-4.319-2.974-5.669
		c-1.789-1.351-4.087-1.831-6.268-1.308c-8.498,2.036-17.199,3.27-25.944,3.722v-59.119c27.774-2.738,49.546-26.227,49.546-54.709
		v-39.5h18.16c1.099,63.49,53.08,114.803,116.827,114.803c4.143,0,7.5-3.358,7.5-7.5s-3.357-7.5-7.5-7.5
		c-55.476,0-100.73-44.584-101.827-99.803h110.014c5.408,61.559,12.895,158.252,14.807,240.416l-1.272,0.111
		c-4.127,0.361-7.179,3.999-6.818,8.125c0.342,3.904,3.616,6.847,7.463,6.847c0.219,0,0.44-0.01,0.662-0.029l0.253-0.022
		c0.076,5.072,0.13,10.08,0.155,14.998L278.533,399.766z"/>
	<path d="M313.323,368l-13.543,1.185c-4.127,0.361-7.179,3.999-6.818,8.125c0.342,3.904,3.616,6.847,7.463,6.847
		c0.219,0,0.44-0.01,0.662-0.029l13.543-1.185c4.127-0.361,7.179-3.999,6.818-8.125C321.087,370.691,317.446,367.652,313.323,368z"
		/>
	<path d="M349.439,364.84l-13.543,1.185c-4.127,0.361-7.179,3.999-6.818,8.125c0.342,3.904,3.616,6.847,7.463,6.847
		c0.219,0,0.44-0.01,0.662-0.029l13.543-1.185c4.127-0.361,7.179-3.999,6.818-8.125C357.203,367.532,353.563,364.494,349.439,364.84
		z"/>
	<path d="M385.555,361.68l-13.543,1.185c-4.127,0.361-7.179,3.999-6.818,8.125c0.342,3.904,3.616,6.847,7.463,6.847
		c0.219,0,0.44-0.01,0.662-0.029l13.543-1.185c4.127-0.361,7.179-3.999,6.818-8.125C393.318,364.373,389.68,361.327,385.555,361.68z
		"/>
	<path d="M421.671,358.521l-13.543,1.185c-4.127,0.361-7.179,3.999-6.818,8.125c0.342,3.904,3.616,6.847,7.463,6.847
		c0.219,0,0.44-0.01,0.662-0.029l13.543-1.185c4.127-0.361,7.179-3.999,6.818-8.125
		C429.435,361.213,425.797,358.169,421.671,358.521z"/>
</g>
<g>
</g>
<g>
</g>
<g>
</g>
<g>
</g>
<g>
</g>
<g>
</g>
<g>
</g>
<g>
</g>
<g>
</g>
<g>
</g>
<g>
</g>
<g>
</g>
<g>
</g>
<g>
</g>
<g>
</g>
</svg>
