<?xml version="1.0" encoding="iso-8859-1"?>
<!-- Generator: Adobe Illustrator 17.1.0, SVG Export Plug-In . SVG Version: 6.00 Build 0)  -->
<!DOCTYPE svg PUBLIC "-//W3C//DTD SVG 1.1//EN" "http://www.w3.org/Graphics/SVG/1.1/DTD/svg11.dtd">
<svg version="1.1" id="Capa_1" xmlns="http://www.w3.org/2000/svg" xmlns:xlink="http://www.w3.org/1999/xlink" x="0px" y="0px"
	 viewBox="0 0 464.953 464.953" style="enable-background:new 0 0 464.953 464.953;" xml:space="preserve">
<g>
	<path d="M300.493,172.364c2.104,0,4.079-0.821,5.555-2.301c1.483-1.483,2.301-3.456,2.301-5.554s-0.817-4.071-2.301-5.554
		c-1.484-1.484-3.457-2.301-5.555-2.301s-4.07,0.817-5.555,2.301c-1.483,1.483-2.301,3.456-2.301,5.554s0.817,4.071,2.292,5.545
		C296.414,171.543,298.39,172.364,300.493,172.364z"/>
	<path d="M158.953,294.939c-1.483,1.483-2.3,3.456-2.3,5.554c0,2.099,0.816,4.071,2.3,5.555c1.484,1.484,3.457,2.301,5.556,2.301
		c2.098,0,4.07-0.817,5.555-2.301c3.063-3.063,3.063-8.046,0-11.109C166.998,291.875,162.017,291.876,158.953,294.939z"/>
	<path d="M435.299,29.703C416.145,10.549,390.679,0,363.591,0c-27.085,0-52.554,10.549-71.707,29.702l-6.178,6.178
		c-3.641-1.833-7.686-2.803-11.881-2.803c-7.065,0-13.708,2.751-18.704,7.747l-45.563,45.563
		c-8.259,8.259-9.903,20.665-4.936,30.576l-87.66,87.66c-9.911-4.967-22.316-3.324-30.576,4.936l-45.563,45.563
		c-8.258,8.258-9.903,20.665-4.936,30.576l-6.187,6.187C10.549,311.038,0,336.504,0,363.591s10.549,52.553,29.702,71.708
		c19.771,19.77,45.738,29.654,71.706,29.654c25.969,0,51.938-9.885,71.708-29.655l6.177-6.178c3.641,1.834,7.687,2.804,11.882,2.804
		c7.065,0,13.708-2.751,18.704-7.747l45.563-45.563c8.259-8.259,9.903-20.666,4.936-30.577l87.659-87.66
		c9.913,4.969,22.319,3.322,30.578-4.936l45.563-45.563c8.259-8.259,9.904-20.666,4.935-30.578l6.187-6.186
		C474.837,133.576,474.837,69.242,435.299,29.703z M220.166,96.994l45.563-45.563c2.162-2.163,5.038-3.354,8.098-3.354
		c3.059,0,5.935,1.191,8.098,3.354l15.187,15.187c2.163,2.163,3.354,5.039,3.354,8.097c0,3.059-1.191,5.935-3.354,8.098
		l-30.664,30.664c-0.089,0.085-0.176,0.172-0.261,0.261l-14.638,14.637c-2.162,2.163-5.038,3.354-8.097,3.354
		c-3.06,0-5.936-1.191-8.099-3.354l-15.187-15.187C215.701,108.724,215.701,101.458,220.166,96.994z M290.649,144.844
		l-10.165-24.191l8.559-8.559l63.864,63.864l-8.559,8.558l-24.19-10.165c-0.938-0.394-1.925-0.585-2.903-0.585
		c-1.952,0-3.87,0.762-5.306,2.197c-3.06,3.06-7.128,4.745-11.455,4.745s-8.396-1.685-11.455-4.745
		c-3.061-3.06-4.745-7.128-4.745-11.456s1.685-8.396,4.744-11.456C291.193,150.898,291.829,147.654,290.649,144.844z
		 M51.432,265.729l45.563-45.563c2.232-2.232,5.164-3.349,8.097-3.349s5.865,1.116,8.098,3.349l15.187,15.187
		c4.465,4.465,4.465,11.73,0,16.195l-14.648,14.649c-0.082,0.078-0.161,0.158-0.239,0.239L82.813,297.11
		c-2.162,2.163-5.038,3.354-8.097,3.354s-5.935-1.191-8.098-3.354l-15.187-15.187C46.967,277.458,46.967,270.193,51.432,265.729z
		 M174.354,320.157l10.163,24.191l-8.558,8.558l-63.864-63.864l8.558-8.558l24.191,10.165c2.81,1.18,6.054,0.543,8.208-1.611
		c6.317-6.316,16.597-6.317,22.912,0c6.316,6.316,6.316,16.595,0,22.911C173.81,314.104,173.173,317.348,174.354,320.157z
		 M162.509,424.691c-16.847,16.847-38.97,25.27-61.101,25.268c-22.124-0.002-44.256-8.424-61.099-25.267
		C23.988,408.371,15,386.671,15,363.591c0-23.081,8.988-44.78,25.31-61.101l5.238-5.238l10.464,10.464
		c10.314,10.313,27.094,10.313,37.408,0l8.068-8.068l63.864,63.864l-8.069,8.068c-10.313,10.313-10.313,27.094,0,37.408
		l10.464,10.464L162.509,424.691z M244.834,368.007l-45.563,45.563c-4.465,4.465-11.729,4.465-16.193,0l-15.188-15.188
		c-4.465-4.465-4.465-11.73,0-16.195l13.32-13.321c0.018-0.017,0.034-0.034,0.052-0.051c0.017-0.017,0.033-0.034,0.051-0.051
		l17.25-17.25c0.082-0.079,0.163-0.16,0.241-0.242l14.648-14.648c4.464-4.464,11.73-4.466,16.194,0l15.187,15.187
		C249.3,356.277,249.3,363.542,244.834,368.007z M250.718,336.482l-10.463-10.463c-4.996-4.996-11.639-7.747-18.704-7.747
		c-7.066,0-13.709,2.751-18.705,7.747l-6.872,6.873l-6.022-14.333c8.655-12.175,7.528-29.218-3.381-40.126
		c-10.907-10.909-27.951-12.035-40.127-3.381l-14.335-6.023l6.874-6.873c4.995-4.996,7.746-11.638,7.746-18.704
		c0-7.066-2.751-13.708-7.746-18.704l-10.465-10.464l85.765-85.764l10.464,10.464c4.996,4.996,11.639,7.747,18.705,7.747
		c7.065,0,13.708-2.751,18.704-7.747l6.872-6.873l6.021,14.329c-3.74,5.242-5.756,11.501-5.756,18.07
		c0,8.334,3.245,16.169,9.138,22.062c5.893,5.893,13.729,9.138,22.063,9.139c0,0,0,0,0.001,0c6.567,0,12.827-2.017,18.068-5.756
		l14.329,6.021l-6.873,6.873c-4.995,4.996-7.746,11.638-7.746,18.704s2.751,13.708,7.746,18.704l10.464,10.463L250.718,336.482z
		 M413.57,199.272l-45.563,45.563c-4.463,4.465-11.729,4.467-16.194,0l-15.187-15.187c-2.163-2.163-3.354-5.039-3.354-8.098
		s1.19-5.935,3.354-8.098l14.658-14.659c0.074-0.071,0.146-0.144,0.219-0.218l17.306-17.306c0.003-0.002,0.005-0.005,0.008-0.007
		c0.002-0.002,0.004-0.005,0.007-0.007l13.365-13.365c4.465-4.465,11.729-4.465,16.193,0l15.188,15.187
		C418.034,187.542,418.034,194.808,413.57,199.272z M424.691,162.509l-5.238,5.238l-10.463-10.463
		c-5.157-5.157-11.931-7.735-18.704-7.735s-13.547,2.578-18.704,7.735l-8.068,8.069l-63.864-63.864l8.069-8.069
		c4.995-4.996,7.747-11.638,7.747-18.704c0-7.065-2.752-13.708-7.747-18.704l-10.465-10.465l5.238-5.238
		C318.812,23.988,340.511,15,363.591,15c23.081,0,44.78,8.988,61.101,25.31C441.012,56.63,450,78.329,450,101.409
		C450,124.489,441.012,146.188,424.691,162.509z"/>
</g>
<g>
</g>
<g>
</g>
<g>
</g>
<g>
</g>
<g>
</g>
<g>
</g>
<g>
</g>
<g>
</g>
<g>
</g>
<g>
</g>
<g>
</g>
<g>
</g>
<g>
</g>
<g>
</g>
<g>
</g>
</svg>
