<?xml version="1.0" encoding="iso-8859-1"?>
<!-- Generator: Adobe Illustrator 17.1.0, SVG Export Plug-In . SVG Version: 6.00 Build 0)  -->
<!DOCTYPE svg PUBLIC "-//W3C//DTD SVG 1.1//EN" "http://www.w3.org/Graphics/SVG/1.1/DTD/svg11.dtd">
<svg version="1.1" id="Capa_1" xmlns="http://www.w3.org/2000/svg" xmlns:xlink="http://www.w3.org/1999/xlink" x="0px" y="0px"
	 viewBox="0 0 465 465" style="enable-background:new 0 0 465 465;" xml:space="preserve">
<path d="M354.713,37.5c0-0.357-0.034-0.705-0.082-1.049c0.13-18.107,0.084-28.51,0.082-28.992C354.69,3.333,351.339,0,347.213,0
	H117.787c-4.126,0-7.477,3.333-7.5,7.458c-0.003,0.482-0.048,10.885,0.082,28.992c-0.048,0.344-0.082,0.692-0.082,1.049
	c0,0.394,0.04,0.779,0.098,1.156c0.496,64.427,3.174,219.154,16.932,374.475c-2.05,1.339-3.407,3.649-3.407,6.28
	c0,3.115,1.9,5.786,4.604,6.919c0.989,10.666,2.03,21.322,3.128,31.94c0.395,3.823,3.617,6.729,7.46,6.729h62.056
	c4.142,0,7.5-3.358,7.5-7.5v-31.457c2.378-1.258,4-3.754,4-6.631s-1.622-5.373-4-6.631V133.041
	c7.726,2.146,15.708,3.229,23.842,3.229s16.116-1.083,23.842-3.229v279.741c-2.378,1.258-4,3.754-4,6.631s1.622,5.373,4,6.631V457.5
	c0,4.142,3.358,7.5,7.5,7.5h62.056c3.843,0,7.065-2.905,7.46-6.729c1.098-10.618,2.14-21.275,3.128-31.94
	c2.704-1.133,4.604-3.804,4.604-6.919c0-2.631-1.357-4.942-3.407-6.28c13.758-155.321,16.435-310.049,16.932-374.475
	C354.673,38.279,354.713,37.894,354.713,37.5z M339.672,30H240V15h99.722C339.719,18.714,339.707,23.761,339.672,30z M240,45h11.829
	v17.951c0,7.794-4.931,14.44-11.829,17.034V45z M225,15v15h-99.672c-0.034-6.239-0.047-11.286-0.05-15H225z M145.874,450
	c-0.776-7.683-1.523-15.382-2.243-23.088h50.027V450H145.874z M204.039,115.603c-2.314-0.963-4.957-0.707-7.043,0.685
	c-2.086,1.391-3.338,3.732-3.338,6.239v289.385h-51.391C128.984,262.028,126.06,112.63,125.439,45h43.604
	c-2.191,13.905-14.255,24.574-28.766,24.574c-4.142,0-7.5,3.358-7.5,7.5s3.358,7.5,7.5,7.5c22.794,0,41.605-17.374,43.89-39.574H225
	v75.893C217.788,120.169,210.764,118.401,204.039,115.603z M240,120.893V95.539c15.269-2.984,26.829-16.459,26.829-32.588V45h14.005
	c2.284,22.2,21.096,39.574,43.89,39.574c4.142,0,7.5-3.358,7.5-7.5s-3.358-7.5-7.5-7.5c-14.511,0-26.575-10.669-28.766-24.574
	h43.604c-0.621,67.63-3.545,217.028-16.828,366.912h-51.391V122.527c0-2.507-1.252-4.848-3.338-6.239
	c-2.086-1.392-4.728-1.648-7.043-0.685C254.236,118.401,247.212,120.169,240,120.893z M271.342,450v-23.088h50.027
	c-0.719,7.706-1.466,15.405-2.243,23.088H271.342z"/>
<g>
</g>
<g>
</g>
<g>
</g>
<g>
</g>
<g>
</g>
<g>
</g>
<g>
</g>
<g>
</g>
<g>
</g>
<g>
</g>
<g>
</g>
<g>
</g>
<g>
</g>
<g>
</g>
<g>
</g>
</svg>
