<?xml version="1.0" encoding="iso-8859-1"?>
<!-- Generator: Adobe Illustrator 17.1.0, SVG Export Plug-In . SVG Version: 6.00 Build 0)  -->
<!DOCTYPE svg PUBLIC "-//W3C//DTD SVG 1.1//EN" "http://www.w3.org/Graphics/SVG/1.1/DTD/svg11.dtd">
<svg version="1.1" id="Capa_1" xmlns="http://www.w3.org/2000/svg" xmlns:xlink="http://www.w3.org/1999/xlink" x="0px" y="0px"
	 viewBox="0 0 465 465" style="enable-background:new 0 0 465 465;" xml:space="preserve">
<g>
	<path d="M329.706,0H135.293c-4.142,0-7.5,3.357-7.5,7.5v38.85c0,1.901,0.722,3.731,2.02,5.12l52.291,55.963
		c1.576,1.688,3.842,2.553,6.142,2.351c2.3-0.204,4.378-1.456,5.633-3.394l4.115-6.355L225,149.085V457.5c0,4.143,3.358,7.5,7.5,7.5
		c4.143,0,7.5-3.357,7.5-7.5V149.085l27.006-49.051l4.115,6.355c1.255,1.938,3.333,3.19,5.633,3.395
		c0.222,0.02,0.442,0.029,0.663,0.029c2.066,0,4.055-0.854,5.479-2.38l52.29-55.963c1.298-1.389,2.02-3.219,2.02-5.12V7.5
		C337.206,3.357,333.849,0,329.706,0z M322.206,43.391l-43.714,46.785l-5.692-8.79c-0.003-0.005-0.007-0.01-0.01-0.016
		l-13.014-20.097l37.805-21.342c3.606-2.036,4.88-6.611,2.844-10.219c-2.037-3.606-6.611-4.878-10.219-2.844l-44.744,25.26
		c-1.801,1.017-3.102,2.732-3.596,4.74c-0.494,2.009-0.137,4.132,0.988,5.867l14.897,23.005L232.5,131.606l-25.251-45.862
		l14.898-23.006c1.124-1.736,1.481-3.859,0.988-5.868c-0.494-2.008-1.795-3.724-3.596-4.74l-44.744-25.26
		c-3.607-2.039-8.183-0.764-10.218,2.844c-2.036,3.607-0.763,8.183,2.844,10.219l37.804,21.342l-13.007,20.086
		c-0.008,0.012-0.016,0.024-0.023,0.036l-5.686,8.78l-43.715-46.785V15h179.413V43.391z"/>
	<path d="M112.351,299.369V36.761c0-2.286-1.043-4.448-2.833-5.871c-1.791-1.424-4.134-1.953-6.358-1.436L57.407,40.043
		c-3.401,0.787-5.809,3.816-5.809,7.307v4.038l-37.546,8.69c-4.036,0.934-6.55,4.962-5.616,8.998c0.802,3.467,3.888,5.811,7.3,5.811
		c0.56,0,1.129-0.063,1.698-0.195l34.164-7.907v232.586c-2.378,1.258-4,3.753-4,6.631s1.622,5.373,4,6.631V382.5
		c0,4.143,3.358,7.5,7.5,7.5h45.753c4.142,0,7.5-3.357,7.5-7.5v-69.869c2.378-1.258,4-3.753,4-6.631
		S114.729,300.627,112.351,299.369z M97.351,375H66.598v-61.5h30.753V375z M97.351,298.5H66.598V53.313l30.753-7.118V298.5z"/>
	<path d="M97.954,405H65.997c-4.142,0-7.5,3.357-7.5,7.5v29.021c0,12.946,10.532,23.479,23.479,23.479s23.479-10.532,23.479-23.479
		V412.5C105.454,408.357,102.096,405,97.954,405z M90.454,441.521c0,4.675-3.803,8.479-8.479,8.479s-8.479-3.804-8.479-8.479V420
		h16.957V441.521z"/>
	<path d="M450.948,60.077l-37.547-8.69V47.35c0-3.49-2.408-6.52-5.809-7.307L361.84,29.454c-2.228-0.517-4.567,0.014-6.358,1.436
		c-1.79,1.423-2.833,3.585-2.833,5.871v262.608c-2.378,1.258-4,3.753-4,6.631s1.622,5.373,4,6.631V382.5c0,4.143,3.357,7.5,7.5,7.5
		h45.753c4.143,0,7.5-3.357,7.5-7.5v-69.869c2.378-1.258,4-3.753,4-6.631s-1.622-5.373-4-6.631V66.783l34.164,7.907
		c0.569,0.132,1.138,0.195,1.698,0.195c3.412,0,6.498-2.345,7.3-5.811C457.498,65.039,454.983,61.011,450.948,60.077z M398.401,375
		h-30.753v-61.5h30.753V375z M398.401,298.5h-30.753V46.194l30.753,7.118V298.5z"/>
	<path d="M399.004,405h-31.957c-4.143,0-7.5,3.357-7.5,7.5v29.021c0,12.946,10.532,23.479,23.479,23.479
		s23.479-10.532,23.479-23.479V412.5C406.504,408.357,403.146,405,399.004,405z M391.504,441.521c0,4.675-3.804,8.479-8.479,8.479
		s-8.479-3.804-8.479-8.479V420h16.957V441.521z"/>
	<path d="M263,371.414c-4.411,0-8,3.589-8,8s3.589,8,8,8s8-3.589,8-8S267.411,371.414,263,371.414z"/>
	<path d="M263,293.828c-4.411,0-8,3.589-8,8s3.589,8,8,8s8-3.589,8-8S267.411,293.828,263,293.828z"/>
	<path d="M263,216.242c-4.411,0-8,3.589-8,8s3.589,8,8,8s8-3.589,8-8S267.411,216.242,263,216.242z"/>
</g>
<g>
</g>
<g>
</g>
<g>
</g>
<g>
</g>
<g>
</g>
<g>
</g>
<g>
</g>
<g>
</g>
<g>
</g>
<g>
</g>
<g>
</g>
<g>
</g>
<g>
</g>
<g>
</g>
<g>
</g>
</svg>
