<?xml version="1.0" encoding="iso-8859-1"?>
<!-- Generator: Adobe Illustrator 17.1.0, SVG Export Plug-In . SVG Version: 6.00 Build 0)  -->
<!DOCTYPE svg PUBLIC "-//W3C//DTD SVG 1.1//EN" "http://www.w3.org/Graphics/SVG/1.1/DTD/svg11.dtd">
<svg version="1.1" id="Capa_1" xmlns="http://www.w3.org/2000/svg" xmlns:xlink="http://www.w3.org/1999/xlink" x="0px" y="0px"
	 viewBox="0 0 465 465" style="enable-background:new 0 0 465 465;" xml:space="preserve">
<path d="M464.987,176.882c-0.005-0.148-0.009-0.295-0.022-0.443c-0.011-0.117-0.03-0.231-0.046-0.347
	c-0.018-0.126-0.034-0.253-0.058-0.378c-0.024-0.123-0.055-0.243-0.084-0.364c-0.029-0.117-0.055-0.233-0.09-0.349
	c-0.035-0.119-0.077-0.236-0.118-0.352c-0.04-0.114-0.079-0.229-0.125-0.341c-0.046-0.112-0.097-0.221-0.148-0.33
	c-0.052-0.112-0.103-0.225-0.162-0.335c-0.056-0.107-0.119-0.209-0.18-0.313c-0.063-0.107-0.124-0.214-0.193-0.318
	c-0.071-0.107-0.148-0.209-0.224-0.312c-0.069-0.094-0.135-0.188-0.209-0.279c-0.093-0.115-0.194-0.224-0.294-0.333
	c-0.057-0.063-0.108-0.129-0.168-0.19l-121.536-124.5c-0.991-1.016-2.25-1.729-3.631-2.057l-53.118-12.638
	c-0.01-0.002-0.02-0.002-0.03-0.005c-0.367-0.086-0.737-0.139-1.108-0.169c-0.048-0.004-0.096-0.007-0.144-0.01
	c-2.359-0.141-4.703,0.839-6.248,2.728c-0.004,0.005-0.008,0.011-0.013,0.016c-0.24,0.295-0.463,0.609-0.661,0.947
	c-0.009,0.016-0.022,0.029-0.031,0.045c-0.049,0.083-0.203,0.342-0.463,0.738c-0.022,0.033-0.047,0.071-0.071,0.106
	c-0.056,0.085-0.118,0.177-0.183,0.272c-0.096,0.14-0.198,0.288-0.314,0.452c-0.001,0.002-0.003,0.004-0.004,0.006
	c-3.435,4.839-15.774,19.494-39.768,20.654c-0.071,0.003-0.139,0.011-0.211,0.014c-0.926,0.042-1.87,0.063-2.831,0.063
	c-30.475,0-43.315-21.395-43.825-22.268c-0.187-0.33-0.402-0.632-0.629-0.922c-0.042-0.054-0.083-0.108-0.126-0.16
	c-0.231-0.278-0.477-0.538-0.74-0.776c-0.036-0.032-0.074-0.062-0.11-0.093c-0.264-0.229-0.54-0.441-0.83-0.629
	c-0.022-0.014-0.043-0.031-0.065-0.045c-0.299-0.19-0.612-0.352-0.933-0.497c-0.065-0.029-0.129-0.058-0.195-0.085
	c-0.318-0.133-0.643-0.248-0.976-0.336c-0.054-0.014-0.109-0.024-0.163-0.037c-0.315-0.076-0.634-0.132-0.956-0.166
	c-0.051-0.005-0.1-0.015-0.151-0.019c-0.353-0.031-0.709-0.032-1.065-0.012c-0.064,0.004-0.127,0.008-0.191,0.013
	c-0.366,0.03-0.732,0.083-1.095,0.168c-0.01,0.002-0.021,0.002-0.031,0.005l-31.527,7.501c-0.092,0.019-0.183,0.043-0.275,0.065
	L127.3,45.34c-1.381,0.328-2.64,1.041-3.631,2.057L2.133,171.897c-0.06,0.061-0.111,0.128-0.168,0.19
	c-0.1,0.109-0.2,0.218-0.294,0.333c-0.074,0.091-0.14,0.186-0.209,0.279c-0.076,0.103-0.153,0.205-0.224,0.312
	c-0.069,0.104-0.13,0.211-0.193,0.318c-0.061,0.104-0.124,0.206-0.18,0.313c-0.058,0.11-0.109,0.223-0.162,0.335
	c-0.051,0.109-0.103,0.218-0.148,0.33c-0.046,0.113-0.085,0.227-0.125,0.341c-0.041,0.117-0.083,0.233-0.118,0.352
	c-0.034,0.115-0.061,0.232-0.09,0.349c-0.03,0.121-0.061,0.241-0.084,0.364c-0.024,0.125-0.04,0.252-0.058,0.378
	c-0.016,0.116-0.035,0.23-0.046,0.347c-0.014,0.147-0.017,0.295-0.022,0.443C0.01,176.967,0,177.05,0,177.136v144.528
	c0,9.332,5.921,17.306,14.203,20.366v22.243c0,4.143,3.358,7.5,7.5,7.5h34.961c4.142,0,7.5-3.357,7.5-7.5V342.03
	c8.282-3.06,14.203-11.034,14.203-20.366v-98.85l43.168-41.572V382.78c0,9.332,5.921,17.306,14.203,20.366v21.851
	c0,4.143,3.358,7.5,7.5,7.5h178.521c4.142,0,7.5-3.357,7.5-7.5v-21.851c8.282-3.06,14.203-11.034,14.203-20.366V181.242
	l43.168,41.572v98.85c0,9.332,5.921,17.306,14.203,20.366v22.243c0,4.143,3.358,7.5,7.5,7.5h34.961c4.142,0,7.5-3.357,7.5-7.5
	V342.03c8.282-3.06,14.203-11.034,14.203-20.366V177.136C465,177.05,464.99,176.967,464.987,176.882z M49.165,356.774H29.203
	v-13.406h19.961V356.774z M328.464,382.78c0,3.133-2.163,5.762-5.071,6.494c-0.526-0.117-1.071-0.183-1.632-0.183
	c-0.834,0-1.633,0.142-2.382,0.393h-126.14c-4.142,0-7.5,3.357-7.5,7.5s3.358,7.5,7.5,7.5h121.021v13.014H150.739v-13.014h12.5
	c4.142,0,7.5-3.357,7.5-7.5s-3.358-7.5-7.5-7.5h-17.618c-0.749-0.251-1.548-0.393-2.382-0.393c-0.561,0-1.106,0.066-1.632,0.183
	c-2.909-0.732-5.071-3.361-5.071-6.494V266.737h191.928V382.78z M328.464,251.737H136.536v-37.609l22.971,14.556
	c1.225,0.776,2.62,1.165,4.014,1.165s2.789-0.389,4.014-1.165l30.472-19.308l30.474,19.308c2.451,1.553,5.578,1.553,8.028,0
	l30.473-19.308l30.477,19.309c2.45,1.553,5.577,1.553,8.027,0l22.978-14.557V251.737z M328.464,196.369l-26.991,17.1l-30.478-19.309
	c-2.45-1.553-5.578-1.552-8.028,0.001l-30.472,19.308l-30.474-19.308c-2.451-1.553-5.578-1.553-8.028,0l-30.472,19.308
	l-26.985-17.099v-25.262h191.928V196.369z M435.797,356.774h-19.961v-13.406h19.961V356.774z M450,321.664
	c0,3.696-3.007,6.703-6.703,6.703h-34.961c-3.696,0-6.703-3.007-6.703-6.703V143.171c0-4.143-3.358-7.5-7.5-7.5s-7.5,3.357-7.5,7.5
	v58.818l-45.466-43.784c-0.029-0.028-0.063-0.049-0.093-0.077c-0.212-0.198-0.435-0.382-0.668-0.554
	c-0.051-0.038-0.101-0.078-0.153-0.114c-0.265-0.185-0.542-0.353-0.83-0.503c-0.053-0.028-0.107-0.051-0.161-0.077
	c-0.255-0.125-0.517-0.236-0.787-0.332c-0.054-0.019-0.106-0.041-0.16-0.059c-0.304-0.1-0.617-0.182-0.937-0.244
	c-0.064-0.012-0.129-0.019-0.193-0.029c-0.252-0.042-0.509-0.07-0.769-0.085c-0.095-0.006-0.19-0.012-0.285-0.014
	c-0.056-0.001-0.11-0.008-0.166-0.008H129.036c-0.056,0-0.11,0.007-0.166,0.008c-0.096,0.002-0.19,0.009-0.285,0.014
	c-0.26,0.016-0.516,0.044-0.769,0.085c-0.064,0.01-0.129,0.017-0.193,0.029c-0.32,0.061-0.633,0.143-0.937,0.244
	c-0.054,0.018-0.107,0.04-0.16,0.059c-0.27,0.096-0.533,0.207-0.787,0.332c-0.054,0.026-0.108,0.05-0.161,0.077
	c-0.288,0.15-0.565,0.318-0.83,0.503c-0.052,0.036-0.102,0.077-0.153,0.114c-0.234,0.172-0.456,0.357-0.668,0.554
	c-0.03,0.028-0.064,0.049-0.093,0.077l-45.466,43.784v-58.562c0-4.143-3.358-7.5-7.5-7.5s-7.5,3.357-7.5,7.5v178.237
	c0,3.696-3.007,6.703-6.703,6.703H21.703c-3.696,0-6.703-3.007-6.703-6.703V180.19L132.885,59.43l13.97-3.324
	c9.349,14.137,36.346,46.908,85.644,46.908c11.072,0,21.778-1.674,31.823-4.975c3.935-1.293,6.077-5.531,4.784-9.467
	c-1.292-3.934-5.533-6.077-9.466-4.783c-8.531,2.803-17.662,4.225-27.14,4.225c-37.541,0-59.913-22.291-69.946-35.643l16.384-3.898
	c0.063,0.081,0.134,0.167,0.199,0.249c0.081,0.102,0.162,0.204,0.246,0.308c0.201,0.25,0.411,0.507,0.629,0.769
	c0.071,0.085,0.138,0.168,0.211,0.255c0.29,0.345,0.594,0.699,0.913,1.062c0.067,0.076,0.138,0.154,0.206,0.23
	c0.259,0.292,0.526,0.587,0.804,0.887c0.111,0.12,0.223,0.24,0.337,0.361c0.265,0.282,0.538,0.568,0.819,0.857
	c0.108,0.111,0.212,0.22,0.323,0.332c0.388,0.393,0.788,0.79,1.205,1.192c0.061,0.058,0.125,0.117,0.187,0.176
	c0.36,0.344,0.732,0.691,1.114,1.039c0.141,0.128,0.284,0.256,0.428,0.385c0.332,0.298,0.673,0.596,1.021,0.895
	c0.145,0.125,0.289,0.25,0.437,0.375c0.49,0.414,0.991,0.828,1.512,1.242c0.008,0.006,0.016,0.013,0.024,0.019
	c0.51,0.405,1.039,0.809,1.579,1.212c0.165,0.123,0.334,0.245,0.502,0.368c0.408,0.298,0.823,0.595,1.247,0.89
	c0.182,0.127,0.364,0.254,0.55,0.381c0.519,0.353,1.049,0.704,1.591,1.051c0.081,0.052,0.158,0.105,0.24,0.156
	c0.622,0.394,1.262,0.782,1.916,1.165c0.184,0.108,0.373,0.213,0.559,0.32c0.491,0.281,0.99,0.559,1.499,0.833
	c0.22,0.119,0.44,0.237,0.664,0.354c0.563,0.295,1.137,0.584,1.721,0.869c0.149,0.072,0.293,0.147,0.443,0.219
	c0.73,0.349,1.477,0.688,2.24,1.018c0.193,0.083,0.392,0.163,0.587,0.245c0.588,0.248,1.184,0.489,1.792,0.724
	c0.255,0.099,0.512,0.196,0.771,0.293c0.618,0.23,1.247,0.452,1.884,0.668c0.211,0.071,0.417,0.146,0.63,0.215
	c0.842,0.276,1.699,0.539,2.575,0.787c0.183,0.052,0.372,0.098,0.557,0.149c0.706,0.194,1.422,0.378,2.15,0.553
	c0.291,0.07,0.584,0.136,0.879,0.203c0.682,0.154,1.373,0.298,2.074,0.434c0.269,0.052,0.535,0.108,0.807,0.157
	c0.958,0.174,1.93,0.334,2.923,0.473c0.133,0.019,0.272,0.032,0.406,0.05c0.866,0.116,1.746,0.216,2.638,0.303
	c0.321,0.031,0.646,0.057,0.971,0.085c0.758,0.064,1.525,0.116,2.301,0.158c0.322,0.017,0.641,0.037,0.966,0.05
	c1.08,0.045,2.172,0.074,3.287,0.074s2.208-0.03,3.287-0.074c0.325-0.013,0.645-0.033,0.966-0.05
	c0.776-0.042,1.544-0.094,2.301-0.158c0.325-0.027,0.65-0.053,0.971-0.085c0.893-0.087,1.773-0.187,2.639-0.303
	c0.134-0.018,0.272-0.031,0.405-0.05c0.993-0.138,1.965-0.298,2.923-0.473c0.272-0.05,0.538-0.105,0.807-0.157
	c0.701-0.136,1.392-0.28,2.074-0.434c0.294-0.066,0.587-0.133,0.878-0.203c0.728-0.174,1.444-0.359,2.15-0.553
	c0.185-0.051,0.374-0.097,0.557-0.149c0.875-0.248,1.733-0.511,2.574-0.786c0.214-0.07,0.421-0.145,0.632-0.216
	c0.637-0.216,1.265-0.437,1.882-0.667c0.259-0.097,0.517-0.194,0.773-0.293c0.607-0.235,1.203-0.476,1.79-0.723
	c0.195-0.082,0.395-0.162,0.588-0.245c0.763-0.33,1.51-0.669,2.239-1.017c0.151-0.072,0.297-0.147,0.446-0.22
	c0.582-0.284,1.155-0.572,1.716-0.867c0.225-0.118,0.446-0.237,0.667-0.356c0.507-0.273,1.005-0.55,1.494-0.831
	c0.187-0.108,0.378-0.214,0.562-0.322c0.653-0.383,1.292-0.77,1.913-1.163c0.085-0.054,0.166-0.109,0.25-0.163
	c0.539-0.345,1.066-0.693,1.581-1.045c0.188-0.128,0.371-0.256,0.555-0.385c0.421-0.294,0.834-0.588,1.239-0.885
	c0.169-0.124,0.34-0.247,0.507-0.372c0.534-0.399,1.058-0.799,1.563-1.2c0.013-0.01,0.027-0.021,0.04-0.031
	c0.52-0.413,1.019-0.827,1.508-1.239c0.15-0.126,0.294-0.252,0.441-0.378c0.346-0.298,0.685-0.595,1.016-0.891
	c0.145-0.13,0.29-0.259,0.432-0.389c0.378-0.345,0.745-0.688,1.102-1.028c0.065-0.063,0.135-0.126,0.2-0.188
	c0.415-0.4,0.813-0.795,1.199-1.186c0.114-0.116,0.222-0.229,0.334-0.343c0.276-0.284,0.544-0.564,0.804-0.841
	c0.118-0.126,0.235-0.251,0.35-0.375c0.271-0.294,0.533-0.583,0.787-0.868c0.073-0.082,0.149-0.165,0.22-0.246
	c0.317-0.36,0.618-0.711,0.907-1.054c0.078-0.092,0.149-0.18,0.224-0.271c0.212-0.256,0.418-0.506,0.614-0.75
	c0.087-0.108,0.172-0.214,0.256-0.32c0.064-0.08,0.132-0.164,0.194-0.243l16.377,3.896c-4.06,5.41-10.15,12.323-18.428,18.582
	c-3.304,2.498-3.957,7.202-1.459,10.506c1.475,1.95,3.718,2.977,5.988,2.977c1.575,0,3.164-0.494,4.518-1.518
	c12.467-9.427,20.619-19.985,25.097-26.808l13.96,3.322L450,180.19V321.664z"/>
<g>
</g>
<g>
</g>
<g>
</g>
<g>
</g>
<g>
</g>
<g>
</g>
<g>
</g>
<g>
</g>
<g>
</g>
<g>
</g>
<g>
</g>
<g>
</g>
<g>
</g>
<g>
</g>
<g>
</g>
</svg>
