<?xml version="1.0" encoding="iso-8859-1"?>
<!-- Generator: Adobe Illustrator 17.1.0, SVG Export Plug-In . SVG Version: 6.00 Build 0)  -->
<!DOCTYPE svg PUBLIC "-//W3C//DTD SVG 1.1//EN" "http://www.w3.org/Graphics/SVG/1.1/DTD/svg11.dtd">
<svg version="1.1" id="Capa_1" xmlns="http://www.w3.org/2000/svg" xmlns:xlink="http://www.w3.org/1999/xlink" x="0px" y="0px"
	 viewBox="0 0 465.001 465.001" style="enable-background:new 0 0 465.001 465.001;" xml:space="preserve">
<path d="M463.607,388.373l-12.343-17.309c-0.158-0.254-0.332-0.494-0.515-0.723L241.362,76.714l36.885-51.724
	c2.405-3.373,1.62-8.056-1.752-10.461c-3.375-2.406-8.057-1.62-10.461,1.752L239.66,53.266V7.84c0-4.142-3.357-7.5-7.5-7.5
	s-7.5,3.358-7.5,7.5v45.451l-26.393-37.011c-2.404-3.372-7.087-4.158-10.461-1.752c-3.372,2.405-4.157,7.088-1.752,10.461
	l36.885,51.724L1.394,387.391c-2.405,3.373-1.62,8.056,1.752,10.461c1.32,0.941,2.842,1.394,4.348,1.394
	c2.343,0,4.649-1.094,6.113-3.146l8.215-11.52l115.409,56.956l-4.319,13.307c-1.278,3.939,0.879,8.17,4.818,9.449
	c3.939,1.276,8.17-0.878,9.449-4.819l84.98-261.854l84.98,261.854c1.029,3.171,3.97,5.187,7.132,5.187
	c0.768,0,1.548-0.119,2.317-0.368c3.939-1.279,6.097-5.509,4.818-9.449l-4.319-13.307l115.395-56.949l8.91,12.494
	c1.464,2.052,3.771,3.146,6.113,3.146c1.506,0,3.027-0.453,4.348-1.394C465.227,396.429,466.012,391.745,463.607,388.373z
	 M322.41,427.118l-65.12-200.656l103.218,161.146c1.432,2.235,3.852,3.456,6.322,3.456c1.385,0,2.786-0.383,4.038-1.186
	c3.488-2.234,4.505-6.873,2.271-10.361L238.475,169.277c-0.049-0.076-0.108-0.143-0.16-0.218c-0.076-0.11-0.154-0.216-0.235-0.321
	c-0.148-0.191-0.305-0.372-0.47-0.547c-0.081-0.086-0.159-0.175-0.244-0.257c-0.228-0.221-0.469-0.426-0.721-0.615
	c-0.03-0.023-0.057-0.05-0.088-0.072c-0.286-0.207-0.588-0.389-0.9-0.554c-0.095-0.05-0.196-0.091-0.293-0.138
	c-0.226-0.107-0.454-0.205-0.69-0.289c-0.119-0.043-0.239-0.081-0.361-0.117c-0.237-0.071-0.478-0.128-0.722-0.176
	c-0.114-0.022-0.225-0.048-0.34-0.065c-0.359-0.053-0.722-0.087-1.091-0.087s-0.732,0.035-1.091,0.087
	c-0.115,0.017-0.226,0.043-0.34,0.065c-0.244,0.048-0.485,0.105-0.722,0.176c-0.122,0.037-0.242,0.075-0.361,0.117
	c-0.236,0.084-0.465,0.182-0.69,0.289c-0.098,0.046-0.198,0.087-0.293,0.138c-0.312,0.165-0.614,0.346-0.9,0.554
	c-0.031,0.022-0.057,0.049-0.088,0.072c-0.253,0.189-0.493,0.394-0.721,0.615c-0.085,0.082-0.163,0.171-0.244,0.257
	c-0.164,0.175-0.322,0.355-0.47,0.547c-0.081,0.105-0.16,0.211-0.235,0.321c-0.051,0.074-0.111,0.141-0.16,0.218L91.18,379.518
	c-2.234,3.488-1.218,8.127,2.271,10.361c3.484,2.233,8.126,1.218,10.36-2.27l103.218-161.146l-65.12,200.656L30.645,372.208
	L232.151,89.632l201.511,282.583L322.41,427.118z"/>
<g>
</g>
<g>
</g>
<g>
</g>
<g>
</g>
<g>
</g>
<g>
</g>
<g>
</g>
<g>
</g>
<g>
</g>
<g>
</g>
<g>
</g>
<g>
</g>
<g>
</g>
<g>
</g>
<g>
</g>
</svg>
