<?xml version="1.0" encoding="iso-8859-1"?>
<!-- Generator: Adobe Illustrator 17.1.0, SVG Export Plug-In . SVG Version: 6.00 Build 0)  -->
<!DOCTYPE svg PUBLIC "-//W3C//DTD SVG 1.1//EN" "http://www.w3.org/Graphics/SVG/1.1/DTD/svg11.dtd">
<svg version="1.1" id="Capa_1" xmlns="http://www.w3.org/2000/svg" xmlns:xlink="http://www.w3.org/1999/xlink" x="0px" y="0px"
	 viewBox="0 0 465.029 465.029" style="enable-background:new 0 0 465.029 465.029;" xml:space="preserve">
<path d="M341.006,140.865c17.202-20.491,79.536-94.767,97.42-116.371c4.879-5.895,4.626-13.162-0.678-19.44
	c-0.271-0.321-0.569-0.619-0.891-0.891c-6.279-5.303-13.547-5.555-19.439-0.677c-21.607,17.886-95.892,80.23-116.37,97.42
	l-7.531-7.53l53.291-53.291c2.145-2.145,2.786-5.371,1.625-8.173c-1.16-2.803-3.896-4.63-6.929-4.63
	c-85.045,0-164.999,33.118-225.135,93.254s-93.254,140.09-93.254,225.135c0,11.571,0.626,23.127,1.865,34.592
	c0.006,0.073,0.014,0.146,0.022,0.219c1.269,11.664,3.173,23.232,5.706,34.621c0.777,3.495,3.876,5.873,7.314,5.873
	c0.539,0,1.087-0.059,1.635-0.18c4.044-0.899,6.593-4.906,5.693-8.95c-1.799-8.086-3.265-16.268-4.396-24.511
	c34.444,1.829,57.782,14.669,84.481,29.376c39.082,21.526,87.721,48.317,188.619,48.317c4.143,0,7.5-3.358,7.5-7.5
	c0-38.308-18.206-63.911-37.48-91.018c-16.333-22.969-33.222-46.72-39.647-80.251c-0.779-4.068-4.709-6.736-8.777-5.955
	c-4.068,0.78-6.734,4.709-5.955,8.778c7.041,36.739,25.696,62.974,42.155,86.121c17.188,24.173,32.214,45.302,34.426,74.771
	c-91.69-1.282-135.141-25.217-173.603-46.402c-27.797-15.311-54.144-29.81-93.401-31.329c-0.766-8.823-1.158-17.693-1.158-26.572
	c0-161.02,126.086-293.144,284.714-302.82l-45.223,45.222c-2.929,2.929-2.929,7.678,0,10.606l25.612,25.612
	c2.93,2.929,7.678,2.929,10.607,0c2.929-2.929,2.929-7.678,0-10.606l-2.132-2.132c21.565-18.103,92.617-77.728,114.637-95.973
	C404.838,41.523,325.9,135.53,325.098,136.485c-2.502,2.979-2.311,7.376,0.439,10.126l92.64,92.639
	c3.655,3.656,5.669,8.517,5.669,13.687c0,5.17-2.014,10.031-5.669,13.687c-7.549,7.548-19.827,7.546-27.376,0
	c-0.994-0.995-2.248-1.689-3.618-2.005l-86.192-19.863c-1.761-0.405-3.61-0.162-5.208,0.688
	c-28.493,15.165-62.989,10.006-85.835-12.839c-23.148-23.148-28.035-59.168-11.883-87.594c2.047-3.602,0.786-8.18-2.815-10.227
	s-8.18-0.785-10.226,2.816c-19.478,34.276-13.589,77.706,14.317,105.611c13.591,13.59,30.807,22.194,49.788,24.882
	c17.399,2.462,35.449-0.414,51.153-8.106l81.571,18.797c6.456,5.662,14.546,8.493,22.635,8.493c8.799,0,17.597-3.349,24.295-10.046
	c6.489-6.489,10.063-15.117,10.063-24.294c0-9.177-3.574-17.805-10.063-24.293L341.006,140.865z"/>
<g>
</g>
<g>
</g>
<g>
</g>
<g>
</g>
<g>
</g>
<g>
</g>
<g>
</g>
<g>
</g>
<g>
</g>
<g>
</g>
<g>
</g>
<g>
</g>
<g>
</g>
<g>
</g>
<g>
</g>
</svg>
