<?xml version="1.0" encoding="iso-8859-1"?>
<!-- Generator: Adobe Illustrator 17.1.0, SVG Export Plug-In . SVG Version: 6.00 Build 0)  -->
<!DOCTYPE svg PUBLIC "-//W3C//DTD SVG 1.1//EN" "http://www.w3.org/Graphics/SVG/1.1/DTD/svg11.dtd">
<svg version="1.1" id="Capa_1" xmlns="http://www.w3.org/2000/svg" xmlns:xlink="http://www.w3.org/1999/xlink" x="0px" y="0px"
	 viewBox="0 0 465 465" style="enable-background:new 0 0 465 465;" xml:space="preserve">
<g>
	<path d="M88.734,350.096c0,4.142,3.357,7.5,7.5,7.5h51.337l0.079,7.883c0.042,4.116,3.392,7.425,7.498,7.424
		c0.025,0,0.052,0,0.077,0c4.143-0.042,7.466-3.433,7.425-7.575l-0.154-15.308c-0.042-4.112-3.388-7.424-7.5-7.424H96.234
		C92.092,342.596,88.734,345.954,88.734,350.096z"/>
	<path d="M398.996,179.487c-0.05-1.176-0.377-2.325-0.953-3.352c-31.588-56.264-37.768-100.136-37.768-156.903
		c0-3.183-2.009-6.02-5.012-7.075L321.9,0.424c-2.045-0.718-4.301-0.519-6.188,0.551c-1.886,1.069-3.217,2.902-3.649,5.026
		c-0.523,2.567-1.056,5.196-1.6,7.882c-0.414,2.042-0.836,4.126-1.265,6.236c-22.574,15.727-49.021,24.047-76.699,24.047
		c-27.679,0-54.126-8.32-76.699-24.047c-0.429-2.11-0.851-4.193-1.265-6.235c-0.544-2.686-1.076-5.314-1.6-7.882
		c-0.433-2.124-1.764-3.957-3.649-5.026c-1.888-1.069-4.143-1.269-6.188-0.551l-33.363,11.733c-3.003,1.056-5.012,3.892-5.012,7.075
		c0,56.767-6.18,100.639-37.768,156.903c-0.576,1.027-0.903,2.175-0.953,3.352L55.092,435.356c-0.164,3.838,2.6,7.179,6.399,7.739
		l148.091,21.824c0.366,0.054,0.732,0.08,1.095,0.08c2.483,0,4.836-1.234,6.239-3.34l15.584-23.376l15.584,23.376
		c1.403,2.105,3.756,3.34,6.239,3.34c0.362,0,0.729-0.026,1.095-0.08l148.091-21.824c3.8-0.56,6.563-3.901,6.399-7.739
		L398.996,179.487z M225,422.493l-17.93,26.895L70.366,429.241l10.548-247.334c31.446-56.595,38.398-101.167,38.792-157.355
		l20.244-7.12c0.545,2.693,1.108,5.464,1.68,8.269c0.012,0.076,0.032,0.151,0.046,0.226c12.502,61.283,31.978,147.79,83.323,202.347
		V422.493z M160.027,40.45c22.068,12.288,46.799,18.716,72.472,18.716c25.672,0,50.403-6.428,72.472-18.715
		c-12.021,56.161-30.949,127.072-72.472,173.832C190.977,167.522,172.049,96.611,160.027,40.45z M257.93,449.387L240,422.493
		V228.275c53.761-57.124,72.587-149.299,85.05-210.843l20.244,7.12c0.394,56.188,7.346,100.76,38.792,157.355l10.548,247.334
		L257.93,449.387z"/>
	<path d="M368.765,342.596h-58.762c-4.143,0-7.5,3.358-7.5,7.5v15.308c0,4.142,3.357,7.5,7.5,7.5s7.5-3.358,7.5-7.5v-7.808h51.262
		c4.143,0,7.5-3.358,7.5-7.5S372.908,342.596,368.765,342.596z"/>
	<path d="M263,367.151c-4.411,0-8,3.589-8,8s3.589,8,8,8s8-3.589,8-8S267.411,367.151,263,367.151z"/>
	<path d="M263,317.04c-4.411,0-8,3.589-8,8s3.589,8,8,8s8-3.589,8-8S267.411,317.04,263,317.04z"/>
	<path d="M263,266.928c-4.411,0-8,3.589-8,8s3.589,8,8,8s8-3.589,8-8S267.411,266.928,263,266.928z"/>
</g>
<g>
</g>
<g>
</g>
<g>
</g>
<g>
</g>
<g>
</g>
<g>
</g>
<g>
</g>
<g>
</g>
<g>
</g>
<g>
</g>
<g>
</g>
<g>
</g>
<g>
</g>
<g>
</g>
<g>
</g>
</svg>
