<?xml version="1.0" encoding="iso-8859-1"?>
<!-- Generator: Adobe Illustrator 17.1.0, SVG Export Plug-In . SVG Version: 6.00 Build 0)  -->
<!DOCTYPE svg PUBLIC "-//W3C//DTD SVG 1.1//EN" "http://www.w3.org/Graphics/SVG/1.1/DTD/svg11.dtd">
<svg version="1.1" id="Capa_1" xmlns="http://www.w3.org/2000/svg" xmlns:xlink="http://www.w3.org/1999/xlink" x="0px" y="0px"
	 viewBox="0 0 487 487" style="enable-background:new 0 0 487 487;" xml:space="preserve">
<g>
	<path d="M479.5,306.005h-66.903c-0.033,0-0.064-0.005-0.097-0.005s-0.064,0.004-0.097,0.005h-25.438
		C395.519,286.386,400,265.008,400,243.5c0-21.51-4.481-42.89-13.037-62.51h25.344c0.065,0.002,0.128,0.01,0.194,0.01
		s0.129-0.008,0.194-0.01H479.5c4.142,0,7.5-3.357,7.5-7.5s-3.358-7.5-7.5-7.5H420V153.5c0-3.01-1.799-5.728-4.569-6.903
		L309.95,101.814C289.415,92.16,266.794,87,243.5,87c-23.295,0-45.917,5.161-66.452,14.815L71.569,146.597
		C68.799,147.772,67,150.49,67,153.5v12.496H7.5c-4.142,0-7.5,3.357-7.5,7.5s3.358,7.5,7.5,7.5h66.923
		c0.026,0,0.051,0.004,0.077,0.004s0.051-0.004,0.077-0.004h25.457C91.48,200.615,87,221.992,87,243.5
		c0,21.506,4.48,42.882,13.035,62.5H7.5c-4.142,0-7.5,3.357-7.5,7.5s3.358,7.5,7.5,7.5H67v12.5c0,3.01,1.799,5.728,4.569,6.903
		l105.483,44.783C197.587,394.84,220.206,400,243.5,400c23.294,0,45.914-5.16,66.449-14.813l105.483-44.783
		c2.77-1.176,4.569-3.894,4.569-6.903v-12.495h59.5c4.142,0,7.5-3.357,7.5-7.5S483.642,306.005,479.5,306.005z M405,328.536
		l-44.648,18.956c1.125-1.263,2.237-2.541,3.325-3.844c2.654-3.18,2.228-7.909-0.952-10.563s-7.91-2.229-10.563,0.952
		c-13.458,16.124-30.033,28.822-48.47,37.511l-0.08,0.034c-0.107,0.045-0.207,0.101-0.311,0.151
		C284.808,380.379,264.455,385,243.5,385c-20.959,0-41.315-4.623-59.812-13.273c-0.101-0.048-0.197-0.102-0.301-0.146l-0.074-0.031
		c-18.439-8.69-35.016-21.388-48.476-37.513c-2.654-3.18-7.384-3.605-10.563-0.952c-3.18,2.654-3.606,7.384-0.952,10.563
		c1.088,1.304,2.2,2.581,3.325,3.844L82,328.536V321h29.993c2.636,0,5.078-1.384,6.433-3.645s1.424-5.066,0.181-7.391
		C107.743,289.638,102,266.655,102,243.5c0-23.157,5.743-46.142,16.607-66.469c1.243-2.324,1.174-5.13-0.181-7.391
		s-3.797-3.645-6.433-3.645H82v-7.532l44.647-18.955c-1.125,1.263-2.237,2.541-3.326,3.845c-2.654,3.18-2.228,7.909,0.952,10.563
		c1.403,1.171,3.107,1.742,4.802,1.742c2.147,0,4.279-0.917,5.762-2.694c13.459-16.125,30.035-28.823,48.473-37.513l0.077-0.033
		c0.105-0.045,0.203-0.099,0.305-0.148C202.188,106.622,222.543,102,243.5,102c20.958,0,41.314,4.622,59.809,13.272
		c0.101,0.048,0.198,0.103,0.303,0.147l0.075,0.032c18.438,8.69,35.015,21.388,48.473,37.512c2.655,3.181,7.385,3.607,10.564,0.952
		c3.18-2.654,3.606-7.384,0.952-10.563c-1.088-1.303-2.2-2.581-3.324-3.843L405,158.464v7.526h-29.995
		c-2.636,0-5.078,1.384-6.433,3.645s-1.424,5.066-0.181,7.391C379.256,197.354,385,220.341,385,243.5
		c0,23.157-5.743,46.142-16.607,66.47c-1.242,2.324-1.173,5.131,0.182,7.391c1.355,2.261,3.797,3.645,6.433,3.645H405V328.536z"/>
	<path d="M325.884,171.821c-3.301,2.502-3.95,7.206-1.448,10.507C337.889,200.082,345,221.234,345,243.5
		c0,55.968-45.533,101.5-101.5,101.5S142,299.468,142,243.5S187.533,142,243.5,142c22.266,0,43.418,7.11,61.171,20.563
		c3.301,2.501,8.006,1.855,10.507-1.448c2.502-3.301,1.854-8.005-1.448-10.507C293.349,135.164,269.063,127,243.5,127
		C179.262,127,127,179.262,127,243.5S179.262,360,243.5,360S360,307.738,360,243.5c0-25.563-8.164-49.849-23.609-70.23
		C333.89,169.968,329.186,169.319,325.884,171.821z"/>
	<path d="M243.5,177c-4.142,0-7.5,3.357-7.5,7.5v45.83c-4.574,2.616-7.67,7.534-7.67,13.17c0,8.365,6.806,15.171,15.17,15.171
		c5.636,0,10.554-3.096,13.17-7.671h65.83c4.142,0,7.5-3.357,7.5-7.5s-3.358-7.5-7.5-7.5h-65.83c-1.349-2.36-3.31-4.321-5.67-5.67
		V184.5C251,180.357,247.642,177,243.5,177z"/>
</g>
<g>
</g>
<g>
</g>
<g>
</g>
<g>
</g>
<g>
</g>
<g>
</g>
<g>
</g>
<g>
</g>
<g>
</g>
<g>
</g>
<g>
</g>
<g>
</g>
<g>
</g>
<g>
</g>
<g>
</g>
</svg>
