<?xml version="1.0" encoding="UTF-8" standalone="no"?>
<svg
   xmlns:dc="http://purl.org/dc/elements/1.1/"
   xmlns:cc="http://creativecommons.org/ns#"
   xmlns:rdf="http://www.w3.org/1999/02/22-rdf-syntax-ns#"
   xmlns:svg="http://www.w3.org/2000/svg"
   xmlns="http://www.w3.org/2000/svg"
   id="svg8"
   version="1.1"
   viewBox="0 0 210 297"
   height="297mm"
   width="210mm">
  <defs
     id="defs2" />
  <metadata
     id="metadata5">
    <rdf:RDF>
      <cc:Work
         rdf:about="">
        <dc:format>image/svg+xml</dc:format>
        <dc:type
           rdf:resource="http://purl.org/dc/dcmitype/StillImage" />
        <dc:title></dc:title>
      </cc:Work>
    </rdf:RDF>
  </metadata>
  <g
     id="layer1">
    <path
       id="path5432"
       d="M 77.711019,-0.51314696 C 67.669332,-0.27468348 57.592065,-0.80253297 47.57384,-0.20360514 42.928738,1.6441488 37.684717,1.0943985 33.675981,4.0726195 29.291425,7.1959107 25.259126,11.797787 24.298106,17.200287 22.42648,22.159992 21.132081,27.398736 19.63704,32.535338 c -0.466245,4.862698 -2.939281,9.242637 -2.531624,14.175642 0.32174,3.096192 -0.02976,5.843903 -0.534851,8.502187 -3.047152,0.953765 -4.422582,3.028257 -3.741374,6.129285 1.078838,3.653941 3.943239,6.656054 6.146911,9.814962 2.329773,1.036767 0.2323,4.445817 0.802019,6.681761 0.341686,3.219865 0.513529,7.005415 2.137854,9.086784 3.005298,3.886329 4.607117,7.862638 9.087299,10.156486 3.618598,2.480058 8.252264,5.139175 11.760007,6.948925 3.56286,0.6746 6.895316,2.68405 10.702716,2.13837 7.379469,-0.0853 14.783916,0.17907 22.145966,-0.14995 4.77393,-1.40641 10.045318,-0.81811 14.725157,-2.79043 3.874903,-1.15244 6.911025,-3.272617 10.15597,-5.077729 3.16211,-2.656747 7.74838,-4.903589 9.62215,-8.285284 2.08446,-2.017159 4.26018,-4.057211 5.61258,-6.681761 1.86384,-3.480022 4.38265,-7.099411 4.00906,-11.23162 0.3946,-2.732093 -0.7393,-8.532937 2.83665,-8.012166 3.66882,0.399071 7.09695,-2.165088 8.08154,-4.717542 1.37805,-1.886709 1.94853,-3.98059 1.64331,-6.445154 -0.0916,-3.253047 -1.51297,-7.320442 -2.6727,-9.684094 -3.09328,-5.193197 -10.18196,4.447199 -11.49232,-1.336352 -2.5992,-4.134051 -3.03694,-9.521106 -5.07825,-13.630693 C 110.67897,22.535592 106.50743,17.762947 102.89863,12.892236 100.77271,7.9763778 96.035623,5.3709757 91.940641,2.2019327 87.645088,0.21359519 82.319669,0.77766174 77.711019,-0.51314696 Z M 97.462267,6.2208089 c 0.356063,0.164102 -0.244678,-0.2827668 0,0 z m 33.192803,53.0024491 -0.0524,0.114197 z m -116.258533,5.587773 0.02711,0.181197 z m 104.536773,-21.721673 -0.004,0.02326 z"
       style="fill:#442178;fill-opacity:1;fill-rule:evenodd;stroke:#020101;stroke-width:5.26500034;stroke-linecap:butt;stroke-linejoin:miter;stroke-miterlimit:4;stroke-dasharray:none;stroke-opacity:1" />
    <path
       id="path5403"
       d="m 117.59859,44.964834 c 3.47941,-1.085439 9.79989,-6.120579 12.02713,-1.336347 1.60199,2.126468 2.6061,6.463441 2.67269,9.627656 0.5029,2.202721 -0.79941,4.85321 -1.57925,5.771932 -1.30493,3.367743 -4.44224,5.047419 -8.11076,4.912897 -2.26396,0.168765 -4.45426,-0.04768 -6.3352,-1.10301 -1.60645,-0.973601 -0.49644,-4.792383 -0.81277,-6.983383 -0.0657,-3.298341 0.14385,-6.246484 1.06908,-9.018858 0.36216,-0.485519 0.98942,-0.411414 1.06908,-1.870887 z"
       style="fill:#442178;fill-opacity:1;fill-rule:evenodd;stroke:none;stroke-width:0.26458332px;stroke-linecap:butt;stroke-linejoin:miter;stroke-opacity:1" />
    <path
       id="path5375"
       d="m 17.372519,50.042955 c -0.861083,-4.17462 0.110246,-8.326057 1.069078,-12.294396 1.110323,-5.502231 2.827157,-10.84834 4.374594,-16.193219 1.409462,-5.189546 2.971059,-10.471247 7.117997,-14.275508 3.001755,-3.8512743 7.548745,-5.3073254 12.027127,-6.1471991 4.682989,-1.48165349 9.552277,-1.77000771 14.438507,-1.60361713 7.303147,0.00155 14.608875,-0.002149 21.91015,0 5.50578,1.50099863 11.904778,0.53455203 16.303439,4.54358183 3.567653,2.3758279 6.451499,5.2976516 8.819899,9.3544334 3.47527,5.149054 7.94272,9.844206 10.07516,15.745978 1.6562,4.110146 2.46798,9.372274 5.04916,13.39875 2.01422,3.532636 1.14685,7.72711 1.7395,11.612444 0.0592,4.252785 0.6443,8.610518 -0.067,12.848941 -1.24199,3.773559 0.59951,8.092559 -2.09921,11.473056 -1.44221,3.564617 -3.35476,6.789517 -6.02507,9.369099 -2.38918,2.946404 -4.94322,5.625699 -8.40528,7.870746 -2.80799,2.455932 -5.843598,3.855703 -8.8199,5.612655 -4.23164,2.14305 -9.194636,3.4842 -14.021575,3.69668 -3.741705,0.34966 -7.295687,1.46304 -11.107712,1.11418 -6.936133,-0.0894 -13.909108,0.18965 -20.819446,-0.15763 -4.524992,-1.73072 -8.133689,-2.37775 -12.048753,-5.18776 -3.71202,-2.380081 -7.737142,-4.399455 -10.690781,-7.48355 -1.603396,-3.942735 -5.912324,-6.523851 -5.879929,-10.958052 -0.555911,-3.038942 -0.749042,-6.223185 -0.361487,-9.431547 0.574072,-2.535991 -0.360482,-4.216276 -1.5094,-6.337355 -1.489033,-3.336255 -1.409001,-7.331515 -1.870886,-10.895696 0.01693,-2.222639 0.620367,-3.413182 0.801808,-5.675015 z"
       style="fill:#442178;fill-opacity:1;fill-rule:evenodd;stroke:none;stroke-width:0.26458332px;stroke-linecap:butt;stroke-linejoin:miter;stroke-opacity:1" />
    <path
       id="path5395"
       d="m 84.457169,39.084906 c -3.86699,0.670853 -3.209005,5.19598 -3.474503,8.626882 0.04957,3.109409 -0.496394,5.825935 1.870887,7.943829 1.864136,2.319297 4.948613,3.460266 8.08639,3.207234 4.60167,-0.123965 9.327487,0.277964 13.829707,-0.267272 2.25126,-1.161079 5.93684,-1.704064 6.6991,-4.798334 0.98775,-1.097982 1.58389,-3.544601 1.31899,-6.103316 0.41856,-3.364939 -0.77826,-5.322231 -1.87089,-8.074486 -2.71514,-2.099584 -6.23748,-2.766877 -10.09389,-2.939962 -4.386183,0 -8.77237,0 -13.158557,0 -1.393841,0.446744 -2.232186,1.407693 -3.207234,2.405425 z"
       style="fill:#ffffff;fill-opacity:1;fill-rule:evenodd;stroke:none;stroke-width:0.26458332px;stroke-linecap:butt;stroke-linejoin:miter;stroke-opacity:1" />
    <path
       id="path5397"
       d="m 55.324792,38.015828 c -4.149712,-0.348521 -8.645668,-0.76823 -12.606275,0.826798 -3.220156,0.271159 -7.222087,2.878728 -8.063137,4.469718 -2.766461,2.061252 -1.684148,6.853734 -1.245498,9.746687 0.672423,1.724963 2.178212,6.52759 3.769251,7.556071 1.07085,2.37623 4.106481,4.904366 6.906313,5.749786 3.033343,-0.04033 6.067506,-0.0083 9.10119,-0.01849 4.079779,-2.736516 7.418325,-5.709831 10.95805,-8.819896 1.959927,-2.435054 3.468659,-5.137957 3.474503,-8.421965 0.558853,-3.593083 -2.318942,-5.895926 -4.904218,-7.402649 -0.397154,-1.646358 -3.161491,-2.233078 -4.717485,-3.151522 -0.868131,-0.356705 -1.765691,-0.16476 -2.672694,-0.534537 z"
       style="fill:#ffffff;fill-opacity:1;fill-rule:evenodd;stroke:none;stroke-width:0.26458332px;stroke-linecap:butt;stroke-linejoin:miter;stroke-opacity:1" />
    <path
       id="path5377"
       d="m 40.88123,43.29769 c -0.499722,-2.268689 2.614935,-1.979424 4.299636,-2.643892 3.529581,-0.560603 5.773788,3.210527 7.956679,5.055411 0.673758,0.252366 1.479991,1.840126 1.158552,3.337126 -0.152813,2.427272 -2.57492,3.833456 -4.643608,4.826923 -1.868735,0.75203 -3.914355,1.092356 -6.019492,0.99146 -1.757605,-0.02534 -3.660701,0.317848 -4.643608,-1.156703 -0.902164,-1.341885 -2.216263,-2.989749 -1.89184,-4.880197 -0.521379,-1.915268 1.222923,-2.520487 2.063825,-3.712452 0.363524,-1.47609 0.979265,-0.550446 1.719856,-1.817676 z"
       style="fill:#000000;fill-opacity:1;fill-rule:evenodd;stroke:none;stroke-width:0.16688633px;stroke-linecap:butt;stroke-linejoin:miter;stroke-opacity:1" />
    <path
       id="path5379"
       d="m 86.060788,44.505819 c 1.993337,-2.049429 4.676215,-3.383489 7.434013,-4.14084 2.30266,-0.470579 3.948134,0.947374 5.535973,2.484504 1.521396,1.065211 0.766602,3.405226 0.949019,5.13464 -0.232507,2.488923 -1.966544,4.461502 -4.513143,3.975206 -2.177447,-0.160027 -4.481002,0.353885 -6.558794,-0.331266 -1.162708,-1.224786 -1.47381,-2.697099 -2.214386,-4.140841 -0.404432,-0.823846 -0.300926,-1.953478 -0.632682,-2.981403 z"
       style="fill:#000000;fill-opacity:1;fill-rule:evenodd;stroke:none;stroke-width:0.16023225px;stroke-linecap:butt;stroke-linejoin:miter;stroke-opacity:1" />
    <path
       id="path5381"
       d="m 80.719772,44.964834 c -0.278396,-3.504316 1.724172,-6.890898 4.829211,-8.819894 5.485238,-1.176929 11.709258,-0.819007 17.546307,-0.669701 5.84694,-0.383167 11.77165,2.712404 10.46312,7.885979 -1.79563,1.768356 -7.01741,1.458195 -6.41058,-1.802046 -1.80599,-1.736081 -4.37652,-2.608462 -7.76228,-2.474266 -4.218392,-0.25516 -7.979219,0.953255 -10.939041,2.138156 -3.237925,0.423399 -4.786609,3.078744 -7.726737,3.741772 z"
       style="fill:#2d1650;fill-opacity:1;fill-rule:evenodd;stroke:none;stroke-width:0.29038903px;stroke-linecap:butt;stroke-linejoin:miter;stroke-opacity:1" />
    <path
       id="path5383"
       d="m 33.325166,48.17207 c -0.706226,-2.736033 -2.241153,-6.314442 -0.426752,-8.829298 3.10065,-3.237905 4.820759,-3.467084 10.329951,-3.999641 4.008782,0.171081 8.375721,-0.43699 11.96637,0.534541 3.673359,1.476813 8.333867,3.646221 11.125377,6.155547 1.355277,0.694084 3.134854,5.78345 -2.460079,3.466155 -0.965696,-1.309132 -3.567147,-4.481457 -3.819156,-4.276312 -4.550203,0.100077 -9.297005,-0.33399 -13.511446,0.534537 -3.612223,1.206656 -4.511259,2.56976 -7.840033,4.276313 -2.127999,-0.01872 -2.922622,2.152005 -5.364232,2.138158 z"
       style="fill:#2d1650;fill-opacity:1;fill-rule:evenodd;stroke:none;stroke-width:0.32875314px;stroke-linecap:butt;stroke-linejoin:miter;stroke-opacity:1" />
    <path
       id="path5385"
       d="m 72.964579,69.286363 c 1.451972,-4.309517 7.963531,-4.201321 11.759861,-5.612662 2.236879,0.290245 4.930068,3.280033 4.543581,6.414468 -0.252243,3.193491 -4.87038,4.475115 -7.483546,5.078121 -1.691184,0.383673 -1.1923,-4.223524 -4.810853,-2.138156 -1.483193,0.501564 -5.843035,2.988947 -5.34539,-0.739456 0.147715,-0.88671 -0.303286,-2.56297 0.267269,-3.002315"
       style="fill:#aa87de;fill-opacity:1;fill-rule:evenodd;stroke:none;stroke-width:0.26458332px;stroke-linecap:butt;stroke-linejoin:miter;stroke-opacity:1" />
    <path
       id="path5389"
       d="m 63.877417,88.529767 c 3.604897,-1.663725 5.836353,-3.024613 10.423511,-3.741774 4.272136,-0.929025 8.320306,-2.039835 13.164512,-2.405425 2.142625,-0.0674 4.849902,-0.07637 5.839069,0.782962 1.315038,2.784166 -1.562099,2.637049 -3.234679,3.49335 -3.779521,-0.03799 -7.67651,-0.121561 -11.091686,0.801809 -3.704384,0.600038 -7.361617,2.296754 -11.091684,2.939966 -1.441337,1.534652 -1.230119,-2.1105 -4.009043,-1.870888 z"
       style="fill:#000000;fill-opacity:1;fill-rule:evenodd;stroke:none;stroke-width:0.26458332px;stroke-linecap:butt;stroke-linejoin:miter;stroke-opacity:1" />
    <path
       id="path5387"
       d="m 63.342876,89.598845 c 4.686154,-3.808122 10.593552,-4.417345 16.443966,-4.983131 5.24617,-1.802795 10.764374,-0.521797 16.106517,-0.629528 2.326984,-0.690645 4.969901,1.424917 3.530905,3.474503 -2.38789,1.425129 -5.619393,0.565156 -8.552625,0.80181 -3.448837,-0.510117 -7.209171,-0.294013 -10.690783,0 -3.588101,0.887224 -5.594512,2.397432 -8.819893,3.207234 -3.067253,0.46251 -4.788329,2.219553 -8.018087,1.336347 -1.840921,0.451888 -1.998378,-3.101655 0,-3.207235 z"
       style="fill:#5a2ca0;fill-opacity:1;fill-rule:evenodd;stroke:none;stroke-width:0.26458332px;stroke-linecap:butt;stroke-linejoin:miter;stroke-opacity:1" />
    <path
       id="path5391"
       d="m 49.712131,73.028134 c -3.628992,1.99557 -7.347096,3.480016 -10.333565,6.591793 -2.721447,2.860232 -1.332453,7.197884 -1.738386,10.924943 0.972927,1.783058 2.540789,3.772957 5.122945,4.132097 4.809571,1.951371 10.051078,1.617844 14.432552,-1.069078 3.209552,-0.223538 4.794822,-3.977836 4.041157,-7.024993 -1.039997,-2.936321 -0.352697,-6.921605 -3.239348,-9.011178 -2.159372,-1.866581 -4.019115,-2.755507 -5.879928,-3.474506 -0.633523,-0.824396 -1.304033,-1.402239 -2.405427,-1.069078 z"
       style="fill:#8d5fd3;fill-opacity:1;fill-rule:evenodd;stroke:none;stroke-width:0.26458332px;stroke-linecap:butt;stroke-linejoin:miter;stroke-opacity:1" />
    <path
       id="path5393"
       d="m 109.5805,67.682744 c -3.96884,-0.301126 -6.81574,4.795207 -6.949,8.421965 -0.0754,3.665928 2.2353,7.497145 4.54358,9.752362 2.3151,1.147256 4.3409,-0.413545 5.76,-2.285496 3.6416,-2.079582 2.50911,-7.083235 1.99081,-10.543441 0.36799,-3.592668 -3.79195,-3.420798 -5.34539,-5.34539 z"
       style="fill:#aa87de;fill-opacity:1;fill-rule:evenodd;stroke:none;stroke-width:0.26458332px;stroke-linecap:butt;stroke-linejoin:miter;stroke-opacity:1" />
    <path
       id="path5399"
       d="m 85.526247,63.139163 c -2.393286,-1.754132 -4.575452,-4.150612 -5.879928,-7.216277 -2.000801,-2.69567 -2.069195,-5.977145 -2.639288,-9.220799 -1.60126,-2.635766 -6.625903,0.900579 -4.57699,4.677218 0.450541,2.581095 2.386287,4.02367 4.016374,6.14228 1.938551,2.405799 2.804842,4.153773 4.536251,5.884847 0.606076,1.158604 4.019531,0.74295 4.543581,0.801809 z"
       style="fill:#442178;fill-opacity:1;fill-rule:evenodd;stroke:none;stroke-width:0.26458332px;stroke-linecap:butt;stroke-linejoin:miter;stroke-opacity:1" />
    <path
       id="path5401"
       d="m 28.063301,56.991964 c 0.7321,-2.79116 0.305925,-5.988144 -3.144882,-5.078122 -4.672325,-0.357651 -8.208177,3.5934 -12.089482,5.612659 0.0166,2.342557 -0.405832,4.972407 1.336348,6.68174 1.108638,2.678184 4.331164,5.94479 5.859956,8.078363 1.719884,2.233321 5.086912,1.392357 7.788649,1.54334 3.262035,0.735478 3.66528,-4.073343 4.258454,-6.681738 0.147973,-4.81337 -3.672864,4.975213 -3.748205,-0.790732 -0.29453,-2.364634 0.477042,-5.468308 0.540968,-6.692817 -0.08601,-0.957854 0.408724,-2.07011 -0.801806,-2.672693 z"
       style="fill:#442178;fill-opacity:1;fill-rule:evenodd;stroke:none;stroke-width:0.26458332px;stroke-linecap:butt;stroke-linejoin:miter;stroke-opacity:1" />
    <path
       id="path5407"
       d="m 78.309972,25.988699 c -1.932688,-0.234298 -4.190733,5.694759 -0.534541,7.216276 3.563986,3.355175 6.849663,0.434149 10.696735,0.801809 3.104895,0.110898 6.341679,-0.388898 9.081211,0.801809 3.266933,0.584631 6.661233,2.301831 10.292853,2.138157 2.2876,0.92366 5.10271,-1.422327 2.00155,-2.138157 -1.54701,-0.714766 -4.32397,-1.771617 -5.61267,-3.207234 -3.01265,-0.581391 -6.57586,-1.588069 -9.621699,-3.207234 -2.87487,-0.951173 -6.018129,-1.977552 -8.819893,-2.672696 -2.490044,0.09528 -5.045493,-0.233941 -7.483546,0.26727 z"
       style="fill:#000000;fill-opacity:1;fill-rule:evenodd;stroke:none;stroke-width:0.26458332px;stroke-linecap:butt;stroke-linejoin:miter;stroke-opacity:1" />
    <path
       id="path5409"
       d="m 27.52876,38.817637 c 3.303991,-2.338959 5.809068,-6.344183 9.354434,-7.750818 3.534662,-1.572571 7.131784,-3.227432 11.225321,-3.741772 3.389137,-0.870836 6.594274,-2.205648 10.429463,-1.870887 2.999525,-0.540717 4.416783,0.386269 5.336746,3.313591 -0.128216,2.955681 -3.990471,3.049607 -6.144507,3.635418 -2.881815,0.418851 -5.757645,1.031599 -8.819893,0.801806 -4.168761,0.214293 -7.87136,1.459185 -12.02713,1.603618 -2.491647,1.808292 -6.393441,3.149041 -9.354434,4.009044 z"
       style="fill:#000000;fill-opacity:1;fill-rule:evenodd;stroke:none;stroke-width:0.26458332px;stroke-linecap:butt;stroke-linejoin:miter;stroke-opacity:1" />
  </g>
</svg>
